<?xml version="1.0" encoding="UTF-8"?>
<svg id="Layer_1" data-name="Layer 1" xmlns="http://www.w3.org/2000/svg" viewBox="0 0 120.29 20.99">
  <defs>
    <style>
      .cls-1 {
        fill: #000;
        stroke-width: 0px;
      }
    </style>
  </defs>
  <path class="cls-1" d="M10.07,20.73c-4.75-.31-8.61-3.84-9.43-8.43,0,0,3.19-.19,5.67,2.7l-.48.48s-1.24-1.26-3.38-1.68c0,0,1.57,4.25,6.23,5.13,0,0,.54-7.88-7.39-8.06H.5c0-.12-.01-.25-.01-.37s0-.25.01-.37h.81c7.93-.19,7.39-8.06,7.39-8.06-4.67.88-6.23,5.13-6.23,5.13,2.14-.42,3.38-1.68,3.38-1.68l.48.48c-2.49,2.89-5.67,2.7-5.67,2.7C1.46,4.1,5.33.57,10.07.26c0,0,.72,8.57-5.82,10.24,6.55,1.67,5.82,10.24,5.82,10.24M11.41,20.73c4.75-.31,8.61-3.84,9.43-8.43,0,0-3.19-.19-5.67,2.7l.48.48s1.24-1.26,3.38-1.68c0,0-1.57,4.25-6.23,5.13,0,0-.54-7.88,7.39-8.06h.81c0-.12.01-.25.01-.37s0-.25-.01-.37h-.81c-7.93-.19-7.39-8.06-7.39-8.06,4.66.88,6.23,5.13,6.23,5.13-2.14-.42-3.38-1.68-3.38-1.68l-.48.48c2.49,2.89,5.67,2.7,5.67,2.7C20.03,4.1,16.16.57,11.41.26c0,0-.72,8.57,5.82,10.24-6.55,1.67-5.82,10.24-5.82,10.24"/>
  <path class="cls-1" d="M34.21,10.33v-.1c.79-.29,1.46-1.07,1.46-1.79,0-1.9-1.62-2.33-3.69-2.33h-4.35s.9.78.94,1.47v7.31h3.93c2.65,0,3.64-1.08,3.64-2.47,0-.91-.74-1.83-1.93-2.09M30.52,7.19c.16-.02,1.03-.04,1.24-.04,1.29,0,1.89.46,1.89,1.32s-.52,1.46-1.8,1.46h-1.33v-2.75ZM32.18,13.84c-.36,0-1.33-.02-1.66-.06v-2.85h1.36c1.61,0,2.18.67,2.18,1.49s-.4,1.42-1.88,1.42"/>
  <path class="cls-1" d="M44.88,13.64l-.11,1.25h-6.1v-7.31c-.05-.69-.94-1.47-.94-1.47h2.96c-.04.16-.06.35-.06.95v6.75h3.03c.36,0,.95-.08,1.23-.16"/>
  <path class="cls-1" d="M54.1,6.12c-.03.15-.05.35-.05.95v4.33c0,2.03-1.31,3.64-3.87,3.64-3.12,0-3.98-1.59-3.98-4.14v-3.3c-.05-.69-.94-1.47-.94-1.47h2.95c-.04.15-.06.35-.06.95v3.81c0,1.57.44,3.07,2.17,3.07s2.2-1.33,2.2-3.08v-3.61c0-.54-.09-.93-.16-1.13h1.75Z"/>
  <path class="cls-1" d="M63.3,13.64l-.11,1.25h-6.29v-7.29c-.05-.69-.94-1.47-.94-1.47h6.92c.05.4.09.83.13,1.25-.28-.1-.87-.16-1.23-.16h-2.9v2.65h2.41c.36,0,.97-.06,1.25-.16v1.4c-.28-.09-.88-.16-1.25-.16h-2.41v2.87h3.21c.36,0,.95-.06,1.22-.16"/>
  <path class="cls-1" d="M87.36,10.5c0,2.53-1.91,4.53-4.93,4.53s-4.82-1.95-4.82-4.54,1.9-4.53,4.92-4.53,4.83,1.95,4.83,4.54M85.28,10.52c0-2.05-1.11-3.48-2.81-3.48s-2.79,1.37-2.79,3.44,1.1,3.46,2.78,3.46,2.82-1.37,2.82-3.43"/>
  <path class="cls-1" d="M115.27,12.57c0,1.38-1.23,2.47-3.03,2.47-1.25,0-2.09-.25-3.04-.64l-.14-1.86h.3c.79.79,1.84,1.41,2.81,1.41.73,0,1.21-.5,1.21-1.08,0-.49-.29-.84-1.14-1.31l-1.1-.6c-1.39-.76-2-1.4-2-2.56,0-1.31,1.13-2.43,2.9-2.43,1.09,0,1.93.25,2.82.69l.15,1.81h-.33c-.93-1.07-1.62-1.41-2.61-1.41-.63,0-1.07.47-1.07.99s.39.82,1.31,1.34l1.07.59c1.36.76,1.89,1.5,1.89,2.59"/>
  <path class="cls-1" d="M107.13,13.64l-.11,1.25h-6.29v-7.29c-.05-.69-.94-1.47-.94-1.47h6.92c.05.4.09.83.13,1.25-.28-.1-.87-.16-1.24-.16h-2.9v2.65h2.41c.35,0,.97-.06,1.25-.16v1.4c-.28-.09-.88-.16-1.25-.16h-2.41v2.87h3.22c.36,0,.94-.06,1.22-.16"/>
  <path class="cls-1" d="M97.81,6.11c-.02.16-.06.35-.06.93v7.9h-1.14l-5.53-6.11v4.89c0,.35.06.92.14,1.17h-1.66v-7.31c-.04-.69-.95-1.47-.95-1.47h2.35l5.25,5.71v-4.57c0-.53-.07-.93-.15-1.13h1.75Z"/>
  <path class="cls-1" d="M75.38,13.8c.37,0,.97-.08,1.23-.16l-.13,1.25h-8.07v-.44l5.31-7.25h-4.07c-.37,0-.96.08-1.22.16l.11-1.25h7.91v.35l-5.36,7.34h4.28Z"/>
  <path class="cls-1" d="M118.49,8.82c-.82,0-1.46-.66-1.46-1.47s.65-1.47,1.47-1.47,1.46.66,1.46,1.46-.65,1.47-1.47,1.47M118.5,6.12c-.7,0-1.23.56-1.23,1.24s.52,1.23,1.22,1.23,1.23-.56,1.23-1.24-.52-1.23-1.22-1.23M118.84,7.52l.36.53h-.38l-.31-.48h-.26v.48h-.33v-1.48h.66c.35,0,.58.18.58.49,0,.24-.13.39-.32.46M118.56,6.86h-.32v.43h.33c.16,0,.25-.09.25-.21,0-.15-.1-.22-.26-.22"/>
</svg>