<svg id="Layer_1" data-name="Layer 1" xmlns="http://www.w3.org/2000/svg" viewBox="0 0 392 161"><path d="M78.77,158.5a74.47,74.47,0,0,1-54.21-22.6A76,76,0,0,1,8.69,111.2,80.88,80.88,0,0,1,3,81v-.4a80.39,80.39,0,0,1,5.69-30A78.23,78.23,0,0,1,24.51,25.72,74.24,74.24,0,0,1,48.73,8.84,75.72,75.72,0,0,1,79.36,2.67,91.4,91.4,0,0,1,97.71,4.38a78.08,78.08,0,0,1,15.4,4.85,71.37,71.37,0,0,1,13.28,7.62,112.29,112.29,0,0,1,11.28,9.51L127.54,36.91a96,96,0,0,0-9.79-8.25,56,56,0,0,0-10.52-6A63.39,63.39,0,0,0,94.74,18.7a76.72,76.72,0,0,0-15.38-1.4A61.26,61.26,0,0,0,54.6,22.24,59.66,59.66,0,0,0,35.12,35.79,63.5,63.5,0,0,0,22.27,56a65.68,65.68,0,0,0-4.64,24.58V81a66.13,66.13,0,0,0,4.64,24.77,61.15,61.15,0,0,0,12.8,20,59.83,59.83,0,0,0,43.7,18.16,68.77,68.77,0,0,0,15.33-1.57,63.69,63.69,0,0,0,12.76-4.37,60.92,60.92,0,0,0,11.07-6.71,89.15,89.15,0,0,0,10.19-9.11l10.53,10.16a105.5,105.5,0,0,1-11.85,10.58,76.4,76.4,0,0,1-13.71,8.32,78.16,78.16,0,0,1-15.71,5.38,83.09,83.09,0,0,1-18.61,1.94"/><path d="M79.66,136.47a53.54,53.54,0,0,1-38.93-16.24A54.47,54.47,0,0,1,29.34,102.5a57.81,57.81,0,0,1-4.08-21.65v-.26a57.39,57.39,0,0,1,4.08-21.51A56,56,0,0,1,40.68,41.27,53.34,53.34,0,0,1,58.07,29.14a54.52,54.52,0,0,1,22-4.44,65.18,65.18,0,0,1,13.1,1.23,56.17,56.17,0,0,1,11,3.48,50.77,50.77,0,0,1,9.55,5.49,77.39,77.39,0,0,1,8,6.74L111.8,52a65,65,0,0,0-6.53-5.5,36,36,0,0,0-6.85-3.93A41.77,41.77,0,0,0,90.23,40a50.79,50.79,0,0,0-10.17-.93,40.17,40.17,0,0,0-16.21,3.23,39.08,39.08,0,0,0-12.74,8.86,41.8,41.8,0,0,0-8.43,13.26,43.2,43.2,0,0,0-3,16.16v.26a43.5,43.5,0,0,0,3,16.29,40.32,40.32,0,0,0,8.38,13.08,39.18,39.18,0,0,0,28.6,11.87,45.24,45.24,0,0,0,10.08-1,41.73,41.73,0,0,0,8.38-2.86,40.25,40.25,0,0,0,7.24-4.39,60.91,60.91,0,0,0,6.78-6.07l10.36,10a74,74,0,0,1-8.42,7.52,54.35,54.35,0,0,1-9.84,6A55.14,55.14,0,0,1,93,135.07a59.26,59.26,0,0,1-13.32,1.4"/><path d="M80.43,114.34a32.4,32.4,0,0,1-23.58-9.85A33.25,33.25,0,0,1,50,93.77a34.92,34.92,0,0,1-2.46-13v-.15a34.68,34.68,0,0,1,2.46-13,33.94,33.94,0,0,1,6.86-10.75,32.06,32.06,0,0,1,10.54-7.35,32.84,32.84,0,0,1,13.3-2.7,38.55,38.55,0,0,1,7.82.74,33.41,33.41,0,0,1,6.68,2.11A30.87,30.87,0,0,1,101,53a48.42,48.42,0,0,1,4.72,4l-9.44,9.83A32,32,0,0,0,92.92,64a18.07,18.07,0,0,0-3.25-1.86,20.52,20.52,0,0,0-4-1.24,25.12,25.12,0,0,0-5-.45A19.1,19.1,0,0,0,72.82,62a18.48,18.48,0,0,0-6.13,4.26A19.94,19.94,0,0,0,62.6,72.7a20.76,20.76,0,0,0-1.48,7.88v.15a20.88,20.88,0,0,0,1.48,8A18.74,18.74,0,0,0,72.74,99.2a18.79,18.79,0,0,0,7.69,1.52,22,22,0,0,0,4.94-.5,20,20,0,0,0,4.06-1.39,18.54,18.54,0,0,0,3.5-2.12,29.61,29.61,0,0,0,3.43-3.06l9.81,9.45a44.18,44.18,0,0,1-5,4.45,33.35,33.35,0,0,1-6,3.61,34.3,34.3,0,0,1-6.8,2.34,35.87,35.87,0,0,1-8,.84"/><path d="M164,55a13.47,13.47,0,0,1-5.3-1,12.78,12.78,0,0,1-7-7.07,13.83,13.83,0,0,1-1-5.23v-.07a13.69,13.69,0,0,1,1-5.21,13.53,13.53,0,0,1,2.78-4.26,13.11,13.11,0,0,1,4.26-2.89,13.91,13.91,0,0,1,5.48-1.05,17.84,17.84,0,0,1,3.32.29,13.58,13.58,0,0,1,2.72.82,12.06,12.06,0,0,1,2.26,1.26,15.84,15.84,0,0,1,1.93,1.63l-3.63,4.19a13.45,13.45,0,0,0-3.1-2.15,7.86,7.86,0,0,0-3.53-.78,7.2,7.2,0,0,0-3,.63,7.05,7.05,0,0,0-2.39,1.74,8.09,8.09,0,0,0-1.56,2.57,8.77,8.77,0,0,0-.55,3.13v.08a8.92,8.92,0,0,0,.55,3.15,8.21,8.21,0,0,0,1.54,2.59,7.06,7.06,0,0,0,2.37,1.76,7.17,7.17,0,0,0,3.06.65A7.88,7.88,0,0,0,168,49a14.44,14.44,0,0,0,3-2.22l3.63,3.67a18.48,18.48,0,0,1-2.07,1.92,12.56,12.56,0,0,1-2.35,1.47,12.27,12.27,0,0,1-2.8.92A16.82,16.82,0,0,1,164,55"/><path d="M191.16,43.1A5.53,5.53,0,0,0,189.82,40,3.69,3.69,0,0,0,187,38.88,3.8,3.8,0,0,0,184.1,40a5.86,5.86,0,0,0-1.43,3.08ZM187.53,55a11.39,11.39,0,0,1-4.13-.74,9.68,9.68,0,0,1-3.3-2.11,9.81,9.81,0,0,1-2.17-3.25,10.67,10.67,0,0,1-.78-4.16v-.08a10.92,10.92,0,0,1,.73-4,9.93,9.93,0,0,1,2-3.29A9.35,9.35,0,0,1,183,35.17a10.51,10.51,0,0,1,8.28.08,8.69,8.69,0,0,1,3,2.39,10.05,10.05,0,0,1,1.78,3.44,14.38,14.38,0,0,1,.57,4.06c0,.22,0,.46,0,.7s0,.51-.05.78H182.75a4.77,4.77,0,0,0,1.68,2.91,5.09,5.09,0,0,0,3.17,1,6.29,6.29,0,0,0,2.52-.48,8.51,8.51,0,0,0,2.3-1.56l3.22,2.85a9.94,9.94,0,0,1-3.41,2.73,10.6,10.6,0,0,1-4.7,1"/><path d="M200.83,34.73h5.63v2.84a12.08,12.08,0,0,1,1-1.22,8,8,0,0,1,1.28-1,6.16,6.16,0,0,1,1.56-.71,7.3,7.3,0,0,1,6.91,1.7A7.82,7.82,0,0,1,219,41.73V54.58h-5.63v-11a4.47,4.47,0,0,0-.88-3,3.21,3.21,0,0,0-2.52-1,3.37,3.37,0,0,0-2.58,1,4.28,4.28,0,0,0-.94,3v11h-5.63Z"/><path d="M230.61,54.92a9.46,9.46,0,0,1-2.35-.28,4.13,4.13,0,0,1-1.82-1,4.72,4.72,0,0,1-1.18-1.84,8.07,8.07,0,0,1-.43-2.87V39.54h-2.37V34.73h2.37V29.65h5.63v5.08h4.67v4.81h-4.67v8.52c0,1.29.61,1.93,1.82,1.93a5.59,5.59,0,0,0,2.78-.74v4.52a9.18,9.18,0,0,1-2,.83,8.83,8.83,0,0,1-2.48.32"/><path d="M239.28,34.74h5.63v4a8.2,8.2,0,0,1,2.33-3.26,5.63,5.63,0,0,1,4-1.11v5.88H251A5.8,5.8,0,0,0,246.52,42c-1.07,1.13-1.61,2.9-1.61,5.29v7.33h-5.63Z"/><path d="M267.8,43.1A5.52,5.52,0,0,0,266.47,40a3.72,3.72,0,0,0-2.85-1.16A3.77,3.77,0,0,0,260.75,40a5.79,5.79,0,0,0-1.43,3.08ZM264.17,55a11.39,11.39,0,0,1-4.13-.74,9.63,9.63,0,0,1-3.29-2.11,9.81,9.81,0,0,1-2.17-3.25,10.67,10.67,0,0,1-.78-4.16v-.08a11.13,11.13,0,0,1,.72-4,10.1,10.1,0,0,1,2-3.29,9.45,9.45,0,0,1,3.09-2.23,10.51,10.51,0,0,1,8.28.08,8.69,8.69,0,0,1,3,2.39,9.72,9.72,0,0,1,1.78,3.44,14.38,14.38,0,0,1,.58,4.06c0,.22,0,.46,0,.7s0,.51-.06.78H259.39a4.83,4.83,0,0,0,1.69,2.91,5.07,5.07,0,0,0,3.17,1,6.36,6.36,0,0,0,2.52-.48,8.48,8.48,0,0,0,2.29-1.56l3.22,2.85a9.9,9.9,0,0,1-3.4,2.73,10.68,10.68,0,0,1-4.71,1"/><path d="M289.55,39.54h-2.34V34.91h2.34V33.65a6.55,6.55,0,0,1,1.59-4.81,6.18,6.18,0,0,1,4.56-1.56,14.81,14.81,0,0,1,2.28.15,10.09,10.09,0,0,1,1.72.41V32.5c-.42-.14-.83-.26-1.22-.35a6.77,6.77,0,0,0-1.34-.13c-1.36,0-2,.72-2,2.15V35h4.55v4.59h-4.48v15h-5.63Z"/><path d="M312.55,50.18a5.28,5.28,0,0,0,2.17-.43,4.61,4.61,0,0,0,1.61-1.17,5,5,0,0,0,1-1.72,6.24,6.24,0,0,0,.35-2.09v-.08a5.82,5.82,0,0,0-.37-2.09,5.45,5.45,0,0,0-1.07-1.74,5.3,5.3,0,0,0-1.67-1.21,5.48,5.48,0,0,0-4.28,0,4.72,4.72,0,0,0-1.61,1.16,5.18,5.18,0,0,0-1,1.73,6,6,0,0,0-.35,2.09v.07a5.88,5.88,0,0,0,.37,2.1,5.38,5.38,0,0,0,1.07,1.74,5.47,5.47,0,0,0,1.65,1.2,4.89,4.89,0,0,0,2.13.45M312.48,55a11.25,11.25,0,0,1-4.26-.8,10.45,10.45,0,0,1-3.39-2.18,10.25,10.25,0,0,1-2.24-3.26,9.87,9.87,0,0,1-.82-4v-.08a9.87,9.87,0,0,1,.82-4,10,10,0,0,1,2.26-3.27,10.5,10.5,0,0,1,3.41-2.23,11.11,11.11,0,0,1,4.29-.81,11.25,11.25,0,0,1,4.26.79,10.48,10.48,0,0,1,3.39,2.19,10.14,10.14,0,0,1,2.24,3.26,9.87,9.87,0,0,1,.82,4v.07a9.83,9.83,0,0,1-.82,4A10.08,10.08,0,0,1,320.18,52a10.65,10.65,0,0,1-3.4,2.22,11,11,0,0,1-4.3.82"/><path d="M327.33,34.74H333v4a8.22,8.22,0,0,1,2.34-3.26,5.61,5.61,0,0,1,4-1.11v5.88H339A5.8,5.8,0,0,0,334.57,42c-1.07,1.13-1.61,2.9-1.61,5.29v7.33h-5.63Z"/><polygon points="151.89 66.97 171.41 66.97 171.41 72.05 157.52 72.05 157.52 77.31 169.75 77.31 169.75 82.39 157.52 82.39 157.52 87.83 171.6 87.83 171.6 92.91 151.89 92.91 151.89 66.97"/><path d="M185.49,93.35a10.46,10.46,0,0,1-4.13-.81,10.15,10.15,0,0,1-6.2-9.45V83a10.41,10.41,0,0,1,2.92-7.3,10.09,10.09,0,0,1,3.28-2.23,10.63,10.63,0,0,1,4.2-.81,10.8,10.8,0,0,1,4.67.89A10.49,10.49,0,0,1,193.49,76l-3.44,3.71a9.13,9.13,0,0,0-2-1.59,4.91,4.91,0,0,0-2.53-.6,4.43,4.43,0,0,0-1.95.43,4.77,4.77,0,0,0-1.52,1.17,5.33,5.33,0,0,0-1,1.72,6.24,6.24,0,0,0-.35,2.09V83a6.59,6.59,0,0,0,.35,2.15,5.25,5.25,0,0,0,1,1.73,4.8,4.8,0,0,0,3.67,1.6,5,5,0,0,0,2.46-.58,10.44,10.44,0,0,0,2.1-1.53l3.29,3.33a12.72,12.72,0,0,1-3.29,2.61,10,10,0,0,1-4.82,1"/><path d="M207.09,88.5a5.11,5.11,0,0,0,2.16-.43,4.74,4.74,0,0,0,1.62-1.17,5,5,0,0,0,1-1.72,6,6,0,0,0,.36-2.09V83a6.06,6.06,0,0,0-.37-2.1,5.41,5.41,0,0,0-1.08-1.74,5.17,5.17,0,0,0-1.67-1.2,4.9,4.9,0,0,0-2.11-.45,5.35,5.35,0,0,0-2.17.43,4.67,4.67,0,0,0-1.6,1.17,4.88,4.88,0,0,0-1,1.72,6,6,0,0,0-.36,2.09V83a6,6,0,0,0,.37,2.09,5.41,5.41,0,0,0,1.08,1.74,5.15,5.15,0,0,0,1.65,1.2,4.89,4.89,0,0,0,2.13.45M207,93.35a11.06,11.06,0,0,1-4.26-.8,10.45,10.45,0,0,1-3.39-2.18,10.14,10.14,0,0,1-2.24-3.26,10,10,0,0,1-.81-4V83a10,10,0,0,1,.81-4,10.23,10.23,0,0,1,2.26-3.28,10.78,10.78,0,0,1,3.41-2.23,11.78,11.78,0,0,1,8.56,0,10.45,10.45,0,0,1,3.39,2.18A10.25,10.25,0,0,1,217,78.92a10,10,0,0,1,.81,4V83a9.94,9.94,0,0,1-.81,4,10.13,10.13,0,0,1-2.26,3.28,10.89,10.89,0,0,1-3.41,2.23,11.16,11.16,0,0,1-4.3.81"/><path d="M221.87,73.05h5.63v2.84a12,12,0,0,1,1.05-1.21,7.5,7.5,0,0,1,1.28-1,6.53,6.53,0,0,1,1.56-.71,6.7,6.7,0,0,1,1.92-.26,6.36,6.36,0,0,1,5,2,7.85,7.85,0,0,1,1.76,5.41V92.91h-5.63v-11a4.45,4.45,0,0,0-.89-3,3.18,3.18,0,0,0-2.52-1,3.34,3.34,0,0,0-2.58,1,4.26,4.26,0,0,0-.94,3v11h-5.63Z"/><path d="M254.76,88.5a5.13,5.13,0,0,0,2.17-.43,4.61,4.61,0,0,0,1.61-1.17,4.88,4.88,0,0,0,1-1.72,6,6,0,0,0,.35-2.09V83a5.84,5.84,0,0,0-.37-2.1,5.38,5.38,0,0,0-1.07-1.74A5.28,5.28,0,0,0,256.8,78a4.93,4.93,0,0,0-2.11-.45,5.28,5.28,0,0,0-2.17.43,4.71,4.71,0,0,0-1.61,1.17,5.2,5.2,0,0,0-1,1.72,6.24,6.24,0,0,0-.35,2.09V83a5.82,5.82,0,0,0,.37,2.09A5.56,5.56,0,0,0,251,86.85a5.15,5.15,0,0,0,1.65,1.2,4.89,4.89,0,0,0,2.13.45m-.07,4.85a11.06,11.06,0,0,1-4.26-.8A10.45,10.45,0,0,1,247,90.37a10.14,10.14,0,0,1-2.24-3.26,9.87,9.87,0,0,1-.82-4V83a9.8,9.8,0,0,1,.82-4,10.08,10.08,0,0,1,2.26-3.28,10.78,10.78,0,0,1,3.41-2.23,11.11,11.11,0,0,1,4.29-.81,11.25,11.25,0,0,1,4.26.8,10.45,10.45,0,0,1,3.39,2.18,10.25,10.25,0,0,1,2.24,3.26,9.87,9.87,0,0,1,.82,4V83a9.79,9.79,0,0,1-.82,4,10,10,0,0,1-2.26,3.28,10.73,10.73,0,0,1-3.4,2.23,11.16,11.16,0,0,1-4.3.81"/><path d="M269.54,73.05h5.64v2.84a10.83,10.83,0,0,1,1.05-1.21,7.13,7.13,0,0,1,1.28-1,6.42,6.42,0,0,1,1.57-.71,6.92,6.92,0,0,1,1.95-.26,6.65,6.65,0,0,1,3.39.82,5.56,5.56,0,0,1,2.2,2.35,9.27,9.27,0,0,1,2.89-2.37,8,8,0,0,1,3.63-.8,6.54,6.54,0,0,1,4.93,1.85A7.56,7.56,0,0,1,299.85,80V92.91h-5.63v-11a4.56,4.56,0,0,0-.86-3,3,3,0,0,0-2.44-1,3.17,3.17,0,0,0-2.5,1,4.35,4.35,0,0,0-.91,3v11h-5.63v-11a4.56,4.56,0,0,0-.85-3,3,3,0,0,0-2.45-1,3.18,3.18,0,0,0-2.5,1,4.4,4.4,0,0,0-.9,3v11h-5.64Z"/><path d="M305,73.05h5.63V92.91H305Zm-.15-7.19h5.92v5h-5.92Z"/><path d="M325.3,93.35a10.42,10.42,0,0,1-4.13-.81,10.09,10.09,0,0,1-3.28-2.21,10,10,0,0,1-2.15-3.26,10.2,10.2,0,0,1-.78-4V83a10.37,10.37,0,0,1,.78-4,10.13,10.13,0,0,1,2.15-3.3,10,10,0,0,1,3.28-2.23,10.63,10.63,0,0,1,4.2-.81,10.83,10.83,0,0,1,4.67.89A10.61,10.61,0,0,1,333.3,76l-3.45,3.71a8.86,8.86,0,0,0-2-1.59,5,5,0,0,0-2.54-.6,4.42,4.42,0,0,0-1.94.43,4.66,4.66,0,0,0-1.52,1.17,5.15,5.15,0,0,0-1,1.72,6,6,0,0,0-.35,2.09V83a6.34,6.34,0,0,0,.35,2.15,4.92,4.92,0,0,0,1,1.73,4.63,4.63,0,0,0,1.59,1.17,4.84,4.84,0,0,0,2.08.43,5,5,0,0,0,2.46-.58,10.39,10.39,0,0,0,2.09-1.53l3.3,3.33a12.76,12.76,0,0,1-3.3,2.61,10,10,0,0,1-4.81,1"/><path d="M162.11,118.37a4.61,4.61,0,0,0,3.34-1.13,3.69,3.69,0,0,0,1.18-2.79v-.08a3.51,3.51,0,0,0-1.24-2.92,5.21,5.21,0,0,0-3.39-1h-4.41v7.92ZM151.89,105.3h10.59a12.25,12.25,0,0,1,4.17.65,8.72,8.72,0,0,1,3.11,1.83,8,8,0,0,1,2,2.83,9.57,9.57,0,0,1,.68,3.65v.08a9.12,9.12,0,0,1-.81,4,8.08,8.08,0,0,1-2.24,2.85,9.82,9.82,0,0,1-3.34,1.73,14.19,14.19,0,0,1-4.09.57h-4.34v7.78h-5.7Z"/><path d="M189.08,119.75a5.45,5.45,0,0,0-1.33-3.06,3.69,3.69,0,0,0-2.85-1.17,3.8,3.8,0,0,0-2.87,1.15,5.75,5.75,0,0,0-1.43,3.08Zm-3.63,11.92a11.18,11.18,0,0,1-4.13-.74,9.35,9.35,0,0,1-3.29-2.11,9.66,9.66,0,0,1-2.17-3.24,10.72,10.72,0,0,1-.78-4.17v-.07a11.13,11.13,0,0,1,.72-4,10.25,10.25,0,0,1,2-3.3,9.48,9.48,0,0,1,7.08-3,9.77,9.77,0,0,1,4.3.89,8.75,8.75,0,0,1,3,2.39,9.76,9.76,0,0,1,1.78,3.45,14,14,0,0,1,.58,4c0,.23,0,.46,0,.71s0,.5-.06.78H180.67a4.78,4.78,0,0,0,1.69,2.9,5,5,0,0,0,3.17,1,6.36,6.36,0,0,0,2.52-.48,8.65,8.65,0,0,0,2.29-1.55l3.23,2.85a10,10,0,0,1-3.41,2.72,10.51,10.51,0,0,1-4.71,1"/><path d="M198.75,111.37h5.63v4a8.26,8.26,0,0,1,2.34-3.25,5.66,5.66,0,0,1,4-1.12v5.89h-.3A5.8,5.8,0,0,0,206,118.6c-1.07,1.13-1.61,2.9-1.61,5.29v7.34h-5.63Z"/><path d="M215.9,116.19h-2.33v-4.63h2.33V110.3a6.54,6.54,0,0,1,1.6-4.82,6.18,6.18,0,0,1,4.55-1.55,14.81,14.81,0,0,1,2.28.15,9.89,9.89,0,0,1,1.72.4v4.67a10.3,10.3,0,0,0-1.22-.35,6,6,0,0,0-1.33-.13c-1.36,0-2,.71-2,2.15v.77H226v4.6h-4.49v15H215.9Z"/><path d="M238.28,126.82a5.16,5.16,0,0,0,2.17-.43,4.81,4.81,0,0,0,1.61-1.16,5.41,5.41,0,0,0,1-1.72,6.34,6.34,0,0,0,.35-2.1v-.07a6,6,0,0,0-.37-2.09,5.27,5.27,0,0,0-2.74-3,5,5,0,0,0-2.11-.44,5.28,5.28,0,0,0-2.17.42,4.88,4.88,0,0,0-1.61,1.17,5,5,0,0,0-1,1.72,6,6,0,0,0-.35,2.09v.08a5.78,5.78,0,0,0,.37,2.09,5,5,0,0,0,1.07,1.74,5.34,5.34,0,0,0,1.65,1.21,5,5,0,0,0,2.13.44m-.07,4.85a11.26,11.26,0,0,1-4.27-.79,10.32,10.32,0,0,1-3.39-2.19,10.19,10.19,0,0,1-2.24-3.26,10,10,0,0,1-.81-4v-.07a10,10,0,0,1,.81-4,10.4,10.4,0,0,1,2.26-3.28,10.69,10.69,0,0,1,3.41-2.22,11.71,11.71,0,0,1,8.56,0,10.32,10.32,0,0,1,3.39,2.19,10,10,0,0,1,3,7.27v.08a10,10,0,0,1-.81,4,10.23,10.23,0,0,1-2.26,3.28,10.75,10.75,0,0,1-3.41,2.22,11.15,11.15,0,0,1-4.29.81"/><path d="M253.06,111.37h5.63v4a8.34,8.34,0,0,1,2.33-3.25,5.71,5.71,0,0,1,4-1.12v5.89h-.3a5.8,5.8,0,0,0-4.43,1.71c-1.07,1.13-1.61,2.9-1.61,5.29v7.34h-5.63Z"/><path d="M268.54,111.37h5.64v2.84a10.83,10.83,0,0,1,1.05-1.21,7.13,7.13,0,0,1,1.28-1,6.05,6.05,0,0,1,1.57-.7A6.57,6.57,0,0,1,280,111a6.75,6.75,0,0,1,3.39.82,5.56,5.56,0,0,1,2.2,2.35,9.27,9.27,0,0,1,2.89-2.37,8,8,0,0,1,3.63-.8,6.51,6.51,0,0,1,4.93,1.86,7.54,7.54,0,0,1,1.78,5.44v12.93h-5.63v-11a4.58,4.58,0,0,0-.86-3,3,3,0,0,0-2.44-1,3.17,3.17,0,0,0-2.5,1,4.37,4.37,0,0,0-.91,3v11h-5.63v-11a4.58,4.58,0,0,0-.85-3,3,3,0,0,0-2.45-1,3.18,3.18,0,0,0-2.5,1,4.42,4.42,0,0,0-.9,3v11h-5.64Z"/><path d="M311.07,127.71a5,5,0,0,0,3.21-1,3.07,3.07,0,0,0,1.2-2.52v-1a8.87,8.87,0,0,0-1.65-.54,9.17,9.17,0,0,0-1.94-.2,5,5,0,0,0-2.86.7,2.31,2.31,0,0,0-1,2v.07a2.07,2.07,0,0,0,.85,1.78,3.65,3.65,0,0,0,2.22.63m-1.7,3.89a8.8,8.8,0,0,1-2.65-.39,6.23,6.23,0,0,1-2.17-1.17,5.5,5.5,0,0,1-1.46-1.9,6,6,0,0,1-.54-2.62v-.07a6.26,6.26,0,0,1,.59-2.81,5.53,5.53,0,0,1,1.65-2,7.51,7.51,0,0,1,2.52-1.17,12.62,12.62,0,0,1,3.24-.39,13.61,13.61,0,0,1,2.65.23,16.73,16.73,0,0,1,2.21.59v-.33a3.38,3.38,0,0,0-1.08-2.71,4.81,4.81,0,0,0-3.18-.92,13.53,13.53,0,0,0-2.87.27,21.34,21.34,0,0,0-2.62.8l-1.4-4.3a21.21,21.21,0,0,1,3.4-1.14,17.79,17.79,0,0,1,4.3-.45,11.94,11.94,0,0,1,4,.58,7.14,7.14,0,0,1,2.73,1.64,6.71,6.71,0,0,1,1.63,2.73,11.93,11.93,0,0,1,.51,3.61v11.52h-5.44v-2.15a7.83,7.83,0,0,1-2.48,1.84,8.31,8.31,0,0,1-3.52.68"/><path d="M325.67,111.37h5.63v2.84a12,12,0,0,1,1.05-1.21,7.5,7.5,0,0,1,1.28-1,6.14,6.14,0,0,1,1.56-.7,7.21,7.21,0,0,1,6.91,1.7,7.82,7.82,0,0,1,1.76,5.4v12.86h-5.63v-11a4.47,4.47,0,0,0-.89-3,3.18,3.18,0,0,0-2.52-1,3.34,3.34,0,0,0-2.58,1,4.28,4.28,0,0,0-.94,3v11h-5.63Z"/><path d="M358.12,131.67a10.46,10.46,0,0,1-4.13-.81,10.19,10.19,0,0,1-6.21-9.45v-.07a10.48,10.48,0,0,1,2.93-7.3,9.91,9.91,0,0,1,3.28-2.22,10.63,10.63,0,0,1,4.2-.82,10.8,10.8,0,0,1,4.67.89,10.48,10.48,0,0,1,3.26,2.45l-3.44,3.7a9.13,9.13,0,0,0-2-1.59,4.91,4.91,0,0,0-2.53-.59,4.43,4.43,0,0,0-2,.42,5,5,0,0,0-1.52,1.17,5.44,5.44,0,0,0-1,1.72,6.28,6.28,0,0,0-.35,2.09v.08a6.59,6.59,0,0,0,.35,2.15,5.4,5.4,0,0,0,1,1.74,4.94,4.94,0,0,0,1.59,1.16,4.84,4.84,0,0,0,2.08.43,5.08,5.08,0,0,0,2.46-.57,10.46,10.46,0,0,0,2.09-1.54l3.3,3.33a12.2,12.2,0,0,1-3.3,2.61,9.81,9.81,0,0,1-4.81,1"/><path d="M382.94,119.75a5.46,5.46,0,0,0-1.34-3.06,3.67,3.67,0,0,0-2.85-1.17,3.81,3.81,0,0,0-2.87,1.15,5.74,5.74,0,0,0-1.42,3.08Zm-3.63,11.92a11.18,11.18,0,0,1-4.13-.74,9.39,9.39,0,0,1-3.3-2.11,9.66,9.66,0,0,1-2.17-3.24,10.91,10.91,0,0,1-.77-4.17v-.07a11.13,11.13,0,0,1,.72-4,10.08,10.08,0,0,1,2-3.3,9.32,9.32,0,0,1,3.09-2.22,9.6,9.6,0,0,1,4-.82,9.71,9.71,0,0,1,4.3.89,8.69,8.69,0,0,1,3,2.39,10.1,10.1,0,0,1,1.78,3.45,14.31,14.31,0,0,1,.57,4c0,.23,0,.46,0,.71s0,.5,0,.78H374.53a4.72,4.72,0,0,0,1.68,2.9,5,5,0,0,0,3.17,1,6.29,6.29,0,0,0,2.52-.48,8.69,8.69,0,0,0,2.3-1.55l3.22,2.85a9.91,9.91,0,0,1-3.41,2.72,10.47,10.47,0,0,1-4.7,1"/><path d="M91.07,80.59A10.27,10.27,0,1,1,80.8,70.32,10.26,10.26,0,0,1,91.07,80.59"/></svg>