<svg id="Layer_1" data-name="Layer 1" xmlns="http://www.w3.org/2000/svg" viewBox="0 0 204 42">
  <g>
    <path d="M8.58,28.08c0-1.32,0-1.56,0-1.84s-.08-.42-.36-.48a1.37,1.37,0,0,0-.29,0s-.07,0-.07,0,0-.07.14-.07h.61l.35,0h2a2,2,0,0,0,.36,0c.05,0,.08,0,.12,0s0,0,0,.07,0,.16-.07.41c0,.08,0,.45,0,.56s0,.09-.06.09-.07,0-.07-.11a1,1,0,0,0-.05-.31c-.06-.13-.15-.23-.61-.29-.14,0-1.07,0-1.16,0s-.06,0-.06.08v2.35q0,.09.06.09c.11,0,1.15,0,1.35,0s.32,0,.4-.12.1-.11.13-.11,0,0,0,.07,0,.19-.07.47,0,.49,0,.55,0,.16-.06.16-.06,0-.06-.08a1,1,0,0,0,0-.28c0-.12-.12-.26-.45-.29s-1.07-.05-1.22-.05a.06.06,0,0,0-.06.06V31c0,.58.16.7,1,.7a2.31,2.31,0,0,0,.82-.1c.22-.09.32-.26.38-.61,0-.09,0-.13.08-.13s0,.07,0,.13-.07.64-.11.83-.13.22-.46.22c-.64,0-1.11,0-1.44,0l-.66,0H8.6l-.5,0C8,32.05,8,32,8,32s0-.05.07-.05l.25,0c.17,0,.22-.23.25-.47s0-1,0-1.85Z" fill="#231f20"/>
    <path d="M15.6,29.74s0,0,0,0l-.74-2c-.05-.11-.09-.11-.13,0l-.7,2s0,0,0,0Zm-.83-3c.09-.24.13-.28.18-.28s.1.1.18.26c.13.31,1.33,3.3,1.79,4.4.28.64.48.74.64.79a1.18,1.18,0,0,0,.3,0S18,32,18,32s-.08.06-.17.06-.66,0-1.18,0c-.14,0-.26,0-.26-.05s0,0,.05-.05a.13.13,0,0,0,.07-.19l-.68-1.67s0,0-.07,0H14s-.06,0-.08.06l-.43,1.16a1.76,1.76,0,0,0-.11.49c0,.14.13.19.26.19h.07c.06,0,.07,0,.07.06s0,.06-.11.06L13,32c-.08,0-.45,0-.76,0-.09,0-.14,0-.14-.06a.07.07,0,0,1,.07-.06l.22,0c.34,0,.48-.29.63-.66Z" fill="#231f20"/>
    <path d="M19.44,29.28a.12.12,0,0,0,0,.1,2.57,2.57,0,0,0,.83.11,1,1,0,0,0,.56-.13,1.3,1.3,0,0,0,.45-1.1A1.25,1.25,0,0,0,20,26.83a2.79,2.79,0,0,0-.54.05.09.09,0,0,0-.06.08Zm-.64-.61c0-1.12,0-1.33,0-1.56s-.06-.36-.31-.4h-.25a.07.07,0,0,1-.06-.06c0-.05,0-.06.12-.06H20.1a2.46,2.46,0,0,1,1.39.31,1.28,1.28,0,0,1,.52,1,2.11,2.11,0,0,1-.92,1.65c.62.77,1.14,1.42,1.57,1.87a1.32,1.32,0,0,0,.83.5,1.21,1.21,0,0,0,.27,0,.06.06,0,0,1,.06.06s0,.06-.17.06h-.47a1.42,1.42,0,0,1-.8-.15,3.44,3.44,0,0,1-1-1.06c-.32-.39-.65-.86-.81-1.05,0,0-.05-.05-.1-.05h-1s0,0,0,.06V30a15.35,15.35,0,0,0,0,1.55c0,.22.06.35.29.39l.33,0c.06,0,.07,0,.07.06s0,.06-.12.06c-.41,0-.89,0-.92,0l-.74,0q-.12,0-.12-.06a.06.06,0,0,1,.06-.06l.23,0c.14,0,.16-.17.19-.39A12.38,12.38,0,0,0,18.8,30Z" fill="#231f20"/>
    <path d="M25.63,30c0,.7,0,1.27,0,1.56s.06.35.29.39l.34,0a.06.06,0,0,1,.06.06s0,.06-.12.06c-.41,0-.88,0-.92,0l-.78,0q-.12,0-.12-.06a.06.06,0,0,1,.06,0,.85.85,0,0,0,.22,0c.16,0,.2-.17.22-.39A15.46,15.46,0,0,0,25,30v-3l-1.08,0c-.47,0-.65.05-.76.23a1,1,0,0,0-.12.23c0,.06,0,.06-.08.06a.06.06,0,0,1-.05-.06c0-.07.16-.72.16-.78s.05-.13.08-.13a2.15,2.15,0,0,0,.33.08,4.85,4.85,0,0,0,.59,0h2.83a3.42,3.42,0,0,0,.53,0l.21,0s0,0,0,.08c0,.22,0,.74,0,.83s0,.09-.06.09-.06,0-.06-.13v-.07c0-.22-.19-.39-.91-.4l-.93,0Z" fill="#231f20"/>
    <path d="M33.31,30a15.46,15.46,0,0,0,0,1.56c0,.22,0,.35.27.39l.33,0A.07.07,0,0,1,34,32s0,.06-.13.06c-.41,0-.88,0-.92,0l-.74,0c-.09,0-.13,0-.13-.06a.06.06,0,0,1,.06-.06l.23,0c.15,0,.18-.18.2-.4s0-.84,0-1.54v-.72s0,0,0,0H29.46s0,0,0,0V30c0,.7,0,1.26,0,1.55s.05.35.27.39l.34,0a.08.08,0,0,1,.07.06s0,.06-.13.06c-.41,0-.89,0-.92,0l-.76,0c-.07,0-.11,0-.11-.06a.06.06,0,0,1,.06-.06l.23,0c.14,0,.16-.17.19-.39a12.38,12.38,0,0,0,0-1.56V28.67c0-1.12,0-1.33,0-1.56s-.06-.36-.31-.4h-.25a.07.07,0,0,1-.06-.06c0-.05,0-.06.12-.06h1.59c.09,0,.12,0,.12.06a.07.07,0,0,1-.06.06h-.18c-.21.05-.25.15-.26.4s0,.45,0,1.58v.15s0,0,0,0h3.12s0,0,0,0v-.15c0-1.13,0-1.35,0-1.58s0-.36-.3-.4h-.26a.07.07,0,0,1-.06-.06c0-.05,0-.06.12-.06h1.6c.08,0,.12,0,.12.06a.07.07,0,0,1-.06.06h-.19c-.2.05-.24.15-.26.4s0,.44,0,1.56Z" fill="#231f20"/>
    <path d="M39.71,29.58a17.67,17.67,0,0,0,0,1.85c0,.24.07.43.33.47l.38,0c.05,0,.07,0,.07.05s0,.07-.14.07c-.46,0-1,0-1,0l-.84,0c-.09,0-.13,0-.13-.07s0-.05.06-.05l.26,0c.17,0,.21-.23.24-.47a17.67,17.67,0,0,0,0-1.85v-1.5c0-1.32,0-1.56,0-1.84s-.1-.43-.29-.47a.86.86,0,0,0-.26,0s-.07,0-.07-.06,0-.06.14-.06l.86,0,.83,0c.09,0,.14,0,.14.06a.07.07,0,0,1-.07.06.9.9,0,0,0-.21,0c-.24,0-.3.19-.32.48s0,.52,0,1.84Z" fill="#231f20"/>
    <path d="M42.16,31.06c0,.6.08.78.29.83a2,2,0,0,0,.37,0,.06.06,0,0,1,.06.06s-.05.06-.14.06c-.42,0-.72,0-.79,0s-.38,0-.72,0c-.08,0-.12,0-.12-.06a.06.06,0,0,1,.06-.06,1.45,1.45,0,0,0,.31,0c.18-.05.21-.25.21-.9V26.84c0-.29,0-.36.1-.36s.21.14.29.22,1.21,1.27,2.37,2.46c.74.77,1.54,1.63,1.77,1.87l-.08-3.63c0-.47,0-.63-.28-.67a1.91,1.91,0,0,0-.37,0c-.05,0-.06,0-.06-.07s.06-.05.15-.05H47c.07,0,.13,0,.13.05a.08.08,0,0,1-.08.07h-.18c-.25.05-.26.2-.26.63l0,4.24c0,.48,0,.52-.06.52s-.15-.06-.57-.44c-.08-.07-1.16-1.13-2-2s-1.71-1.79-1.94-2.05Z" fill="#231f20"/>
    <path d="M47.88,32c-.11-.05-.12-.08-.12-.28a7.32,7.32,0,0,1,.05-.76c0-.08,0-.12.06-.12s.06,0,.06.09a.9.9,0,0,0,0,.26,1.1,1.1,0,0,0,1.18.72c.74,0,1.13-.42,1.13-1s-.28-.76-1-1.26L49,29.38c-.81-.61-1.07-1.05-1.07-1.55,0-.85.67-1.36,1.66-1.36a3.79,3.79,0,0,1,.77.08.88.88,0,0,0,.27,0c.06,0,.08,0,.08.05a6.36,6.36,0,0,0,0,.76c0,.11,0,.16-.06.16s-.06,0-.07-.09a1.65,1.65,0,0,0-.11-.36c0-.08-.3-.35-1-.35s-1,.27-1,.78.23.72,1,1.22l.21.15c.91.62,1.22,1.12,1.22,1.74a1.42,1.42,0,0,1-.69,1.24,2.38,2.38,0,0,1-1.2.25A2.79,2.79,0,0,1,47.88,32" fill="#231f20"/>
    <path d="M54.21,30c0,.7,0,1.27,0,1.56s.06.35.29.39l.34,0a.06.06,0,0,1,.06.06s0,.06-.12.06c-.41,0-.88,0-.93,0l-.77,0C53,32.05,53,32,53,32a.06.06,0,0,1,.06,0,.85.85,0,0,0,.22,0c.16,0,.19-.17.22-.39a15.46,15.46,0,0,0,0-1.56v-3l-1.08,0c-.47,0-.65.05-.76.23a1,1,0,0,0-.12.23c0,.06,0,.06-.08.06a.06.06,0,0,1-.05-.06c0-.07.16-.72.16-.78s0-.13.08-.13a2.15,2.15,0,0,0,.33.08,4.76,4.76,0,0,0,.59,0h2.83a3.42,3.42,0,0,0,.53,0l.21,0s0,0,0,.08c0,.22,0,.74,0,.83s0,.09-.07.09,0,0-.06-.13v-.07c0-.22-.19-.39-.91-.4l-.93,0Z" fill="#231f20"/>
    <path d="M58.13,30c0,.7,0,1.27,0,1.56s.06.35.28.39l.34,0a.06.06,0,0,1,.06.06s0,.06-.12.06c-.42,0-.9,0-.94,0l-.74,0q-.12,0-.12-.06a.06.06,0,0,1,.06-.06l.23,0c.14,0,.17-.17.2-.39s0-.86,0-1.56V28.67c0-1.12,0-1.33,0-1.56s-.08-.35-.24-.39a1,1,0,0,0-.23,0,.07.07,0,0,1-.06-.06c0-.05,0-.06.12-.06h1.51c.09,0,.12,0,.12.06a.07.07,0,0,1-.06.06H58.4c-.2.05-.24.15-.26.4s0,.44,0,1.56Z" fill="#231f20"/>
    <path d="M62.18,30c0,.7,0,1.27,0,1.56s.07.35.29.39l.34,0c.06,0,.06,0,.06.06s0,.06-.12.06c-.4,0-.88,0-.92,0l-.78,0C61,32.05,61,32,61,32a0,0,0,0,1,.05,0,.78.78,0,0,0,.22,0c.16,0,.2-.17.23-.39s0-.86,0-1.56v-3l-1.08,0c-.47,0-.65.05-.76.23a1.77,1.77,0,0,0-.12.23c0,.06,0,.06-.07.06a.06.06,0,0,1-.06-.06c0-.07.16-.72.17-.78s.05-.13.07-.13a2.09,2.09,0,0,0,.34.08,4.7,4.7,0,0,0,.58,0H63.4a3.48,3.48,0,0,0,.54,0l.21,0s0,0,0,.08c0,.22,0,.74,0,.83a.08.08,0,0,1-.07.09s0,0-.06-.13v-.07c0-.22-.19-.39-.9-.4l-.94,0Z" fill="#231f20"/>
    <path d="M65.23,28.67c0-1.12,0-1.33,0-1.56s-.06-.36-.31-.4h-.25a.09.09,0,0,1-.06-.06c0-.05,0-.06.12-.06h1.62c.08,0,.12,0,.12.06a.07.07,0,0,1-.06.06H66.2c-.2,0-.24.17-.26.4s0,.44,0,1.56v1c0,1.05.23,1.49.55,1.77a1.49,1.49,0,0,0,1.12.4,1.52,1.52,0,0,0,1.15-.52,2.64,2.64,0,0,0,.43-1.75v-.91c0-1.12,0-1.33,0-1.56s0-.36-.3-.4h-.25a.06.06,0,0,1-.06-.06c0-.05,0-.06.12-.06H70.1c.09,0,.12,0,.12.06s0,.06,0,.06H70c-.21.05-.25.17-.27.4s0,.44,0,1.56v.77a2.82,2.82,0,0,1-.7,2.18,2.64,2.64,0,0,1-3.13,0,2.35,2.35,0,0,1-.65-1.89Z" fill="#231f20"/>
    <path d="M73.54,30a15.46,15.46,0,0,0,0,1.56c0,.22.06.35.29.39l.34,0a.06.06,0,0,1,.06.06s0,.06-.12.06c-.41,0-.89,0-.93,0l-.77,0c-.09,0-.12,0-.12-.06a0,0,0,0,1,0,0,.93.93,0,0,0,.23,0c.15,0,.19-.17.22-.39s0-.86,0-1.56v-3l-1.08,0c-.47,0-.65.05-.76.23a1.77,1.77,0,0,0-.12.23c0,.06,0,.06-.07.06s0,0,0-.06.15-.72.16-.78,0-.13.08-.13a1.85,1.85,0,0,0,.33.08,4.7,4.7,0,0,0,.58,0h2.83a3.48,3.48,0,0,0,.54,0l.21,0s0,0,0,.08c0,.22,0,.74,0,.83a.08.08,0,0,1-.07.09s0,0-.06-.13v-.07c0-.22-.19-.39-.9-.4l-.94,0Z" fill="#231f20"/>
    <path d="M76.59,28.67c0-1.12,0-1.33,0-1.56s-.06-.36-.31-.4H76a.07.07,0,0,1-.06-.06c0-.05,0-.06.12-.06h.87s1.61,0,1.79,0a2,2,0,0,0,.34,0,.29.29,0,0,1,.1,0s0,0,0,.07,0,.13-.06.34,0,.39,0,.47,0,.08-.07.08-.06,0-.06-.1a.85.85,0,0,0,0-.25c-.05-.12-.13-.17-.54-.22-.12,0-1,0-1.08,0s0,0,0,.08v2c0,.05,0,.07,0,.07h1.25c.18,0,.29,0,.37-.11s.09-.09.11-.09,0,0,0,.06,0,.16-.06.4,0,.42,0,.47,0,.13-.07.13,0,0,0-.06a.72.72,0,0,0,0-.24c0-.11-.1-.19-.39-.22s-1,0-1.13,0a0,0,0,0,0,0,.05V30c0,.25,0,1.09,0,1.23,0,.49.15.58.89.58a2.37,2.37,0,0,0,.75-.08.53.53,0,0,0,.34-.5c0-.08,0-.11.08-.11s0,.06,0,.11a6.47,6.47,0,0,1-.1.7c0,.19-.13.19-.42.19-.56,0-1,0-1.3,0l-.62,0h-.32l-.44,0q-.12,0-.12-.06a.06.06,0,0,1,.06-.06l.23,0c.15,0,.16-.17.2-.39a15.46,15.46,0,0,0,0-1.56Z" fill="#231f20"/>
    <path d="M89.44,31.19a3.08,3.08,0,0,1-1-2.36,3.17,3.17,0,0,1,.89-2.18,3.24,3.24,0,0,1,2.44-.86,7,7,0,0,1,1.15.1c.31.05.56.1.82.12.08,0,.1,0,.1.09s0,.15,0,.44,0,.7,0,.83,0,.16-.08.16-.06-.05-.06-.16a1.14,1.14,0,0,0-.33-.82,2.68,2.68,0,0,0-1.6-.45,2.46,2.46,0,0,0-1.84.58,2.67,2.67,0,0,0-.71,2.08,2.88,2.88,0,0,0,2.88,2.92,1.79,1.79,0,0,0,1.38-.4,1.41,1.41,0,0,0,.3-.67c0-.08,0-.12.08-.12s.06.06.06.12a8.67,8.67,0,0,1-.18,1c0,.15-.06.16-.21.23a4.53,4.53,0,0,1-1.43.18,3.68,3.68,0,0,1-2.64-.86" fill="#231f20"/>
    <path d="M97.69,31.75c.63,0,1.9-.34,1.9-2.3A2.19,2.19,0,0,0,97.49,27a2,2,0,0,0-2,2.21,2.29,2.29,0,0,0,2.22,2.57m-.16-5a2.54,2.54,0,0,1,2.78,2.55A2.73,2.73,0,0,1,97.49,32a2.61,2.61,0,0,1-2.75-2.67,2.69,2.69,0,0,1,2.79-2.65" fill="#231f20"/>
    <path d="M102.26,30c0,1,0,1.41.14,1.53s.38.16.93.16c.37,0,.68,0,.85-.21a.87.87,0,0,0,.17-.38s0-.09.07-.09,0,0,0,.1a3.88,3.88,0,0,1-.11.68c0,.16-.07.19-.44.19s-.9,0-1.23,0l-.76,0h-.29l-.41,0c-.07,0-.11,0-.11-.06a.06.06,0,0,1,.06-.05l.21,0c.14,0,.16-.16.19-.36a13.9,13.9,0,0,0,0-1.47v-1.2c0-1.05,0-1.25,0-1.46s0-.34-.29-.38h-.24a.06.06,0,0,1,0-.06s0-.05.11-.05h1.57c.08,0,.11,0,.11.05a.05.05,0,0,1,0,.05l-.23,0c-.21,0-.25.14-.26.38s0,.41,0,1.46Z" fill="#231f20"/>
    <path d="M105.17,28.77c0-1.05,0-1.24,0-1.46s-.05-.34-.29-.38h-.23a.06.06,0,0,1-.06-.06s0-.05.11-.05h1.52c.08,0,.12,0,.12.05a.06.06,0,0,1-.06.06h-.18c-.18,0-.22.16-.24.38s0,.41,0,1.46v.95a2,2,0,0,0,.52,1.66,1.39,1.39,0,0,0,1,.37,1.42,1.42,0,0,0,1.08-.48,2.49,2.49,0,0,0,.41-1.65v-.85c0-1.05,0-1.24,0-1.46s0-.34-.28-.38h-.24a.06.06,0,0,1-.06-.06s0-.05.12-.05h1.34c.09,0,.11,0,.11.05a.06.06,0,0,1,0,.06h-.18c-.19,0-.23.16-.24.38s0,.41,0,1.46v.73a2.6,2.6,0,0,1-.66,2,2.12,2.12,0,0,1-1.47.5,2.2,2.2,0,0,1-1.45-.48,2.17,2.17,0,0,1-.62-1.78Z" fill="#231f20"/>
    <path d="M116.43,31.06c0,.24.08.61.36.7a1.39,1.39,0,0,0,.46.07s0,0,0,.05-.06.06-.14.06-.94,0-1.2,0-.2,0-.2-.07a.06.06,0,0,1,0-.06s0-.11,0-.24l-.33-3.43h0l-1.69,3.46c-.14.3-.19.36-.25.36s-.1-.06-.24-.31-.64-1.2-.82-1.57-.77-1.57-.89-1.85h0l-.27,3.06c0,.11,0,.24,0,.34a.2.2,0,0,0,.17.2,1.31,1.31,0,0,0,.27,0,.06.06,0,0,1,.06.05s0,.06-.13.06c-.26,0-.6,0-.65,0l-.59,0c-.07,0-.12,0-.12-.06s0-.05.07-.05l.2,0c.24,0,.25-.28.28-.54l.51-4.43c0-.07,0-.12.08-.12a.15.15,0,0,1,.14.1L113.69,31l2-4.21c0-.06.06-.11.11-.11s.09.06.11.18Z" fill="#231f20"/>
    <path d="M119.16,29.66v1.45c0,.33,0,.41.24.51a1.63,1.63,0,0,0,.62.09.93.93,0,0,0,1-1,1.49,1.49,0,0,0-.67-1.24,1.45,1.45,0,0,0-.63-.17,4.87,4.87,0,0,0-.55,0s0,0,0,.05Zm0-.75c0,.05,0,.07,0,.08a3.07,3.07,0,0,0,.43,0c.39,0,.54,0,.68-.18a1,1,0,0,0,.28-.72,1,1,0,0,0-1-1.1l-.36,0c-.06,0-.08,0-.08.08Zm-.61-.14c0-1.05,0-1.24,0-1.46s0-.36-.28-.39l-.24,0s-.06,0-.06,0,0-.05.11-.05h1.64c1.17,0,1.48.67,1.48,1a1.63,1.63,0,0,1-.71,1.2,1.59,1.59,0,0,1,1.23,1.41A1.56,1.56,0,0,1,119.94,32l-.61,0-.45,0h-.29l-.42,0c-.08,0-.11,0-.11-.06s0,0,0,0l.21,0c.14,0,.16-.17.19-.37a13.9,13.9,0,0,0,0-1.47Z" fill="#231f20"/>
    <path d="M123.72,30c0,.65,0,1.19,0,1.47s0,.32.26.36l.32,0a0,0,0,0,1,0,.05s0,.06-.11.06c-.39,0-.84,0-.87,0l-.7,0c-.07,0-.11,0-.11-.06s0-.05.06-.05l.21,0c.14,0,.16-.16.18-.36a13.9,13.9,0,0,0,0-1.47v-1.2c0-1.05,0-1.24,0-1.46s-.07-.34-.22-.37l-.22,0a.06.06,0,0,1-.06-.06s0-.05.11-.05h1.42c.08,0,.11,0,.11.05a.06.06,0,0,1-.06.06H124c-.19,0-.23.14-.25.38s0,.41,0,1.46Z" fill="#231f20"/>
    <path d="M128.24,29.77s0,0,0-.05l-.69-1.86q-.06-.15-.12,0l-.65,1.86s0,.05,0,.05Zm-.78-2.83c.08-.22.12-.26.17-.26s.09.09.16.25,1.26,3.08,1.69,4.12c.25.6.45.69.59.74s-.46,0-.39,0,.09,0,.09.05-.08.06-.16.06l-.44,0c-.13,0-.24,0-.24-.05s0,0,0,0a.13.13,0,0,0,.06-.19l-.63-1.55s0,0-.07,0h-1.62s0,0-.07.05l-.4,1.09a1.48,1.48,0,0,0-.1.45c0,.14.12.19.24.19h.06c.06,0,.08,0,.08.05s0,.06-.11.06l-.63,0c-.07,0-.42,0-.71,0-.09,0-.14,0-.14-.06s0-.05.07-.05l.21,0c.32,0,.45-.28.59-.62Z" fill="#231f20"/>
    <path d="M134,28.22c0-1.25,0-1.47,0-1.72s-.07-.4-.34-.46l-.27,0s-.07,0-.07-.05,0-.07.13-.07c.36,0,.85,0,.92,0l.79,0c.09,0,.13,0,.13.07a.06.06,0,0,1-.06.05L135,26c-.21,0-.27.18-.29.46s0,.47,0,1.72v1.12a2.48,2.48,0,0,0,.6,2,1.55,1.55,0,0,0,1.21.44,1.65,1.65,0,0,0,1.25-.58,3.06,3.06,0,0,0,.47-2v-1c0-1.25,0-1.47,0-1.72s-.08-.4-.35-.46l-.26,0s-.07,0-.07-.05,0-.07.13-.07c.36,0,.8,0,.85,0s.42,0,.66,0c.09,0,.13,0,.13.07a.06.06,0,0,1-.06.05l-.2,0c-.22.05-.28.18-.3.46s0,.47,0,1.72v.85a3.11,3.11,0,0,1-.74,2.39,2.33,2.33,0,0,1-1.64.59,2.48,2.48,0,0,1-1.65-.56,2.67,2.67,0,0,1-.69-2.11Z" fill="#231f20"/>
    <path d="M140.63,31c0,.56.08.73.27.78a1.77,1.77,0,0,0,.35,0,0,0,0,0,1,.05.05s0,.06-.12.06c-.4,0-.68,0-.75,0s-.35,0-.67,0c-.08,0-.12,0-.12-.06a.06.06,0,0,1,.06-.05,1.23,1.23,0,0,0,.29,0c.17-.05.2-.23.2-.85V27.05c0-.27,0-.34.09-.34s.2.14.27.21,1.14,1.2,2.22,2.31c.7.72,1.45,1.53,1.66,1.75l-.07-3.4c0-.44,0-.59-.26-.63l-.35,0s-.05,0-.05-.07.05,0,.13,0h1.34c.07,0,.13,0,.13,0a.09.09,0,0,1-.08.07h-.17c-.23.05-.25.19-.25.6l0,4c0,.45,0,.49-.05.49s-.14-.06-.54-.42c-.07-.06-1.08-1.06-1.83-1.83s-1.6-1.69-1.81-1.93Z" fill="#231f20"/>
    <path d="M147.38,30c0,.65,0,1.19,0,1.47s.05.32.26.36l.31,0c.05,0,.06,0,.06.05s0,.06-.11.06c-.39,0-.84,0-.88,0l-.69,0c-.07,0-.11,0-.11-.06a0,0,0,0,1,.05-.05l.22,0c.13,0,.16-.16.18-.36s0-.82,0-1.47v-1.2c0-1.05,0-1.24,0-1.46s-.07-.34-.22-.37l-.21,0a.06.06,0,0,1-.06-.06s0-.05.11-.05h1.42c.07,0,.11,0,.11.05a.07.07,0,0,1-.06.06l-.18,0c-.19,0-.23.13-.24.37s0,.41,0,1.46Z" fill="#231f20"/>
    <path d="M151.47,31.05c.41-.91,1.32-3.22,1.47-3.71a.88.88,0,0,0,.07-.25.16.16,0,0,0-.1-.15,1,1,0,0,0-.24,0s-.08,0-.08-.06,0-.05.16-.05H154c.07,0,.11,0,.11,0s0,.07-.08.07a.62.62,0,0,0-.33.08c-.1.06-.21.16-.39.62-.09.19-.43,1-.79,1.84-.43,1-.74,1.72-.9,2.06s-.23.51-.3.51-.13-.09-.27-.42l-1.72-4.16c-.16-.38-.25-.45-.49-.51a1.59,1.59,0,0,0-.27,0s-.05,0-.05-.07.07,0,.18,0h1.47c.13,0,.2,0,.2,0a.07.07,0,0,1-.07.07,1,1,0,0,0-.26,0,.11.11,0,0,0-.08.12,3,3,0,0,0,.19.57Z" fill="#231f20"/>
    <path d="M155.08,28.77c0-1.05,0-1.24,0-1.46s-.06-.34-.29-.38h-.24a.06.06,0,0,1-.06-.06s0-.05.12-.05h2.48a1.58,1.58,0,0,0,.32,0l.1,0s0,0,0,.07,0,.12-.06.31,0,.37,0,.45,0,.07-.07.07-.05,0-.05-.09a.74.74,0,0,0,0-.23c-.05-.11-.12-.16-.51-.21-.12,0-.93,0-1,0s0,0,0,.07V29s0,.07,0,.07h1.17c.17,0,.28,0,.35-.1s.08-.09.1-.09,0,0,0,.06a2.85,2.85,0,0,0,0,.37c0,.14,0,.39,0,.44s0,.13-.06.13a.06.06,0,0,1-.05-.06.66.66,0,0,0,0-.23c0-.09-.09-.17-.36-.21s-.94,0-1.06,0a0,0,0,0,0-.05,0V30c0,.23,0,1,0,1.16,0,.45.15.54.84.54a2.38,2.38,0,0,0,.7-.07.52.52,0,0,0,.32-.47c0-.09,0-.11.07-.11s0,.06,0,.11a5.85,5.85,0,0,1-.1.65c0,.18-.11.18-.39.18-.52,0-.93,0-1.22,0l-.58,0a2.38,2.38,0,0,0-.3,0h-.41c-.07,0-.11,0-.11-.06a0,0,0,0,1,0-.05l.22,0c.13,0,.15-.16.18-.36a13.9,13.9,0,0,0,0-1.47Z" fill="#231f20"/>
    <path d="M159.85,29.35a.08.08,0,0,0,.05.08,2.2,2.2,0,0,0,.77.11.94.94,0,0,0,.53-.12,1.21,1.21,0,0,0,.42-1,1.17,1.17,0,0,0-1.21-1.33,4.36,4.36,0,0,0-.5,0,.1.1,0,0,0-.06.09Zm-.61-.58c0-1.05,0-1.24,0-1.46s-.05-.34-.28-.38h-.24a.06.06,0,0,1-.06-.06s0-.05.12-.05h1.7a2.33,2.33,0,0,1,1.31.29,1.18,1.18,0,0,1,.49.93,2,2,0,0,1-.86,1.55c.57.71,1.06,1.33,1.47,1.75a1.25,1.25,0,0,0,.78.47,1,1,0,0,0,.25,0,.06.06,0,0,1,.06.05c0,.05,0,.06-.17.06h-.44a1.37,1.37,0,0,1-.75-.14,3.61,3.61,0,0,1-1-1c-.29-.37-.6-.81-.75-1a.1.1,0,0,0-.1,0l-.89,0s-.05,0-.05.06V30c0,.65,0,1.18,0,1.46s.06.32.28.36l.31,0c.05,0,.06,0,.06.05s0,.06-.12.06c-.38,0-.83,0-.86,0l-.69,0c-.07,0-.11,0-.11-.06a0,0,0,0,1,.05-.05l.22,0c.13,0,.15-.16.18-.36a13.9,13.9,0,0,0,0-1.47Z" fill="#231f20"/>
    <path d="M164.17,31.84c-.1,0-.11-.07-.11-.25a7.19,7.19,0,0,1,0-.72c0-.07,0-.11.06-.11s.06,0,.06.08a.78.78,0,0,0,0,.24,1,1,0,0,0,1.11.68.92.92,0,0,0,1-.91c0-.48-.26-.71-.89-1.18l-.32-.24c-.75-.56-1-1-1-1.45,0-.8.63-1.28,1.56-1.28a3.42,3.42,0,0,1,.72.08,1,1,0,0,0,.25,0c.05,0,.07,0,.07.05s0,.26,0,.72c0,.1,0,.15-.06.15s-.05,0-.06-.08a1.33,1.33,0,0,0-.1-.34c-.05-.08-.28-.34-.92-.34s-.93.26-.93.74.22.68.91,1.15l.2.13c.86.59,1.15,1.06,1.15,1.64a1.32,1.32,0,0,1-.66,1.16,2.14,2.14,0,0,1-1.11.24,2.47,2.47,0,0,1-1-.19" fill="#231f20"/>
    <path d="M169.06,30c0,.65,0,1.19,0,1.47s0,.32.26.36l.32,0a0,0,0,0,1,.05.05s0,.06-.11.06c-.39,0-.85,0-.88,0l-.69,0q-.12,0-.12-.06a.06.06,0,0,1,.06-.05l.22,0c.14,0,.16-.16.18-.36s0-.82,0-1.47v-1.2c0-1.05,0-1.24,0-1.46s-.06-.34-.22-.37l-.22,0a.06.06,0,0,1-.05-.06s0-.05.11-.05h1.41c.09,0,.11,0,.11.05a.06.06,0,0,1,0,.06.65.65,0,0,0-.18,0c-.19,0-.23.13-.24.37s0,.41,0,1.46Z" fill="#231f20"/>
    <path d="M172.9,30c0,.65,0,1.19,0,1.47s.06.32.27.36l.32,0s.06,0,.06.05,0,.06-.11.06c-.39,0-.83,0-.87,0l-.73,0c-.08,0-.11,0-.11-.06s0,0,.06,0a.71.71,0,0,0,.2,0c.15,0,.19-.16.21-.36s0-.82,0-1.47V27.12h-1c-.44,0-.61.06-.71.22a1.06,1.06,0,0,0-.11.21c0,.06,0,.07-.08.07a.06.06,0,0,1,0-.06c0-.07.14-.68.15-.73s0-.13.07-.13a2,2,0,0,0,.31.08l.55,0H174a3,3,0,0,0,.5,0l.2,0s0,0,0,.08c0,.2,0,.69,0,.77s0,.09-.06.09-.05,0-.06-.12v-.07c0-.21-.17-.36-.84-.38h-.88Z" fill="#231f20"/>
    <path d="M177.33,30.18a1.25,1.25,0,0,0-.15-.7c-.06-.1-1-1.61-1.25-2a1.63,1.63,0,0,0-.46-.5.71.71,0,0,0-.3-.09.08.08,0,0,1-.07-.07s0,0,.09,0h1.3c.08,0,.1,0,.1,0s-.05,0-.11.08-.09.05-.09.11a.62.62,0,0,0,.09.26l1.28,2.12c.15-.29,1-1.74,1.15-2a.69.69,0,0,0,.12-.35c0-.09,0-.15-.11-.17s-.1-.05-.1-.08,0,0,.11,0h1.17c.05,0,.09,0,.09,0a.08.08,0,0,1-.09.07.68.68,0,0,0-.33.09,1.46,1.46,0,0,0-.35.33,25,25,0,0,0-1.36,2.16,1.35,1.35,0,0,0-.09.68v.58c0,.11,0,.4,0,.68s.07.32.28.36l.32,0a0,0,0,0,1,0,.05s0,.06-.11.06c-.39,0-.85,0-.89,0l-.68,0c-.08,0-.12,0-.12-.06a.06.06,0,0,1,.06-.05l.21,0c.14,0,.19-.16.21-.36s0-.57,0-.68Z" fill="#231f20"/>
    <line x1="84.18" y1="25.32" x2="84.18" y2="32.46" fill="#231f20" stroke="#fff" stroke-miterlimit="10" stroke-width="0.55"/>
    <path d="M8.88,11.32a6.21,6.21,0,0,1,3.89-1.22,11.45,11.45,0,0,1,2.54.34.91.91,0,0,0,.41.06c0,.33.08,1.24.2,2.12a.3.3,0,0,1-.39,0c-.22-1-.87-2.1-2.95-2.1s-4.07,1.4-4.07,4.38,1.91,4.69,4.27,4.69a3.07,3.07,0,0,0,3-2.06.3.3,0,0,1,.37.06,5.35,5.35,0,0,1-.69,2,2.63,2.63,0,0,0-.5.14,8.38,8.38,0,0,1-2.28.33,6.34,6.34,0,0,1-3.58-1,4.64,4.64,0,0,1-2-4,4.79,4.79,0,0,1,1.81-3.81" fill="#231f20"/>
    <path d="M8.88,11.32a6.21,6.21,0,0,1,3.89-1.22,11.45,11.45,0,0,1,2.54.34.91.91,0,0,0,.41.06c0,.33.08,1.24.2,2.12a.3.3,0,0,1-.39,0c-.22-1-.87-2.1-2.95-2.1s-4.07,1.4-4.07,4.38,1.91,4.69,4.27,4.69a3.07,3.07,0,0,0,3-2.06.3.3,0,0,1,.37.06,5.35,5.35,0,0,1-.69,2,2.63,2.63,0,0,0-.5.14,8.38,8.38,0,0,1-2.28.33,6.34,6.34,0,0,1-3.58-1,4.64,4.64,0,0,1-2-4A4.79,4.79,0,0,1,8.88,11.32Z" fill="#231f20" stroke="#fff" stroke-width="0.03"/>
    <path d="M18.05,16.14c-.38,0-.39,0-.39.39a2.44,2.44,0,0,0,2.39,2.69,1.54,1.54,0,0,0,1.32-.71.2.2,0,0,1,.26.18A2.53,2.53,0,0,1,19.37,20a2.61,2.61,0,0,1-2.09-.94,3.08,3.08,0,0,1-.6-1.87A3,3,0,0,1,19.57,14a1.88,1.88,0,0,1,2,1.72.9.9,0,0,1-.05.37c0,.09-.25.1-.85.1Zm.89-.43c1.06,0,1.38-.06,1.5-.15s.08-.08.08-.27c0-.4-.27-.91-1.11-.91a1.67,1.67,0,0,0-1.59,1.26s0,.07.1.07Z" fill="#231f20"/>
    <path d="M18.05,16.14c-.38,0-.39,0-.39.39a2.44,2.44,0,0,0,2.39,2.69,1.54,1.54,0,0,0,1.32-.71.2.2,0,0,1,.26.18A2.53,2.53,0,0,1,19.37,20a2.61,2.61,0,0,1-2.09-.94,3.08,3.08,0,0,1-.6-1.87A3,3,0,0,1,19.57,14a1.88,1.88,0,0,1,2,1.72.9.9,0,0,1-.05.37c0,.09-.25.1-.85.1Zm.89-.43c1.06,0,1.38-.06,1.5-.15s.08-.08.08-.27c0-.4-.27-.91-1.11-.91a1.67,1.67,0,0,0-1.59,1.26s0,.07.1.07Z" fill="#231f20" stroke="#fff" stroke-width="0.03"/>
    <path d="M23,15.69c0-.56,0-.63-.39-.89l-.13-.08c-.06-.06-.06-.22,0-.26A8,8,0,0,0,24,13.75a.16.16,0,0,1,.15.1c0,.33,0,.55,0,.68a.14.14,0,0,0,.15.16,3.92,3.92,0,0,1,2-.74,1.6,1.6,0,0,1,1.68,1.79v2.47c0,1,0,1.18.55,1.25l.31.05a.25.25,0,0,1,0,.36c-.43,0-.84-.05-1.35-.05s-.95,0-1.34.05a.25.25,0,0,1,0-.36l.27-.05c.53-.08.55-.21.55-1.25V16.07a1.26,1.26,0,0,0-1.36-1.43,1.55,1.55,0,0,0-1.22.51,1.18,1.18,0,0,0-.21.86v2.2c0,1,0,1.17.54,1.25l.26.05a.25.25,0,0,1,0,.36c-.39,0-.8-.05-1.31-.05s-.95,0-1.35.05a.25.25,0,0,1,0-.36l.3-.05c.54-.07.55-.21.55-1.25Z" fill="#231f20"/>
    <path d="M23,15.69c0-.56,0-.63-.39-.89l-.13-.08c-.06-.06-.06-.22,0-.26A8,8,0,0,0,24,13.75a.16.16,0,0,1,.15.1c0,.33,0,.55,0,.68a.14.14,0,0,0,.15.16,3.92,3.92,0,0,1,2-.74,1.6,1.6,0,0,1,1.68,1.79v2.47c0,1,0,1.18.55,1.25l.31.05a.25.25,0,0,1,0,.36c-.43,0-.84-.05-1.35-.05s-.95,0-1.34.05a.25.25,0,0,1,0-.36l.27-.05c.53-.08.55-.21.55-1.25V16.07a1.26,1.26,0,0,0-1.36-1.43,1.55,1.55,0,0,0-1.22.51,1.18,1.18,0,0,0-.21.86v2.2c0,1,0,1.17.54,1.25l.26.05a.25.25,0,0,1,0,.36c-.39,0-.8-.05-1.31-.05s-.95,0-1.35.05a.25.25,0,0,1,0-.36l.3-.05c.54-.07.55-.21.55-1.25Z" fill="#231f20" stroke="#fff" stroke-width="0.03"/>
    <path d="M31.47,14.76c-.24,0-.26,0-.26.34v2.7c0,.83.1,1.59,1,1.59a1.13,1.13,0,0,0,.39-.07c.13,0,.32-.2.36-.2s.17.16.14.24a2,2,0,0,1-1.51.66c-1.23,0-1.49-.69-1.49-1.55V15.18c0-.39,0-.42-.3-.42h-.41a.24.24,0,0,1,0-.3,2.77,2.77,0,0,0,.92-.45,3.29,3.29,0,0,0,.6-.85c.08,0,.25,0,.31.07v.65c0,.26,0,.27.25.27h1.6a.47.47,0,0,1,0,.61Z" fill="#231f20"/>
    <path d="M31.47,14.76c-.24,0-.26,0-.26.34v2.7c0,.83.1,1.59,1,1.59a1.13,1.13,0,0,0,.39-.07c.13,0,.32-.2.36-.2s.17.16.14.24a2,2,0,0,1-1.51.66c-1.23,0-1.49-.69-1.49-1.55V15.18c0-.39,0-.42-.3-.42h-.41a.24.24,0,0,1,0-.3,2.77,2.77,0,0,0,.92-.45,3.29,3.29,0,0,0,.6-.85c.08,0,.25,0,.31.07v.65c0,.26,0,.27.25.27h1.6a.47.47,0,0,1,0,.61Z" fill="#231f20" stroke="#fff" stroke-width="0.03"/>
    <path d="M34.89,16.14c-.37,0-.38,0-.38.39a2.44,2.44,0,0,0,2.39,2.69,1.54,1.54,0,0,0,1.32-.71.2.2,0,0,1,.26.18A2.53,2.53,0,0,1,36.22,20a2.6,2.6,0,0,1-2.09-.94,3.08,3.08,0,0,1-.6-1.87A3,3,0,0,1,36.42,14a1.88,1.88,0,0,1,2,1.72.85.85,0,0,1-.06.37c0,.09-.24.1-.84.1Zm.9-.43c1.06,0,1.38-.06,1.49-.15s.09-.08.09-.27c0-.4-.27-.91-1.11-.91a1.7,1.7,0,0,0-1.6,1.26s0,.07.11.07Z" fill="#231f20"/>
    <path d="M34.89,16.14c-.37,0-.38,0-.38.39a2.44,2.44,0,0,0,2.39,2.69,1.54,1.54,0,0,0,1.32-.71.2.2,0,0,1,.26.18A2.53,2.53,0,0,1,36.22,20a2.6,2.6,0,0,1-2.09-.94,3.08,3.08,0,0,1-.6-1.87A3,3,0,0,1,36.42,14a1.88,1.88,0,0,1,2,1.72.85.85,0,0,1-.06.37c0,.09-.24.1-.84.1Zm.9-.43c1.06,0,1.38-.06,1.49-.15s.09-.08.09-.27c0-.4-.27-.91-1.11-.91a1.7,1.7,0,0,0-1.6,1.26s0,.07.11.07Z" fill="#231f20" stroke="#fff" stroke-width="0.03"/>
    <path d="M39.84,15.69c0-.56,0-.63-.38-.89l-.13-.08c-.06-.06-.06-.22,0-.26a11.34,11.34,0,0,0,1.45-.71c.08,0,.12.05.12.1v.84c0,.07,0,.11,0,.13A2.93,2.93,0,0,1,42.53,14a.6.6,0,0,1,.65.58.64.64,0,0,1-.62.66.52.52,0,0,1-.31-.1,1.22,1.22,0,0,0-.64-.23.61.61,0,0,0-.51.29,2.12,2.12,0,0,0-.19,1.11v1.95c0,1,0,1.21.57,1.25l.52.05a.25.25,0,0,1,0,.36c-.67,0-1.09-.05-1.59-.05s-1,0-1.33.05a.25.25,0,0,1,0-.36l.28-.05c.53-.08.54-.21.54-1.25Z" fill="#231f20"/>
    <path d="M39.84,15.69c0-.56,0-.63-.38-.89l-.13-.08c-.06-.06-.06-.22,0-.26a11.34,11.34,0,0,0,1.45-.71c.08,0,.12.05.12.1v.84c0,.07,0,.11,0,.13A2.93,2.93,0,0,1,42.53,14a.6.6,0,0,1,.65.58.64.64,0,0,1-.62.66.52.52,0,0,1-.31-.1,1.22,1.22,0,0,0-.64-.23.61.61,0,0,0-.51.29,2.12,2.12,0,0,0-.19,1.11v1.95c0,1,0,1.21.57,1.25l.52.05a.25.25,0,0,1,0,.36c-.67,0-1.09-.05-1.59-.05s-1,0-1.33.05a.25.25,0,0,1,0-.36l.28-.05c.53-.08.54-.21.54-1.25Z" fill="#231f20" stroke="#fff" stroke-width="0.03"/>
    <path d="M48.94,14.76c-.25,0-.25,0-.25.42v3c0,1,0,1.21.55,1.25l.52.05a.25.25,0,0,1,0,.36c-.65,0-1.07-.05-1.57-.05s-.95,0-1.38.05a.25.25,0,0,1,0-.36l.33-.05c.53-.07.55-.21.55-1.25v-3c0-.39,0-.42-.29-.42h-.5a.2.2,0,0,1-.05-.27l.62-.31a.31.31,0,0,0,.22-.28,6.58,6.58,0,0,1,.44-2.54,2.83,2.83,0,0,1,2.59-1.82c.77,0,1.41.34,1.41.86a.55.55,0,0,1-.54.52.41.41,0,0,1-.35-.18A1.61,1.61,0,0,0,50,10.11a1.12,1.12,0,0,0-1,.79,7.63,7.63,0,0,0-.32,2.43v.42c0,.39,0,.4.25.4h1.64a.45.45,0,0,1-.1.61Z" fill="#231f20"/>
    <path d="M48.94,14.76c-.25,0-.25,0-.25.42v3c0,1,0,1.21.55,1.25l.52.05a.25.25,0,0,1,0,.36c-.65,0-1.07-.05-1.57-.05s-.95,0-1.38.05a.25.25,0,0,1,0-.36l.33-.05c.53-.07.55-.21.55-1.25v-3c0-.39,0-.42-.29-.42h-.5a.2.2,0,0,1-.05-.27l.62-.31a.31.31,0,0,0,.22-.28,6.58,6.58,0,0,1,.44-2.54,2.83,2.83,0,0,1,2.59-1.82c.77,0,1.41.34,1.41.86a.55.55,0,0,1-.54.52.41.41,0,0,1-.35-.18A1.61,1.61,0,0,0,50,10.11a1.12,1.12,0,0,0-1,.79,7.63,7.63,0,0,0-.32,2.43v.42c0,.39,0,.4.25.4h1.64a.45.45,0,0,1-.1.61Z" fill="#231f20" stroke="#fff" stroke-width="0.03"/>
    <path d="M56.65,16.93a2.94,2.94,0,0,1-3,3.09,2.84,2.84,0,0,1-3-3A3,3,0,0,1,53.73,14a2.88,2.88,0,0,1,2.92,3m-3.09-2.55c-1,0-1.66.91-1.66,2.49,0,1.31.59,2.72,1.86,2.72s1.65-1.32,1.65-2.43-.49-2.78-1.85-2.78" fill="#231f20"/>
    <path d="M56.65,16.93a2.94,2.94,0,0,1-3,3.09,2.84,2.84,0,0,1-3-3A3,3,0,0,1,53.73,14,2.88,2.88,0,0,1,56.65,16.93Zm-3.09-2.55c-1,0-1.66.91-1.66,2.49,0,1.31.59,2.72,1.86,2.72s1.65-1.32,1.65-2.43S54.92,14.38,53.56,14.38Z" fill="#231f20" stroke="#fff" stroke-width="0.03"/>
    <path d="M58,15.69c0-.56,0-.63-.39-.89l-.13-.08c0-.06,0-.22,0-.26A11.34,11.34,0,0,0,59,13.75c.07,0,.12.05.12.1v.84c0,.07,0,.11,0,.13A2.89,2.89,0,0,1,60.69,14a.6.6,0,0,1,.65.58.64.64,0,0,1-.62.66.55.55,0,0,1-.32-.1,1.19,1.19,0,0,0-.63-.23.65.65,0,0,0-.52.29,2.25,2.25,0,0,0-.18,1.11v1.95c0,1,0,1.21.57,1.25l.52.05a.25.25,0,0,1,0,.36c-.68,0-1.09-.05-1.6-.05s-1,0-1.32.05a.25.25,0,0,1,0-.36l.27-.05c.54-.08.55-.21.55-1.25Z" fill="#231f20"/>
    <path d="M58,15.69c0-.56,0-.63-.39-.89l-.13-.08c0-.06,0-.22,0-.26A11.34,11.34,0,0,0,59,13.75c.07,0,.12.05.12.1v.84c0,.07,0,.11,0,.13A2.89,2.89,0,0,1,60.69,14a.6.6,0,0,1,.65.58.64.64,0,0,1-.62.66.55.55,0,0,1-.32-.1,1.19,1.19,0,0,0-.63-.23.65.65,0,0,0-.52.29,2.25,2.25,0,0,0-.18,1.11v1.95c0,1,0,1.21.57,1.25l.52.05a.25.25,0,0,1,0,.36c-.68,0-1.09-.05-1.6-.05s-1,0-1.32.05a.25.25,0,0,1,0-.36l.27-.05c.54-.08.55-.21.55-1.25Z" fill="#231f20" stroke="#fff" stroke-width="0.03"/>
    <path d="M67.35,20.05a4.47,4.47,0,0,1-2.24-.53,6.79,6.79,0,0,1-.39-2c.07-.1.29-.13.35-.05a2.6,2.6,0,0,0,2.47,2.15A1.64,1.64,0,0,0,69.34,18a2.15,2.15,0,0,0-1.18-2l-1.37-.89a3.08,3.08,0,0,1-1.55-2.48c0-1.36,1.06-2.47,2.93-2.47a5.1,5.1,0,0,1,1.34.19,2.28,2.28,0,0,0,.51.08,6.34,6.34,0,0,1,.25,1.76.29.29,0,0,1-.36,0,1.88,1.88,0,0,0-2-1.63,1.51,1.51,0,0,0-1.71,1.6,2.26,2.26,0,0,0,1.22,1.77l1.15.72a3.24,3.24,0,0,1,1.8,2.76c0,1.58-1.2,2.66-3.07,2.66" fill="#231f20"/>
    <path d="M67.35,20.05a4.47,4.47,0,0,1-2.24-.53,6.79,6.79,0,0,1-.39-2c.07-.1.29-.13.35-.05a2.6,2.6,0,0,0,2.47,2.15A1.64,1.64,0,0,0,69.34,18a2.15,2.15,0,0,0-1.18-2l-1.37-.89a3.08,3.08,0,0,1-1.55-2.48c0-1.36,1.06-2.47,2.93-2.47a5.1,5.1,0,0,1,1.34.19,2.28,2.28,0,0,0,.51.08,6.34,6.34,0,0,1,.25,1.76.29.29,0,0,1-.36,0,1.88,1.88,0,0,0-2-1.63,1.51,1.51,0,0,0-1.71,1.6,2.26,2.26,0,0,0,1.22,1.77l1.15.72a3.24,3.24,0,0,1,1.8,2.76C70.42,19,69.22,20.05,67.35,20.05Z" fill="#231f20" stroke="#fff" stroke-width="0.03"/>
    <path d="M72.53,17.71c0,1,.25,1.65,1.34,1.65A1.92,1.92,0,0,0,75,18.93a1,1,0,0,0,.28-.83V15.74c0-.94-.1-1-.53-1.14l-.18-.07a.19.19,0,0,1,0-.32A5.33,5.33,0,0,0,76.3,14c.07,0,.12.05.13.1,0,.28,0,.72,0,1.26v2.41c0,1.14,0,1.57.45,1.57a3,3,0,0,0,.56-.07c.08.07.1.36,0,.42a7,7,0,0,0-1.88.53.2.2,0,0,1-.18-.1v-.59c0-.13,0-.2-.12-.2a3.83,3.83,0,0,1-2,.74c-1.27,0-1.74-.63-1.74-1.79V15.82c0-.9,0-1-.43-1.22l-.18-.07a.22.22,0,0,1,0-.32A4.74,4.74,0,0,0,72.43,14c.09,0,.13.05.15.1a10.19,10.19,0,0,0,0,1.26Z" fill="#231f20"/>
    <path d="M72.53,17.71c0,1,.25,1.65,1.34,1.65A1.92,1.92,0,0,0,75,18.93a1,1,0,0,0,.28-.83V15.74c0-.94-.1-1-.53-1.14l-.18-.07a.19.19,0,0,1,0-.32A5.33,5.33,0,0,0,76.3,14c.07,0,.12.05.13.1,0,.28,0,.72,0,1.26v2.41c0,1.14,0,1.57.45,1.57a3,3,0,0,0,.56-.07c.08.07.1.36,0,.42a7,7,0,0,0-1.88.53.2.2,0,0,1-.18-.1v-.59c0-.13,0-.2-.12-.2a3.83,3.83,0,0,1-2,.74c-1.27,0-1.74-.63-1.74-1.79V15.82c0-.9,0-1-.43-1.22l-.18-.07a.22.22,0,0,1,0-.32A4.74,4.74,0,0,0,72.43,14c.09,0,.13.05.15.1a10.19,10.19,0,0,0,0,1.26Z" fill="#231f20" stroke="#fff" stroke-width="0.03"/>
    <path d="M81.28,14.21a3.38,3.38,0,0,1,.23,1.17.24.24,0,0,1-.34,0,1.42,1.42,0,0,0-1.27-1.05.85.85,0,0,0-.92.88c0,.59.6.9,1.11,1.19.76.43,1.46.92,1.46,1.94S80.55,20,79.48,20a2.39,2.39,0,0,1-1.54-.43,4.37,4.37,0,0,1-.17-1.45.25.25,0,0,1,.33,0c.25.8.71,1.49,1.53,1.49a.89.89,0,0,0,1-.92c0-.67-.57-1-1.11-1.33-.83-.47-1.42-1-1.42-1.77,0-1.05.86-1.64,2-1.64a2.59,2.59,0,0,1,1.26.26" fill="#231f20"/>
    <path d="M81.28,14.21a3.38,3.38,0,0,1,.23,1.17.24.24,0,0,1-.34,0,1.42,1.42,0,0,0-1.27-1.05.85.85,0,0,0-.92.88c0,.59.6.9,1.11,1.19.76.43,1.46.92,1.46,1.94S80.55,20,79.48,20a2.39,2.39,0,0,1-1.54-.43,4.37,4.37,0,0,1-.17-1.45.25.25,0,0,1,.33,0c.25.8.71,1.49,1.53,1.49a.89.89,0,0,0,1-.92c0-.67-.57-1-1.11-1.33-.83-.47-1.42-1-1.42-1.77,0-1.05.86-1.64,2-1.64A2.59,2.59,0,0,1,81.28,14.21Z" fill="#231f20" stroke="#fff" stroke-width="0.03"/>
    <path d="M84.3,14.76c-.24,0-.26,0-.26.34v2.7c0,.83.1,1.59,1,1.59a1.13,1.13,0,0,0,.39-.07c.13,0,.32-.2.36-.2s.18.16.15.24a2,2,0,0,1-1.51.66c-1.24,0-1.5-.69-1.5-1.55V15.18c0-.39,0-.42-.3-.42h-.41a.24.24,0,0,1,0-.3,2.77,2.77,0,0,0,.92-.45,3.57,3.57,0,0,0,.61-.85.27.27,0,0,1,.3.07v.65c0,.26,0,.27.26.27h1.59a.46.46,0,0,1,0,.61Z" fill="#231f20"/>
    <path d="M84.3,14.76c-.24,0-.26,0-.26.34v2.7c0,.83.1,1.59,1,1.59a1.13,1.13,0,0,0,.39-.07c.13,0,.32-.2.36-.2s.18.16.15.24a2,2,0,0,1-1.51.66c-1.24,0-1.5-.69-1.5-1.55V15.18c0-.39,0-.42-.3-.42h-.41a.24.24,0,0,1,0-.3,2.77,2.77,0,0,0,.92-.45,3.57,3.57,0,0,0,.61-.85.27.27,0,0,1,.3.07v.65c0,.26,0,.27.26.27h1.59a.46.46,0,0,1,0,.61Z" fill="#231f20" stroke="#fff" stroke-width="0.03"/>
    <path d="M89.27,16.84c.21-.07.24-.2.24-.41l0-.66c0-.54-.16-1.26-1-1.26-.41,0-.9.21-.93.65,0,.23,0,.4-.14.49a1.57,1.57,0,0,1-.82.27.18.18,0,0,1-.2-.2C86.39,15,88,14,89.07,14s1.53.61,1.49,1.69l-.08,2.5c0,.66.1,1.25.66,1.25a.76.76,0,0,0,.36-.09c.07,0,.14-.1.18-.1s.1.09.1.19a1.5,1.5,0,0,1-1.2.63,1.17,1.17,0,0,1-.94-.44c-.06-.09-.14-.2-.23-.2a2.45,2.45,0,0,0-.56.28,2.06,2.06,0,0,1-1,.36,1.45,1.45,0,0,1-1-.33,1.31,1.31,0,0,1-.45-1c0-.56.27-.9,1.19-1.23Zm-.9,2.54a1.64,1.64,0,0,0,.88-.36,1,1,0,0,0,.19-.68l0-.85c0-.16-.06-.18-.15-.18a2.52,2.52,0,0,0-.59.14c-.84.29-1.26.5-1.26,1.06a.87.87,0,0,0,.9.87" fill="#231f20"/>
    <path d="M89.27,16.84c.21-.07.24-.2.24-.41l0-.66c0-.54-.16-1.26-1-1.26-.41,0-.9.21-.93.65,0,.23,0,.4-.14.49a1.57,1.57,0,0,1-.82.27.18.18,0,0,1-.2-.2C86.39,15,88,14,89.07,14s1.53.61,1.49,1.69l-.08,2.5c0,.66.1,1.25.66,1.25a.76.76,0,0,0,.36-.09c.07,0,.14-.1.18-.1s.1.09.1.19a1.5,1.5,0,0,1-1.2.63,1.17,1.17,0,0,1-.94-.44c-.06-.09-.14-.2-.23-.2a2.45,2.45,0,0,0-.56.28,2.06,2.06,0,0,1-1,.36,1.45,1.45,0,0,1-1-.33,1.31,1.31,0,0,1-.45-1c0-.56.27-.9,1.19-1.23Zm-.9,2.54a1.64,1.64,0,0,0,.88-.36,1,1,0,0,0,.19-.68l0-.85c0-.16-.06-.18-.15-.18a2.52,2.52,0,0,0-.59.14c-.84.29-1.26.5-1.26,1.06A.87.87,0,0,0,88.37,19.38Z" fill="#231f20" stroke="#fff" stroke-width="0.03"/>
    <path d="M92.81,15.69c0-.56,0-.63-.39-.89l-.13-.08c-.06-.06-.06-.22,0-.26a10.57,10.57,0,0,0,1.49-.71.13.13,0,0,1,.14.09c0,.5-.06,1.19-.06,1.78v2.59c0,1,0,1.18.55,1.25l.3.05a.25.25,0,0,1,0,.36c-.43,0-.85-.05-1.35-.05s-1,0-1.35.05a.25.25,0,0,1,0-.36l.3-.05c.53-.07.55-.21.55-1.25ZM94,11.59a.75.75,0,0,1-1.5,0,.75.75,0,0,1,.78-.77.72.72,0,0,1,.72.74" fill="#231f20"/>
    <path d="M92.81,15.69c0-.56,0-.63-.39-.89l-.13-.08c-.06-.06-.06-.22,0-.26a10.57,10.57,0,0,0,1.49-.71.13.13,0,0,1,.14.09c0,.5-.06,1.19-.06,1.78v2.59c0,1,0,1.18.55,1.25l.3.05a.25.25,0,0,1,0,.36c-.43,0-.85-.05-1.35-.05s-1,0-1.35.05a.25.25,0,0,1,0-.36l.3-.05c.53-.07.55-.21.55-1.25ZM94,11.59a.75.75,0,0,1-1.5,0,.75.75,0,0,1,.78-.77A.72.72,0,0,1,94,11.59Z" fill="#231f20" stroke="#fff" stroke-width="0.03"/>
    <path d="M95.94,15.69c0-.56,0-.63-.39-.89l-.13-.08c0-.06,0-.22,0-.26a8,8,0,0,0,1.44-.71.17.17,0,0,1,.16.1c0,.33,0,.55,0,.68a.15.15,0,0,0,.16.16,3.88,3.88,0,0,1,2-.74,1.6,1.6,0,0,1,1.68,1.79v2.47c0,1,0,1.18.55,1.25l.32.05a.25.25,0,0,1,0,.36c-.43,0-.85-.05-1.36-.05s-1,0-1.33.05a.25.25,0,0,1,0-.36l.27-.05c.53-.08.55-.21.55-1.25V16.07a1.25,1.25,0,0,0-1.35-1.43,1.56,1.56,0,0,0-1.23.51A1.23,1.23,0,0,0,97,16v2.2c0,1,0,1.17.54,1.25l.26.05a.25.25,0,0,1,0,.36c-.38,0-.8-.05-1.3-.05s-1,0-1.36.05a.25.25,0,0,1,0-.36l.31-.05c.53-.07.54-.21.54-1.25Z" fill="#231f20"/>
    <path d="M95.94,15.69c0-.56,0-.63-.39-.89l-.13-.08c0-.06,0-.22,0-.26a8,8,0,0,0,1.44-.71.17.17,0,0,1,.16.1c0,.33,0,.55,0,.68a.15.15,0,0,0,.16.16,3.88,3.88,0,0,1,2-.74,1.6,1.6,0,0,1,1.68,1.79v2.47c0,1,0,1.18.55,1.25l.32.05a.25.25,0,0,1,0,.36c-.43,0-.85-.05-1.36-.05s-1,0-1.33.05a.25.25,0,0,1,0-.36l.27-.05c.53-.08.55-.21.55-1.25V16.07a1.25,1.25,0,0,0-1.35-1.43,1.56,1.56,0,0,0-1.23.51A1.23,1.23,0,0,0,97,16v2.2c0,1,0,1.17.54,1.25l.26.05a.25.25,0,0,1,0,.36c-.38,0-.8-.05-1.3-.05s-1,0-1.36.05a.25.25,0,0,1,0-.36l.31-.05c.53-.07.54-.21.54-1.25Z" fill="#231f20" stroke="#fff" stroke-width="0.03"/>
    <path d="M105.22,16.84c.22-.07.25-.2.25-.41v-.66c0-.54-.16-1.26-1-1.26-.4,0-.89.21-.92.65,0,.23,0,.4-.14.49a1.59,1.59,0,0,1-.82.27.18.18,0,0,1-.2-.2C102.35,15,104,14,105,14s1.54.61,1.5,1.69l-.09,2.5c0,.66.1,1.25.66,1.25a.7.7,0,0,0,.36-.09.7.7,0,0,1,.19-.1c.06,0,.1.09.1.19a1.51,1.51,0,0,1-1.21.63,1.15,1.15,0,0,1-.93-.44c-.06-.09-.15-.2-.23-.2a2.26,2.26,0,0,0-.56.28,2.09,2.09,0,0,1-1,.36,1.48,1.48,0,0,1-1-.33,1.33,1.33,0,0,1-.44-1c0-.56.27-.9,1.19-1.23Zm-.89,2.54a1.68,1.68,0,0,0,.88-.36,1,1,0,0,0,.19-.68l0-.85c0-.16,0-.18-.14-.18a2.41,2.41,0,0,0-.59.14c-.85.29-1.27.5-1.27,1.06a.88.88,0,0,0,.91.87" fill="#231f20"/>
    <path d="M105.22,16.84c.22-.07.25-.2.25-.41v-.66c0-.54-.16-1.26-1-1.26-.4,0-.89.21-.92.65,0,.23,0,.4-.14.49a1.59,1.59,0,0,1-.82.27.18.18,0,0,1-.2-.2C102.35,15,104,14,105,14s1.54.61,1.5,1.69l-.09,2.5c0,.66.1,1.25.66,1.25a.7.7,0,0,0,.36-.09.7.7,0,0,1,.19-.1c.06,0,.1.09.1.19a1.51,1.51,0,0,1-1.21.63,1.15,1.15,0,0,1-.93-.44c-.06-.09-.15-.2-.23-.2a2.26,2.26,0,0,0-.56.28,2.09,2.09,0,0,1-1,.36,1.48,1.48,0,0,1-1-.33,1.33,1.33,0,0,1-.44-1c0-.56.27-.9,1.19-1.23Zm-.89,2.54a1.68,1.68,0,0,0,.88-.36,1,1,0,0,0,.19-.68l0-.85c0-.16,0-.18-.14-.18a2.41,2.41,0,0,0-.59.14c-.85.29-1.27.5-1.27,1.06A.88.88,0,0,0,104.33,19.38Z" fill="#231f20" stroke="#fff" stroke-width="0.03"/>
    <path d="M108.43,11.71c0-.85,0-.94-.44-1.2l-.15-.08a.23.23,0,0,1,0-.29,15.1,15.1,0,0,0,1.57-.6.16.16,0,0,1,.14.08c0,.51,0,1.15,0,1.79v2.72c0,.24,0,.3.14.3a3.26,3.26,0,0,1,1.65-.48A2.7,2.7,0,0,1,114,16.77,3.15,3.15,0,0,1,110.73,20a4.38,4.38,0,0,1-1.22-.18,3.26,3.26,0,0,0-.6-.19c-.12,0-.23.12-.31.22h0a.16.16,0,0,1-.15-.09c0-.2,0-.47,0-1.22Zm1.07,6.16a2,2,0,0,0,.36,1.25,1.36,1.36,0,0,0,1.09.47c1.35,0,1.88-1.15,1.88-2.39,0-1.48-.76-2.63-2.18-2.63a1.88,1.88,0,0,0-1,.23c-.15.1-.17.26-.17.82Z" fill="#231f20"/>
    <path d="M108.43,11.71c0-.85,0-.94-.44-1.2l-.15-.08a.23.23,0,0,1,0-.29,15.1,15.1,0,0,0,1.57-.6.16.16,0,0,1,.14.08c0,.51,0,1.15,0,1.79v2.72c0,.24,0,.3.14.3a3.26,3.26,0,0,1,1.65-.48A2.7,2.7,0,0,1,114,16.77,3.15,3.15,0,0,1,110.73,20a4.38,4.38,0,0,1-1.22-.18,3.26,3.26,0,0,0-.6-.19c-.12,0-.23.12-.31.22h0a.16.16,0,0,1-.15-.09c0-.2,0-.47,0-1.22Zm1.07,6.16a2,2,0,0,0,.36,1.25,1.36,1.36,0,0,0,1.09.47c1.35,0,1.88-1.15,1.88-2.39,0-1.48-.76-2.63-2.18-2.63a1.88,1.88,0,0,0-1,.23c-.15.1-.17.26-.17.82Z" fill="#231f20" stroke="#fff" stroke-width="0.03"/>
    <path d="M116.59,18.21c0,1,0,1.18.55,1.25l.34.05a.25.25,0,0,1,0,.36c-.47,0-.89-.05-1.39-.05s-1,0-1.38.05a.25.25,0,0,1,0-.36l.33-.05c.53-.07.54-.21.54-1.25v-6.5c0-.85,0-.94-.44-1.19l-.14-.09a.21.21,0,0,1,0-.29,10.4,10.4,0,0,0,1.55-.6.16.16,0,0,1,.14.08c0,.43,0,1.15,0,1.79Z" fill="#231f20"/>
    <path d="M116.59,18.21c0,1,0,1.18.55,1.25l.34.05a.25.25,0,0,1,0,.36c-.47,0-.89-.05-1.39-.05s-1,0-1.38.05a.25.25,0,0,1,0-.36l.33-.05c.53-.07.54-.21.54-1.25v-6.5c0-.85,0-.94-.44-1.19l-.14-.09a.21.21,0,0,1,0-.29,10.4,10.4,0,0,0,1.55-.6.16.16,0,0,1,.14.08c0,.43,0,1.15,0,1.79Z" fill="#231f20" stroke="#fff" stroke-width="0.03"/>
    <path d="M119.41,16.14c-.37,0-.39,0-.39.39a2.44,2.44,0,0,0,2.39,2.69,1.53,1.53,0,0,0,1.32-.71.19.19,0,0,1,.26.18A2.52,2.52,0,0,1,120.73,20a2.58,2.58,0,0,1-2.08-.94,3.1,3.1,0,0,1-.61-1.87A3,3,0,0,1,120.93,14a1.89,1.89,0,0,1,2,1.72.85.85,0,0,1-.06.37c0,.09-.25.1-.85.1Zm.89-.43c1.07,0,1.38-.06,1.5-.15s.08-.08.08-.27c0-.4-.27-.91-1.1-.91a1.69,1.69,0,0,0-1.6,1.26s0,.07.1.07Z" fill="#231f20"/>
    <path d="M119.41,16.14c-.37,0-.39,0-.39.39a2.44,2.44,0,0,0,2.39,2.69,1.53,1.53,0,0,0,1.32-.71.19.19,0,0,1,.26.18A2.52,2.52,0,0,1,120.73,20a2.58,2.58,0,0,1-2.08-.94,3.1,3.1,0,0,1-.61-1.87A3,3,0,0,1,120.93,14a1.89,1.89,0,0,1,2,1.72.85.85,0,0,1-.06.37c0,.09-.25.1-.85.1Zm.89-.43c1.07,0,1.38-.06,1.5-.15s.08-.08.08-.27c0-.4-.27-.91-1.1-.91a1.69,1.69,0,0,0-1.6,1.26s0,.07.1.07Z" fill="#231f20" stroke="#fff" stroke-width="0.03"/>
    <path d="M128.1,12.2c0-1-.07-1.31-.68-1.4l-.31,0a.21.21,0,0,1,0-.36c1.22-.07,2.39-.12,3.61-.12a8.94,8.94,0,0,1,3.17.44A4.3,4.3,0,0,1,136.82,15a4.72,4.72,0,0,1-2.52,4.29,7,7,0,0,1-3.22.69c-.92,0-1.84-.12-2.35-.12s-1.12,0-1.8.05a.28.28,0,0,1,0-.36l.33-.05c.83-.11.86-.28.86-1.8Zm1.18,5.13a2.6,2.6,0,0,0,.29,1.57c.31.45.86.59,1.77.59,2.79,0,4-1.83,4-4.5,0-1.58-.76-4.26-4.53-4.26a3.37,3.37,0,0,0-1.43.2c-.11.09-.14.45-.14,1.1Z" fill="#231f20"/>
    <path d="M128.1,12.2c0-1-.07-1.31-.68-1.4l-.31,0a.21.21,0,0,1,0-.36c1.22-.07,2.39-.12,3.61-.12a8.94,8.94,0,0,1,3.17.44A4.3,4.3,0,0,1,136.82,15a4.72,4.72,0,0,1-2.52,4.29,7,7,0,0,1-3.22.69c-.92,0-1.84-.12-2.35-.12s-1.12,0-1.8.05a.28.28,0,0,1,0-.36l.33-.05c.83-.11.86-.28.86-1.8Zm1.18,5.13a2.6,2.6,0,0,0,.29,1.57c.31.45.86.59,1.77.59,2.79,0,4-1.83,4-4.5,0-1.58-.76-4.26-4.53-4.26a3.37,3.37,0,0,0-1.43.2c-.11.09-.14.45-.14,1.1Z" fill="#231f20" stroke="#fff" stroke-width="0.03"/>
    <path d="M138.7,16.14c-.37,0-.38,0-.38.39a2.43,2.43,0,0,0,2.38,2.69,1.54,1.54,0,0,0,1.33-.71.2.2,0,0,1,.26.18A2.53,2.53,0,0,1,140,20a2.6,2.6,0,0,1-2.09-.94,3.08,3.08,0,0,1-.6-1.87A3,3,0,0,1,140.23,14a1.88,1.88,0,0,1,2,1.72.85.85,0,0,1-.06.37c0,.09-.24.1-.84.1Zm.9-.43c1.06,0,1.38-.06,1.49-.15s.09-.08.09-.27c0-.4-.27-.91-1.11-.91a1.7,1.7,0,0,0-1.6,1.26s0,.07.1.07Z" fill="#231f20"/>
    <path d="M138.7,16.14c-.37,0-.38,0-.38.39a2.43,2.43,0,0,0,2.38,2.69,1.54,1.54,0,0,0,1.33-.71.2.2,0,0,1,.26.18A2.53,2.53,0,0,1,140,20a2.6,2.6,0,0,1-2.09-.94,3.08,3.08,0,0,1-.6-1.87A3,3,0,0,1,140.23,14a1.88,1.88,0,0,1,2,1.72.85.85,0,0,1-.06.37c0,.09-.24.1-.84.1Zm.9-.43c1.06,0,1.38-.06,1.49-.15s.09-.08.09-.27c0-.4-.27-.91-1.11-.91a1.7,1.7,0,0,0-1.6,1.26s0,.07.1.07Z" fill="#231f20" stroke="#fff" stroke-width="0.03"/>
    <path d="M143.64,15.58c-.22-.53-.35-1-.86-1.07l-.29,0c-.09-.11-.07-.32,0-.36.36,0,.86,0,1.35,0s.68,0,1.17,0a.25.25,0,0,1,0,.36l-.17,0c-.45.07-.46.14-.32.58.33,1,.75,2,1.08,2.74a2.41,2.41,0,0,0,.23.46,1.68,1.68,0,0,0,.28-.54c.18-.49.67-1.74.82-2.12a3.25,3.25,0,0,0,.26-.89c0-.13-.09-.19-.26-.22l-.33,0a.26.26,0,0,1,0-.36c.45,0,.81,0,1.08,0s.61,0,1,0a.26.26,0,0,1,0,.36l-.22,0c-.5.07-.63.45-1,1.25-.2.39-1.09,2.48-1.32,3.07-.14.36-.29.69-.47,1.18a.18.18,0,0,1-.15.05.3.3,0,0,1-.19-.05,15.79,15.79,0,0,0-.54-1.5Z" fill="#231f20"/>
    <path d="M143.64,15.58c-.22-.53-.35-1-.86-1.07l-.29,0c-.09-.11-.07-.32,0-.36.36,0,.86,0,1.35,0s.68,0,1.17,0a.25.25,0,0,1,0,.36l-.17,0c-.45.07-.46.14-.32.58.33,1,.75,2,1.08,2.74a2.41,2.41,0,0,0,.23.46,1.68,1.68,0,0,0,.28-.54c.18-.49.67-1.74.82-2.12a3.25,3.25,0,0,0,.26-.89c0-.13-.09-.19-.26-.22l-.33,0a.26.26,0,0,1,0-.36c.45,0,.81,0,1.08,0s.61,0,1,0a.26.26,0,0,1,0,.36l-.22,0c-.5.07-.63.45-1,1.25-.2.39-1.09,2.48-1.32,3.07-.14.36-.29.69-.47,1.18a.18.18,0,0,1-.15.05.3.3,0,0,1-.19-.05,15.79,15.79,0,0,0-.54-1.5Z" fill="#231f20" stroke="#fff" stroke-width="0.03"/>
    <path d="M149.9,16.14c-.38,0-.39,0-.39.39a2.44,2.44,0,0,0,2.39,2.69,1.54,1.54,0,0,0,1.32-.71.2.2,0,0,1,.26.18A2.52,2.52,0,0,1,151.22,20a2.58,2.58,0,0,1-2.08-.94,3,3,0,0,1-.61-1.87A3,3,0,0,1,151.42,14a1.88,1.88,0,0,1,2,1.72.9.9,0,0,1-.05.37c0,.09-.25.1-.85.1Zm.89-.43c1.06,0,1.38-.06,1.5-.15s.08-.08.08-.27c0-.4-.27-.91-1.11-.91a1.67,1.67,0,0,0-1.59,1.26s0,.07.1.07Z" fill="#231f20"/>
    <path d="M149.9,16.14c-.38,0-.39,0-.39.39a2.44,2.44,0,0,0,2.39,2.69,1.54,1.54,0,0,0,1.32-.71.2.2,0,0,1,.26.18A2.52,2.52,0,0,1,151.22,20a2.58,2.58,0,0,1-2.08-.94,3,3,0,0,1-.61-1.87A3,3,0,0,1,151.42,14a1.88,1.88,0,0,1,2,1.72.9.9,0,0,1-.05.37c0,.09-.25.1-.85.1Zm.89-.43c1.06,0,1.38-.06,1.5-.15s.08-.08.08-.27c0-.4-.27-.91-1.11-.91a1.67,1.67,0,0,0-1.59,1.26s0,.07.1.07Z" fill="#231f20" stroke="#fff" stroke-width="0.03"/>
    <path d="M155.7,18.21c0,1,0,1.18.54,1.25l.35.05a.25.25,0,0,1,0,.36c-.47,0-.89-.05-1.4-.05s-.95,0-1.38.05a.25.25,0,0,1,0-.36l.34-.05c.53-.07.54-.21.54-1.25v-6.5c0-.85,0-.94-.44-1.19l-.15-.09a.23.23,0,0,1,0-.29,10.06,10.06,0,0,0,1.56-.6.17.17,0,0,1,.14.08c0,.43,0,1.15,0,1.79Z" fill="#231f20"/>
    <path d="M155.7,18.21c0,1,0,1.18.54,1.25l.35.05a.25.25,0,0,1,0,.36c-.47,0-.89-.05-1.4-.05s-.95,0-1.38.05a.25.25,0,0,1,0-.36l.34-.05c.53-.07.54-.21.54-1.25v-6.5c0-.85,0-.94-.44-1.19l-.15-.09a.23.23,0,0,1,0-.29,10.06,10.06,0,0,0,1.56-.6.17.17,0,0,1,.14.08c0,.43,0,1.15,0,1.79Z" fill="#231f20" stroke="#fff" stroke-width="0.03"/>
    <path d="M163.05,16.93A2.94,2.94,0,0,1,160,20a2.84,2.84,0,0,1-2.95-3A3,3,0,0,1,160.13,14a2.88,2.88,0,0,1,2.92,3M160,14.38c-.95,0-1.65.91-1.65,2.49,0,1.31.59,2.72,1.86,2.72s1.65-1.32,1.65-2.43-.49-2.78-1.86-2.78" fill="#231f20"/>
    <path d="M163.05,16.93A2.94,2.94,0,0,1,160,20a2.84,2.84,0,0,1-2.95-3A3,3,0,0,1,160.13,14,2.88,2.88,0,0,1,163.05,16.93ZM160,14.38c-.95,0-1.65.91-1.65,2.49,0,1.31.59,2.72,1.86,2.72s1.65-1.32,1.65-2.43S161.32,14.38,160,14.38Z" fill="#231f20" stroke="#fff" stroke-width="0.03"/>
    <path d="M164.13,15.69c0-.56,0-.63-.39-.89l-.13-.08c-.06-.06-.06-.22,0-.26a9.17,9.17,0,0,0,1.43-.78.17.17,0,0,1,.17.1,6.42,6.42,0,0,0-.06.66c0,.1,0,.19.13.19a4.57,4.57,0,0,1,2-.68,2.43,2.43,0,0,1,2.38,2.64A3.34,3.34,0,0,1,166.18,20a5.5,5.5,0,0,1-.79-.05c-.13,0-.2.1-.2.4v1.51c0,1,0,1.15.55,1.22l.56.08a.24.24,0,0,1,0,.35c-.69,0-1.11,0-1.61,0s-.95,0-1.35,0a.24.24,0,0,1,0-.35l.3-.05c.53-.07.55-.21.55-1.25Zm1.06,2.68a.94.94,0,0,0,.43.86,1.89,1.89,0,0,0,1,.32c1.18,0,1.87-1.09,1.87-2.59a2.09,2.09,0,0,0-1.94-2.32,1.75,1.75,0,0,0-1.23.41c-.13.16-.17.37-.17.84Z" fill="#231f20"/>
    <path d="M164.13,15.69c0-.56,0-.63-.39-.89l-.13-.08c-.06-.06-.06-.22,0-.26a9.17,9.17,0,0,0,1.43-.78.17.17,0,0,1,.17.1,6.42,6.42,0,0,0-.06.66c0,.1,0,.19.13.19a4.57,4.57,0,0,1,2-.68,2.43,2.43,0,0,1,2.38,2.64A3.34,3.34,0,0,1,166.18,20a5.5,5.5,0,0,1-.79-.05c-.13,0-.2.1-.2.4v1.51c0,1,0,1.15.55,1.22l.56.08a.24.24,0,0,1,0,.35c-.69,0-1.11,0-1.61,0s-.95,0-1.35,0a.24.24,0,0,1,0-.35l.3-.05c.53-.07.55-.21.55-1.25Zm1.06,2.68a.94.94,0,0,0,.43.86,1.89,1.89,0,0,0,1,.32c1.18,0,1.87-1.09,1.87-2.59a2.09,2.09,0,0,0-1.94-2.32,1.75,1.75,0,0,0-1.23.41c-.13.16-.17.37-.17.84Z" fill="#231f20" stroke="#fff" stroke-width="0.03"/>
    <path d="M178.59,16.13c0-1-.44-1.49-1.34-1.49a1.57,1.57,0,0,0-1.2.51c-.17.21-.21.36-.21.86v2.2c0,1,0,1.18.54,1.25l.31.05a.25.25,0,0,1,0,.36c-.43,0-.85-.05-1.35-.05s-.91,0-1.31.05a.25.25,0,0,1,0-.36l.26-.05c.53-.08.54-.21.54-1.25V16.13c0-1-.43-1.49-1.32-1.49a1.55,1.55,0,0,0-1.21.52A1.14,1.14,0,0,0,172,16v2.23c0,1,0,1.17.54,1.25l.26.05a.25.25,0,0,1,0,.36c-.39,0-.8-.05-1.31-.05s-1,0-1.39.05a.25.25,0,0,1,0-.36l.34-.05c.54-.07.55-.21.55-1.25V15.69c0-.56,0-.63-.39-.89l-.13-.08c-.05-.06-.05-.22,0-.26a8,8,0,0,0,1.44-.71.18.18,0,0,1,.16.1c0,.33,0,.55,0,.68a.15.15,0,0,0,.15.16A3.48,3.48,0,0,1,174.1,14a1.63,1.63,0,0,1,1.52.85.47.47,0,0,0,.36-.11,3.57,3.57,0,0,1,2-.74,1.63,1.63,0,0,1,1.71,1.79v2.47c0,1,0,1.18.55,1.25l.34.05a.25.25,0,0,1,0,.36c-.47,0-.89-.05-1.39-.05s-.91,0-1.31.05a.25.25,0,0,1,0-.36l.26-.05c.53-.08.55-.21.55-1.25Z" fill="#231f20"/>
    <path d="M178.59,16.13c0-1-.44-1.49-1.34-1.49a1.57,1.57,0,0,0-1.2.51c-.17.21-.21.36-.21.86v2.2c0,1,0,1.18.54,1.25l.31.05a.25.25,0,0,1,0,.36c-.43,0-.85-.05-1.35-.05s-.91,0-1.31.05a.25.25,0,0,1,0-.36l.26-.05c.53-.08.54-.21.54-1.25V16.13c0-1-.43-1.49-1.32-1.49a1.55,1.55,0,0,0-1.21.52A1.14,1.14,0,0,0,172,16v2.23c0,1,0,1.17.54,1.25l.26.05a.25.25,0,0,1,0,.36c-.39,0-.8-.05-1.31-.05s-1,0-1.39.05a.25.25,0,0,1,0-.36l.34-.05c.54-.07.55-.21.55-1.25V15.69c0-.56,0-.63-.39-.89l-.13-.08c-.05-.06-.05-.22,0-.26a8,8,0,0,0,1.44-.71.18.18,0,0,1,.16.1c0,.33,0,.55,0,.68a.15.15,0,0,0,.15.16A3.48,3.48,0,0,1,174.1,14a1.63,1.63,0,0,1,1.52.85.47.47,0,0,0,.36-.11,3.57,3.57,0,0,1,2-.74,1.63,1.63,0,0,1,1.71,1.79v2.47c0,1,0,1.18.55,1.25l.34.05a.25.25,0,0,1,0,.36c-.47,0-.89-.05-1.39-.05s-.91,0-1.31.05a.25.25,0,0,1,0-.36l.26-.05c.53-.08.55-.21.55-1.25Z" fill="#231f20" stroke="#fff" stroke-width="0.03"/>
    <path d="M182.1,16.14c-.38,0-.39,0-.39.39a2.44,2.44,0,0,0,2.39,2.69,1.54,1.54,0,0,0,1.32-.71.19.19,0,0,1,.26.18A2.52,2.52,0,0,1,183.42,20a2.58,2.58,0,0,1-2.08-.94,3,3,0,0,1-.61-1.87A3,3,0,0,1,183.62,14a1.89,1.89,0,0,1,2,1.72.85.85,0,0,1-.06.37c0,.09-.25.1-.85.1Zm.89-.43c1.06,0,1.38-.06,1.5-.15s.08-.08.08-.27c0-.4-.27-.91-1.11-.91a1.68,1.68,0,0,0-1.59,1.26s0,.07.1.07Z" fill="#231f20"/>
    <path d="M182.1,16.14c-.38,0-.39,0-.39.39a2.44,2.44,0,0,0,2.39,2.69,1.54,1.54,0,0,0,1.32-.71.19.19,0,0,1,.26.18A2.52,2.52,0,0,1,183.42,20a2.58,2.58,0,0,1-2.08-.94,3,3,0,0,1-.61-1.87A3,3,0,0,1,183.62,14a1.89,1.89,0,0,1,2,1.72.85.85,0,0,1-.06.37c0,.09-.25.1-.85.1Zm.89-.43c1.06,0,1.38-.06,1.5-.15s.08-.08.08-.27c0-.4-.27-.91-1.11-.91a1.68,1.68,0,0,0-1.59,1.26s0,.07.1.07Z" fill="#231f20" stroke="#fff" stroke-width="0.03"/>
    <path d="M187,15.69c0-.56,0-.63-.39-.89l-.13-.08c-.06-.06-.06-.22,0-.26a8,8,0,0,0,1.44-.71.17.17,0,0,1,.16.1c0,.33,0,.55,0,.68a.15.15,0,0,0,.16.16,3.88,3.88,0,0,1,2-.74,1.6,1.6,0,0,1,1.69,1.79v2.47c0,1,0,1.18.54,1.25l.32.05a.25.25,0,0,1,0,.36c-.43,0-.85-.05-1.35-.05s-.95,0-1.34.05a.25.25,0,0,1,0-.36l.27-.05c.54-.08.55-.21.55-1.25V16.07a1.25,1.25,0,0,0-1.35-1.43,1.54,1.54,0,0,0-1.22.51A1.18,1.18,0,0,0,188,16v2.2c0,1,0,1.17.55,1.25l.26.05a.25.25,0,0,1,0,.36c-.39,0-.81-.05-1.31-.05s-.95,0-1.36.05a.25.25,0,0,1,0-.36l.3-.05c.53-.07.55-.21.55-1.25Z" fill="#231f20"/>
    <path d="M187,15.69c0-.56,0-.63-.39-.89l-.13-.08c-.06-.06-.06-.22,0-.26a8,8,0,0,0,1.44-.71.17.17,0,0,1,.16.1c0,.33,0,.55,0,.68a.15.15,0,0,0,.16.16,3.88,3.88,0,0,1,2-.74,1.6,1.6,0,0,1,1.69,1.79v2.47c0,1,0,1.18.54,1.25l.32.05a.25.25,0,0,1,0,.36c-.43,0-.85-.05-1.35-.05s-.95,0-1.34.05a.25.25,0,0,1,0-.36l.27-.05c.54-.08.55-.21.55-1.25V16.07a1.25,1.25,0,0,0-1.35-1.43,1.54,1.54,0,0,0-1.22.51A1.18,1.18,0,0,0,188,16v2.2c0,1,0,1.17.55,1.25l.26.05a.25.25,0,0,1,0,.36c-.39,0-.81-.05-1.31-.05s-.95,0-1.36.05a.25.25,0,0,1,0-.36l.3-.05c.53-.07.55-.21.55-1.25Z" fill="#231f20" stroke="#fff" stroke-width="0.03"/>
    <path d="M195.06,14.76c-.24,0-.26,0-.26.34v2.7c0,.83.1,1.59,1,1.59a1.13,1.13,0,0,0,.39-.07c.13,0,.32-.2.36-.2s.17.16.15.24a2,2,0,0,1-1.52.66c-1.23,0-1.49-.69-1.49-1.55V15.18c0-.39,0-.42-.3-.42H193a.24.24,0,0,1,0-.3,2.77,2.77,0,0,0,.92-.45,3.29,3.29,0,0,0,.6-.85c.08,0,.25,0,.31.07v.65c0,.26,0,.27.26.27h1.59a.46.46,0,0,1,0,.61Z" fill="#231f20"/>
    <path d="M195.06,14.76c-.24,0-.26,0-.26.34v2.7c0,.83.1,1.59,1,1.59a1.13,1.13,0,0,0,.39-.07c.13,0,.32-.2.36-.2s.17.16.15.24a2,2,0,0,1-1.52.66c-1.23,0-1.49-.69-1.49-1.55V15.18c0-.39,0-.42-.3-.42H193a.24.24,0,0,1,0-.3,2.77,2.77,0,0,0,.92-.45,3.29,3.29,0,0,0,.6-.85c.08,0,.25,0,.31.07v.65c0,.26,0,.27.26.27h1.59a.46.46,0,0,1,0,.61Z" fill="#231f20" stroke="#fff" stroke-width="0.03"/>
  </g>
</svg>
