<svg id="Layer_1" data-name="Layer 1" xmlns="http://www.w3.org/2000/svg" viewBox="0 0 205.59 76.46">
  <g>
    <path d="M102.38,49.87a14.58,14.58,0,0,0,14.37-12.32h7.08V33.11h-7.08a14.26,14.26,0,0,0-1.43-4.38,14.39,14.39,0,0,0,1.6-6.6A14.54,14.54,0,0,0,88,19.91H80.69v4.43H88a14.58,14.58,0,0,0,1.42,4.39,14.53,14.53,0,0,0,12.95,21.14Zm9.91-25.16a14.49,14.49,0,0,0-19.82,0,10,10,0,0,1-.33-2.58,10.24,10.24,0,1,1,20.48,0,10,10,0,0,1-.33,2.58Zm-9.91,11.95a14.48,14.48,0,0,0,9.91-3.92,10.1,10.1,0,0,1,.33,2.59,10.24,10.24,0,0,1-20.48,0,10,10,0,0,1,.33-2.58,14.52,14.52,0,0,0,9.91,3.91Zm0-4.29a10.24,10.24,0,0,0,7.82-3.64,10.22,10.22,0,0,0-15.64,0,10.24,10.24,0,0,0,7.82,3.64Z" fill="#231f20" fill-rule="evenodd"/>
    <path d="M9.76,68.1a.44.44,0,0,0,.05.23.45.45,0,0,0,.21.11v.15H8.64v-.15a.34.34,0,0,0,.2-.1.49.49,0,0,0,0-.24V62.74c0-.12,0-.2-.05-.24a.31.31,0,0,0-.19-.12v-.13h4.63a.3.3,0,0,0,.2-.06.54.54,0,0,0,.11-.24h.12v1.36h-.11a.49.49,0,0,0-.11-.23.3.3,0,0,0-.2,0H9.76v1.9h2.31a.32.32,0,0,0,.22-.06.54.54,0,0,0,.11-.22h.11V66H12.4a.5.5,0,0,0-.1-.23.36.36,0,0,0-.21,0H9.76V68.1Zm9.82.6a3,3,0,0,1-2.26-.94,3.53,3.53,0,0,1,0-4.69,3.22,3.22,0,0,1,4.53,0,3.55,3.55,0,0,1,0,4.69,3,3,0,0,1-2.26.94Zm-2.25-3.28A2.46,2.46,0,0,0,18,67.17a2.14,2.14,0,0,0,1.64.66,2.08,2.08,0,0,0,1.62-.67,2.45,2.45,0,0,0,.61-1.74,2.4,2.4,0,0,0-.62-1.73A2.07,2.07,0,0,0,19.58,63a2.12,2.12,0,0,0-1.63.67,2.44,2.44,0,0,0-.62,1.73Zm13.2,3.17v-.15a.35.35,0,0,0,.15-.08.19.19,0,0,0,.05-.14.28.28,0,0,0,0-.09l0-.09L27,63.29V68.1a.36.36,0,0,0,.05.23.4.4,0,0,0,.2.11v.15H26v-.15a.31.31,0,0,0,.2-.1.48.48,0,0,0,.05-.24V62.74a.43.43,0,0,0-.05-.24.34.34,0,0,0-.2-.12v-.13h1.89v.13a.49.49,0,0,0-.15.09.25.25,0,0,0-.05.15.16.16,0,0,0,0,.1.14.14,0,0,0,.05.08l3.3,4.13V62.74c0-.12,0-.2-.05-.24a.31.31,0,0,0-.19-.12v-.13H32v.13a.38.38,0,0,0-.2.12.43.43,0,0,0-.05.24V68.1a.48.48,0,0,0,.05.24.34.34,0,0,0,.2.1v.15ZM36.93,63v4.76h1.8a2.17,2.17,0,0,0,1.67-.61A2.48,2.48,0,0,0,41,65.4a2.43,2.43,0,0,0-.58-1.76A2.16,2.16,0,0,0,38.73,63Zm-1.12,5.57v-.15a.34.34,0,0,0,.2-.1.49.49,0,0,0,0-.24V62.74c0-.12,0-.2,0-.24a.31.31,0,0,0-.19-.12v-.13h2.6a5.69,5.69,0,0,1,1.55.16,2.42,2.42,0,0,1,1,.55,2.58,2.58,0,0,1,.66,1,4.47,4.47,0,0,1,0,2.83,2.55,2.55,0,0,1-.66,1,2.42,2.42,0,0,1-1,.55,5.69,5.69,0,0,1-1.55.16Zm10.56-2.52h2.24l-1.13-2.78-1.11,2.78Zm-2,2.52v-.15a.66.66,0,0,0,.27-.17,1.3,1.3,0,0,0,.18-.32l2-5a1,1,0,0,0,.08-.21.3.3,0,0,0,0-.12.2.2,0,0,0,0-.11.24.24,0,0,0-.11-.09v-.13h1.52v.13a.21.21,0,0,0-.1.08.28.28,0,0,0,0,.12.78.78,0,0,0,0,.14,2.05,2.05,0,0,0,.08.19l2.06,5a1.22,1.22,0,0,0,.21.36.66.66,0,0,0,.27.21v.15H49.33v-.15a.21.21,0,0,0,.1-.08.15.15,0,0,0,0-.11.52.52,0,0,0,0-.11,1.59,1.59,0,0,0-.08-.21l-.41-1H46.05l-.39,1,0,0a.84.84,0,0,0-.08.29.2.2,0,0,0,0,.11.27.27,0,0,0,.1.08v.15Zm9.48-5.54c-.1,0-.18,0-.21.05a.53.53,0,0,0-.12.22h-.12V62h.12a.49.49,0,0,0,.11.23.29.29,0,0,0,.21.06H58.5v.13l-3.61,5.41H58a.3.3,0,0,0,.21-.05.5.5,0,0,0,.1-.22h.13v1.35h-.12a.5.5,0,0,0-.1-.23.36.36,0,0,0-.21,0H53.42v-.23L57,63.05Zm8,5.54v-.15a.34.34,0,0,0,.2-.1.49.49,0,0,0,0-.24V62.74c0-.12,0-.2,0-.24a.31.31,0,0,0-.19-.12v-.13h1.38v.13a.38.38,0,0,0-.2.12.43.43,0,0,0-.05.24V68.1a.48.48,0,0,0,.05.24.34.34,0,0,0,.2.1v.15Zm7.86.11a3,3,0,0,1-2.26-.94,3.55,3.55,0,0,1,0-4.69,3.22,3.22,0,0,1,4.53,0,3.53,3.53,0,0,1,0,4.69,3,3,0,0,1-2.26.94Zm-2.25-3.28a2.46,2.46,0,0,0,.61,1.75,2.15,2.15,0,0,0,1.65.66,2.08,2.08,0,0,0,1.61-.67,2.77,2.77,0,0,0,0-3.47,2.31,2.31,0,0,0-3.25,0,2.4,2.4,0,0,0-.62,1.73Zm13.19,3.17v-.15a.48.48,0,0,0,.16-.08.23.23,0,0,0,0-.14.28.28,0,0,0,0-.09.26.26,0,0,0-.05-.09l-3.69-4.75V68.1a.44.44,0,0,0,.05.23.4.4,0,0,0,.21.11v.15h-1.2v-.15a.31.31,0,0,0,.19-.1.39.39,0,0,0,.05-.24V62.74c0-.12,0-.2-.05-.24a.35.35,0,0,0-.19-.12v-.13h1.88v.13a.49.49,0,0,0-.15.09.25.25,0,0,0,0,.15.3.3,0,0,0,0,.1.22.22,0,0,0,0,.08l3.31,4.13V62.74a.43.43,0,0,0,0-.24.34.34,0,0,0-.2-.12v-.13h1.19v.13a.31.31,0,0,0-.19.12s0,.12,0,.24V68.1a.49.49,0,0,0,0,.24.34.34,0,0,0,.2.1v.15Zm10-.8a.3.3,0,0,0,.21-.05.49.49,0,0,0,.11-.22h.12v1.35H91a.41.41,0,0,0-.1-.23.36.36,0,0,0-.21,0H86v-.15a.34.34,0,0,0,.2-.1.48.48,0,0,0,0-.24V62.74a.43.43,0,0,0,0-.24.34.34,0,0,0-.2-.12v-.13h4.47a.25.25,0,0,0,.21-.07.38.38,0,0,0,.1-.23h.12v1.36h-.12a.35.35,0,0,0-.08-.22.32.32,0,0,0-.22-.06H87.1v1.9h2.2a.36.36,0,0,0,.21-.05.49.49,0,0,0,.11-.22h.12V66h-.12a.5.5,0,0,0-.1-.22.34.34,0,0,0-.21,0H87.1v2.06Zm15.82,0c.11,0,.18,0,.22-.05a.87.87,0,0,0,.11-.22h.11v1.35h-.11a.5.5,0,0,0-.1-.23.36.36,0,0,0-.21,0H101.8v-.15a.34.34,0,0,0,.19-.1.39.39,0,0,0,.05-.24V62.74c0-.12,0-.2-.05-.24a.35.35,0,0,0-.19-.12v-.13h4.46a.25.25,0,0,0,.21-.07.45.45,0,0,0,.11-.23h.12v1.36h-.12a.41.41,0,0,0-.09-.22.3.3,0,0,0-.22-.06h-3.35v1.9h2.21a.34.34,0,0,0,.2-.05.41.41,0,0,0,.11-.22h.12V66h-.12a.41.41,0,0,0-.1-.22.3.3,0,0,0-.2,0h-2.22v2.06Zm6.85-5.54a2.64,2.64,0,0,1,1.69.48,1.63,1.63,0,0,1,.6,1.35,1.75,1.75,0,0,1-.33,1.09,1.58,1.58,0,0,1-.94.59l.75,1.38c.47.87.77,1.3.9,1.3h0v.15h-1.49v-.15h0a.21.21,0,0,0,.12,0,.14.14,0,0,0,0-.11.16.16,0,0,0,0-.08l0,0-1.28-2.33h-1.93V68.1a.39.39,0,0,0,0,.24.4.4,0,0,0,.2.11v.14h-1.38v-.14a.46.46,0,0,0,.2-.11.48.48,0,0,0,0-.24V62.74a.43.43,0,0,0,0-.24.38.38,0,0,0-.2-.12v-.13Zm-.24.88h-1.59V65h1.64a2.64,2.64,0,0,0,1.25-.23.76.76,0,0,0,.39-.71.75.75,0,0,0-.39-.7,2.92,2.92,0,0,0-1.3-.21Zm10.68,5.46v-.15a.35.35,0,0,0,.15-.08.19.19,0,0,0,0-.14.28.28,0,0,0,0-.09.26.26,0,0,0,0-.09l-3.69-4.75V68.1a.44.44,0,0,0,0,.23.4.4,0,0,0,.2.11v.15h-1.19v-.15a.31.31,0,0,0,.19-.1.48.48,0,0,0,0-.24V62.74a.43.43,0,0,0,0-.24.35.35,0,0,0-.19-.12v-.13h1.88v.13a.49.49,0,0,0-.15.09.25.25,0,0,0,0,.15.3.3,0,0,0,0,.1.22.22,0,0,0,.05.08l3.3,4.13V62.74c0-.12,0-.2,0-.24a.31.31,0,0,0-.19-.12v-.13h1.19v.13a.38.38,0,0,0-.2.12.43.43,0,0,0,0,.24V68.1a.48.48,0,0,0,0,.24.34.34,0,0,0,.2.1v.15Zm10-.8a.3.3,0,0,0,.21-.05.49.49,0,0,0,.11-.22h.12v1.35h-.12a.5.5,0,0,0-.1-.23.36.36,0,0,0-.21,0h-4.71v-.15a.37.37,0,0,0,.2-.1.48.48,0,0,0,0-.24V62.74a.43.43,0,0,0,0-.24.38.38,0,0,0-.2-.12v-.13h4.47a.28.28,0,0,0,.21-.07.45.45,0,0,0,.1-.23H134v1.36h-.12a.3.3,0,0,0-.09-.22.29.29,0,0,0-.21-.06H130.2v1.9h2.2a.36.36,0,0,0,.21-.05.49.49,0,0,0,.11-.22h.12V66h-.12a.5.5,0,0,0-.1-.22.36.36,0,0,0-.21,0H130.2v2.06Zm3.41.1-.11-.07.8-1.32.09.08,0,.13a.31.31,0,0,0,0,.09c0,.18.23.39.69.65a2.94,2.94,0,0,0,1.47.39,2.43,2.43,0,0,0,1.32-.32,1,1,0,0,0,.5-.84.68.68,0,0,0-.39-.66,3.84,3.84,0,0,0-1.44-.22,4,4,0,0,1-2-.43,1.32,1.32,0,0,1-.58-1.2,1.76,1.76,0,0,1,.74-1.44,3,3,0,0,1,1.91-.58,4.3,4.3,0,0,1,1.77.46,1.31,1.31,0,0,0,.37.13l.1,0a.79.79,0,0,0,.12-.13l.11.08L141.94,64l-.11-.07,0-.06s0,0,0-.06c0-.21-.19-.4-.55-.58a2.81,2.81,0,0,0-1.24-.26,2.29,2.29,0,0,0-1.23.29.87.87,0,0,0-.48.74c0,.48.53.74,1.61.79l.51,0a3.31,3.31,0,0,1,1.75.51,1.5,1.5,0,0,1,.54,1.26A1.83,1.83,0,0,1,142,68.1a3.24,3.24,0,0,1-2,.61,4.23,4.23,0,0,1-2.31-.76,1.08,1.08,0,0,0-.31-.17l-.07,0-.12.09Zm10.38.7v-.15a.31.31,0,0,0,.19-.1.39.39,0,0,0,.05-.24v-5H146a.3.3,0,0,0-.21.05.45.45,0,0,0-.1.22h-.12V62h.12a.49.49,0,0,0,.11.23.29.29,0,0,0,.21.06h4.49a.29.29,0,0,0,.21-.06.59.59,0,0,0,.12-.23H151v1.36h-.11a.45.45,0,0,0-.1-.22s-.11-.05-.22-.05h-1.83v5a.48.48,0,0,0,.05.24.34.34,0,0,0,.2.1v.15Zm9.28.11a3,3,0,0,1-2.26-.94,3.55,3.55,0,0,1,0-4.69,3.22,3.22,0,0,1,4.53,0,3.53,3.53,0,0,1,0,4.69,3,3,0,0,1-2.26.94Zm-2.25-3.28a2.46,2.46,0,0,0,.61,1.75,2.15,2.15,0,0,0,1.65.66,2.08,2.08,0,0,0,1.61-.67,2.74,2.74,0,0,0,0-3.47,2.31,2.31,0,0,0-3.25,0,2.4,2.4,0,0,0-.62,1.73Zm16,3.17v-.15a.37.37,0,0,0,.2-.1.49.49,0,0,0,0-.24V62.74c0-.12,0-.2,0-.24a.31.31,0,0,0-.19-.12v-.13h1.38v.13a.34.34,0,0,0-.2.12.43.43,0,0,0,0,.24V68.1a.48.48,0,0,0,0,.24.34.34,0,0,0,.2.1v.15Zm9.88-.8a.3.3,0,0,0,.21-.05.49.49,0,0,0,.11-.22h.11v1.35h-.11a.5.5,0,0,0-.1-.23.36.36,0,0,0-.21,0h-4.71v-.15a.31.31,0,0,0,.19-.1.39.39,0,0,0,.05-.24V62.74c0-.12,0-.2-.05-.24a.31.31,0,0,0-.19-.12v-.13h1.38v.13a.34.34,0,0,0-.2.12.38.38,0,0,0-.06.24v5.05Zm8.42,0a.3.3,0,0,0,.21-.05.63.63,0,0,0,.11-.22h.11v1.35h-.11a.5.5,0,0,0-.1-.23.36.36,0,0,0-.21,0h-4.71v-.15a.31.31,0,0,0,.19-.1.39.39,0,0,0,0-.24V62.74c0-.12,0-.2,0-.24a.31.31,0,0,0-.19-.12v-.13h1.38v.13a.42.42,0,0,0-.21.12.48.48,0,0,0,0,.24v5.05Zm4.36.8v-.15a.37.37,0,0,0,.21-.1.49.49,0,0,0,0-.24V66l-1.82-2.86a2.3,2.3,0,0,0-.36-.46,1.27,1.27,0,0,0-.36-.26v-.13h1.61v.13a.17.17,0,0,0-.12.06.16.16,0,0,0,0,.11.41.41,0,0,0,0,.15,1,1,0,0,0,.08.18l1.44,2.23,1.43-2.23a.61.61,0,0,0,.09-.18.41.41,0,0,0,0-.15.16.16,0,0,0,0-.11.23.23,0,0,0-.13-.06v-.13H197v.13a1.2,1.2,0,0,0-.34.25,2.64,2.64,0,0,0-.37.47L194.34,66V68.1a.44.44,0,0,0,0,.23.4.4,0,0,0,.21.11v.15Z" fill="#231f20" fill-rule="evenodd"/>
  </g>
</svg>
