<svg id="Layer_1" data-name="Layer 1" xmlns="http://www.w3.org/2000/svg" viewBox="0 0 204 46">
  <g>
    <path d="M35,6.43l.75,9.71H34c-.76-3.51-1.47-4.54-2.83-5.86a10.47,10.47,0,0,0-7.57-2.84,10.79,10.79,0,0,0-9.59,5,17.82,17.82,0,0,0-2.75,10A19.94,19.94,0,0,0,13.08,31a12.82,12.82,0,0,0,4.81,5.69A11.54,11.54,0,0,0,24,38.52a13.5,13.5,0,0,0,3.55-.45,14.62,14.62,0,0,0,3.3-1.33V29.49a5.45,5.45,0,0,0-.38-2.69,2.61,2.61,0,0,0-1.17-1.22,6.44,6.44,0,0,0-2.8-.42V23.31H39.37v1.85h-.63a2.79,2.79,0,0,0-2.69,1.32,5.42,5.42,0,0,0-.51,3v7.89A25.42,25.42,0,0,1,30,39.57a24.74,24.74,0,0,1-6.07.7q-9.57,0-14.54-6.14A16.42,16.42,0,0,1,5.67,23.49a17.75,17.75,0,0,1,2.1-8.36,18,18,0,0,1,6.84-7.32,16.84,16.84,0,0,1,8.6-2.11A16.47,16.47,0,0,1,26.49,6a28.4,28.4,0,0,1,4.19,1.29,14.38,14.38,0,0,0,1.36.5,1.16,1.16,0,0,0,1.18-.35,2,2,0,0,0,.24-1Z" fill="#231f20"/>
    <path d="M54.94,6.42,43.51,32.89a11.17,11.17,0,0,1-2.64,4.22,4.91,4.91,0,0,1-2.82,1.08v1.38H48.54V38.19a5.92,5.92,0,0,1-3.1-.7,1.63,1.63,0,0,1-.74-1.39,6.56,6.56,0,0,1,.83-2.41l2.23-5.18H60.68l2,4.77c.65,1.54,1,2.14,1,2.85A1.69,1.69,0,0,1,63,37.5a5,5,0,0,1-2.71.62v1.45h39l2.87-9-1.62-.28a16.67,16.67,0,0,1-2.54,4.5,7.14,7.14,0,0,1-2.82,2,11.39,11.39,0,0,1-4.54.67H88.14a16.21,16.21,0,0,1-3.82-.24,1.77,1.77,0,0,1-.91-.76,6.89,6.89,0,0,1-.39-2.8V12.75c0-2,.13-2.29.38-2.81a3,3,0,0,1,1.44-1.28,8.89,8.89,0,0,1,3.67-.52V6.43h-15V8.14h1.25a3.61,3.61,0,0,1,2.85,1.13c.46.53.69.93.69,3V33.65c0,1.92-.18,2.69-.52,3.22-.6.91-2.71,1.11-4.14,1.15a5.56,5.56,0,0,1-3.39-.88,9.87,9.87,0,0,1-2.54-3.91L56.65,6.43ZM48.69,26l5.68-12.81L60,26Z" fill="#231f20"/>
    <path d="M130.36,30.17l1.68.43-2.87,9H103.48V38h1.25a3.36,3.36,0,0,0,3-1.39c.34-.53.51-1,.51-2.92V12.31c0-2.11-.22-2.54-.68-3.07a3.59,3.59,0,0,0-2.85-1.1h-1.25V6.43h15V8.14a8.78,8.78,0,0,0-3.66.49,2.89,2.89,0,0,0-1.43,1.28c-.26.52-.39.88-.39,2.84V33.68a6.89,6.89,0,0,0,.39,2.8,1.77,1.77,0,0,0,.91.76,16.21,16.21,0,0,0,3.82.24h2.43a10.14,10.14,0,0,0,4.47-.82,7,7,0,0,0,2.82-2A16.23,16.23,0,0,0,130.36,30.17Z" fill="#231f20"/>
    <path d="M164.47,6.43h-11V8.15h1.25a3.59,3.59,0,0,1,2.85,1.1c.45.52.69,1,.69,3.09V25.72q0,5.25-1,7.46a7.55,7.55,0,0,1-3.51,3.62A12,12,0,0,1,148,38.21a9.32,9.32,0,0,1-4.29-.9A6.91,6.91,0,0,1,141,35a9.34,9.34,0,0,1-1.29-3.87,32.64,32.64,0,0,1-.35-4.41V12.34c0-1.89.19-2.27.61-2.87a3.22,3.22,0,0,1,2.91-1.32h1.26V6.43H129.9V8.15h1.24a3.38,3.38,0,0,1,2.71,1c.57.65.84,1.15.84,3.22V25.25q0,6,.79,8.14a10.11,10.11,0,0,0,4,5c1.88,1.24,4.63,1.87,8.25,1.87a13.86,13.86,0,0,0,7.88-2,9.72,9.72,0,0,0,3.89-4.71,23.52,23.52,0,0,0,1-7.7V12.52c0-1.86.19-2.52.81-3.26A3.56,3.56,0,0,1,164,8.15h2.49a3.29,3.29,0,0,1,2.7,1.06c.5.56.83,1,.83,3.13V33.68c0,1.93-.17,2.41-.5,2.92a3.34,3.34,0,0,1-3,1.4h-1.26v1.57h14.29V38h-1.28a3.52,3.52,0,0,1-2.83-1.07c-.46-.51-.69-1.12-.69-3.25v-9c1.23.14,2.21.18,3.07.21s1.33.05,2.25,0a14.48,14.48,0,0,0,8.08-2.42,8.15,8.15,0,0,0,3.32-6.66,8.83,8.83,0,0,0-2-5.85,8.62,8.62,0,0,0-4.17-2.83,29.82,29.82,0,0,0-8-.71Zm19.19,15.41a8.84,8.84,0,0,1-4.25,1.39,18.44,18.44,0,0,1-2.46,0,15.25,15.25,0,0,1-2.23-.26V8.66a19,19,0,0,1,3.19-.29,13.81,13.81,0,0,1,4,.44,6.06,6.06,0,0,1,3.37,2.34,7.25,7.25,0,0,1,1.43,4.73A7.31,7.31,0,0,1,183.66,21.84Z" fill="#231f20"/>
    <path d="M197.49,11.28a2.87,2.87,0,0,1-4,0,2.77,2.77,0,0,1-.82-2,2.85,2.85,0,0,1,5.7,0A2.76,2.76,0,0,1,197.49,11.28Zm-3.76-3.75a2.45,2.45,0,0,0,0,3.47,2.3,2.3,0,0,0,1.73.73,2.35,2.35,0,0,0,1.75-.73,2.47,2.47,0,0,0,0-3.47,2.41,2.41,0,0,0-1.75-.72A2.36,2.36,0,0,0,193.73,7.53Zm1.69.15a2.31,2.31,0,0,1,.86.12.77.77,0,0,1,.48.79.67.67,0,0,1-.3.61,1.38,1.38,0,0,1-.45.16.73.73,0,0,1,.53.3.91.91,0,0,1,.17.49v.46a1.09,1.09,0,0,0,0,.17l0,0h-.51s0,0,0,0a0,0,0,0,1,0,0V10.4q0-.56-.3-.72a1.26,1.26,0,0,0-.61-.1h-.44v1.24h-.55V7.68Zm.6.51a1.42,1.42,0,0,0-.68-.12h-.47V9.19h.5a1.44,1.44,0,0,0,.53-.07.47.47,0,0,0,.33-.48A.45.45,0,0,0,196,8.19Z" fill="#231f20"/>
  </g>
</svg>
