<?xml version="1.0" encoding="UTF-8"?>
<svg id="Layer_1" data-name="Layer 1" xmlns="http://www.w3.org/2000/svg" viewBox="0 0 122.14 77.96">
  <defs>
    <style>
      .cls-1 {
        fill: #231916;
        stroke-width: 0px;
      }
    </style>
  </defs>
  <g>
    <circle class="cls-1" cx="59.72" cy="37.92" r="3.36"/>
    <path class="cls-1" d="M118.5,52.44c-.17-1.34-1.39-2.28-2.73-2.11-5.09.65-6.68,1.56-15.21.85.26-.75.17-2.7-.35-3.82-.64-1.37-1.97-2.41-3.27-3.04-1.32-.63-3.25-.58-4.27-.12-.59-.34-1.28-.42-1.9-.24-1.4.39-3.4,1.1-5.4,3.52-.67.81-1.51,2.44-1.87,3.61-.88,1.12-2.59,2.33-3.59,2.82-1.38.67-5.25,2.16-6.8.82-.7-.6-1.05-1.36-.9-2.26.15-.95.55-1.81,1.41-2.46,1.33-1.02,2.7-.29,4.07.05.2.05.38.07.59.07,1.39,0,2.52-1.13,2.52-2.52,0-1.07-.69-1.9-1.6-2.35-2.82-1.38-6.09-1.25-8.9.87-2.06,1.56-3.06,3.87-3.16,6.23-2.74,2.25-4.24,2.77-5.42,1.77-1.62-1.36-.31-4.57-.23-6.58,0-.11.02-.22.02-.33,0-1.34-1.09-2.43-2.43-2.43-1.12,0-2.05.75-2.34,1.78-.85,3.07-2.94,7.95-6.32,7.95-1.23,0-2.17-.43-2.95-1.15,6.6-8.54,5.64-13.99,5.32-16.37-.46-3.36-2.63-5.82-4.73-6.54-2.21-.75-4.6,0-6.08,1.56-4.36,4.58-3.91,14.16-.94,20.68-.04.04-.07.07-.11.11-2.92,2.91-7.1,4.39-10.94,5.78,0-.04,0-.08,0-.11-.04-2.53,1.58-9.91,1.95-12.15.03-.14.03-.31.03-.46,0-1.48-1.2-2.68-2.67-2.68-1.1,0-2.05.68-2.46,1.63-.62,1.43-.87,3.4-1.61,4.83-1.86,3.56-5.57,5.96-9.69,5.87-2.36-.05-4.63-1.24-5.77-3.41-2.01-3.82-.76-8.76,1.81-11.95,2.06-2.56,5.18-4,8.48-3.41,1.93.34,2.92,1.73,3.98,2.53.45.34,1.03.57,1.64.57,1.5,0,2.72-1.22,2.72-2.72,0-.66-.2-1.27-.63-1.73-.81-.87-1.49-1.43-2.61-2.05-3.82-2.14-8.19-2.28-11.87-.76-6.33,2.61-10.03,9.45-9.59,16.06.3,4.52,2.79,9.04,7.13,10.95,4.57,2.01,10.34.8,14.11-1.81,0,0-.1,1.92-.15,2.96-3.95,2.05-6.06,4.67-5.97,8.34.05,2.26,1.66,4.46,3.76,5.22,2.21.8,4.75.13,6.43-1.35,2.61-2.3,1.86-5.63,1.36-9.02,4.23-1.67,9.63-3.4,13.66-6.79,1.12,1.06,2.36,1.73,3.61,2.1,3.47,1.04,7.08-.15,9.59-2.71.7,1.05,1.85,2.25,3.06,2.68,2.86,1,6.18.08,8.39-1.62.95.95,1.79,1.77,3.01,2.21,4.32,1.56,8.48-.9,12.2-2.71.96,1.26,2.28,2.1,3.72,2.46,3.97,1,7.93-.65,10.64-3.41,11.22.85,17.21-.83,18.19-.98,1.33-.2,2.28-1.39,2.11-2.73ZM25.35,69.3c-.35.25-.7.25-1.05.05-.47-.27-.3-.8-.2-1.15.3-.65.74-1.34,1.36-1.81.16.89.6,2.11-.1,2.91ZM45.13,36.22c.64-1.06,1.96-.65,2.21.25.87,3.13.41,7.4-2.5,11.81-.95-3.71-1.43-9.21.29-12.06ZM88.26,54.24c-1.03-.9.8-3.06.8-3.06.45,1.21,1.16,2.61,2.46,3.21-.85.35-2.46.55-3.26-.15ZM95.39,50.73c-.6-.15-1.21-.3-1.51-.9-.2-.4.05-.95.5-1,.55-.05,1.07.19,1.31.7.17.37-.05.85-.3,1.2Z"/>
  </g>
  <g>
    <path class="cls-1" d="M22.88,3.29h1.33v3.11h3.45v-3.11h1.33v7.81h-1.33v-3.52h-3.45v3.52h-1.33V3.29Z"/>
    <path class="cls-1" d="M31.51,8.6c0,.22.03.43.09.64.06.2.15.38.27.54.12.15.27.28.46.37.18.09.4.14.66.14.35,0,.64-.08.85-.24s.38-.39.48-.71h1.15c-.06.31-.17.58-.33.82-.16.24-.34.44-.56.61-.22.16-.47.29-.74.37-.27.08-.56.13-.85.13-.43,0-.81-.07-1.15-.22-.33-.15-.61-.35-.84-.61s-.4-.58-.52-.94c-.12-.36-.18-.77-.18-1.2,0-.4.06-.78.19-1.14.12-.36.3-.68.53-.95.23-.27.51-.49.83-.65.33-.16.69-.24,1.1-.24.43,0,.82.09,1.16.28.34.19.63.43.85.74.23.31.39.66.49,1.06s.13.81.08,1.23h-4.03ZM34.34,7.78c-.01-.2-.05-.39-.12-.57-.07-.18-.16-.34-.28-.48-.12-.14-.26-.24-.42-.33-.17-.08-.35-.13-.56-.13s-.41.04-.58.12c-.17.08-.32.18-.45.32-.12.14-.22.29-.3.48-.07.18-.12.38-.12.59h2.82Z"/>
    <path class="cls-1" d="M41.62,9.85c0,.15.02.26.06.33.04.07.11.1.23.1h.13s.11,0,.17-.02v.86s-.1.03-.16.05c-.07.02-.14.03-.21.05-.07.01-.14.03-.21.03-.07,0-.13.01-.18.01-.25,0-.45-.05-.62-.15s-.27-.28-.32-.54c-.24.24-.54.42-.89.53-.35.11-.69.16-1.01.16-.25,0-.48-.03-.71-.1-.23-.07-.43-.17-.6-.31-.17-.14-.31-.31-.41-.51-.1-.21-.15-.45-.15-.73,0-.35.06-.63.19-.85.12-.22.29-.39.49-.51.2-.12.43-.21.68-.27.25-.05.5-.1.76-.13.22-.04.43-.07.63-.09.2-.02.37-.05.53-.09.15-.04.27-.11.36-.2.09-.09.13-.23.13-.41,0-.16-.04-.29-.11-.39-.07-.1-.17-.18-.28-.24-.11-.05-.23-.09-.37-.11-.13-.02-.26-.03-.38-.03-.34,0-.62.07-.84.22s-.34.37-.37.68h-1.21c.02-.37.11-.67.25-.91.15-.24.34-.43.57-.58s.49-.25.78-.31.59-.09.89-.09c.27,0,.53.03.8.09s.5.15.71.28c.21.13.38.3.5.51.13.21.19.46.19.76v2.91ZM40.41,8.27c-.18.12-.41.2-.68.22-.27.03-.54.06-.81.11-.13.02-.25.05-.37.09-.12.04-.23.09-.32.16-.09.07-.16.16-.22.27-.05.11-.08.25-.08.41,0,.14.04.26.12.35.08.09.17.17.28.22.11.05.23.09.36.11.13.02.25.03.36.03.13,0,.28-.02.44-.05.16-.04.3-.1.44-.19.14-.09.25-.2.35-.33.09-.14.14-.3.14-.5v-.93Z"/>
    <path class="cls-1" d="M43.65,3.29h1.21v7.81h-1.21V3.29Z"/>
    <path class="cls-1" d="M46.42,5.45h.91v-1.7h1.21v1.7h1.09v.93h-1.09v3.02c0,.13,0,.24.02.34.01.09.04.18.07.24.04.07.1.11.18.15.08.03.18.05.32.05.08,0,.17,0,.25,0,.09,0,.17-.02.26-.04v.96c-.13.01-.27.03-.39.04-.13.01-.26.02-.39.02-.32,0-.58-.03-.77-.09-.19-.06-.35-.15-.46-.27-.11-.12-.18-.27-.22-.45-.04-.18-.06-.39-.07-.62v-3.34h-.91v-.93Z"/>
    <path class="cls-1" d="M51.3,3.29h1.21v2.9h.02c.15-.26.37-.47.66-.64.29-.17.62-.26.98-.26.6,0,1.08.16,1.42.48.35.32.52.8.52,1.44v3.89h-1.21v-3.56c-.01-.45-.11-.77-.28-.97-.17-.2-.44-.3-.8-.3-.21,0-.39.04-.55.12-.16.08-.3.18-.41.32s-.2.29-.27.48c-.06.18-.1.38-.1.58v3.34h-1.21V3.29Z"/>
    <path class="cls-1" d="M57.87,3.29h1.21v1.18h-1.21v-1.18ZM57.87,5.45h1.21v5.66h-1.21v-5.66Z"/>
    <path class="cls-1" d="M61.8,8.6c0,.22.03.43.09.64.06.2.15.38.27.54s.27.28.46.37c.18.09.4.14.66.14.35,0,.64-.08.85-.24.22-.16.38-.39.48-.71h1.15c-.06.31-.17.58-.33.82-.16.24-.34.44-.56.61s-.47.29-.74.37c-.27.08-.56.13-.85.13-.43,0-.81-.07-1.15-.22-.33-.15-.61-.35-.84-.61s-.4-.58-.52-.94c-.12-.36-.18-.77-.18-1.2,0-.4.06-.78.19-1.14.12-.36.3-.68.53-.95s.51-.49.83-.65c.33-.16.69-.24,1.1-.24.43,0,.82.09,1.16.28s.63.43.85.74.39.66.49,1.06c.1.4.13.81.08,1.23h-4.03ZM64.62,7.78c-.01-.2-.05-.39-.12-.57-.07-.18-.16-.34-.28-.48-.12-.14-.26-.24-.42-.33-.17-.08-.35-.13-.56-.13s-.41.04-.58.12c-.17.08-.32.18-.45.32-.12.14-.22.29-.3.48-.07.18-.12.38-.12.59h2.82Z"/>
    <path class="cls-1" d="M67.29,5.45h1.14v1.09h.02c.04-.15.1-.3.21-.45.1-.15.23-.28.37-.4.14-.12.31-.22.48-.29s.36-.11.54-.11c.14,0,.24,0,.29.01.05,0,.11.01.16.02v1.2c-.08-.01-.17-.03-.26-.04-.09-.01-.18-.02-.26-.02-.21,0-.4.04-.58.13-.18.08-.34.21-.47.37-.13.16-.24.37-.32.61-.08.24-.12.52-.12.83v2.69h-1.21v-5.66Z"/>
    <path class="cls-1" d="M80.21,11.1h-1.15v-.77h-.02c-.16.33-.4.56-.71.71-.31.14-.64.21-.99.21-.43,0-.81-.08-1.13-.24-.32-.16-.59-.37-.8-.64-.21-.27-.37-.59-.48-.96-.11-.37-.16-.76-.16-1.19,0-.51.07-.95.2-1.32.13-.37.31-.68.54-.92.22-.24.48-.42.76-.53.29-.11.58-.17.88-.17.17,0,.34.02.52.05.18.03.35.09.51.16s.31.17.45.28.25.25.35.4h.02v-2.89h1.21v7.81ZM75.98,8.34c0,.24.03.48.09.71s.15.44.28.62c.12.18.28.33.47.44.19.11.42.16.68.16s.5-.06.7-.18c.19-.12.35-.27.48-.46.12-.19.22-.4.28-.64s.09-.48.09-.73c0-.63-.14-1.12-.41-1.47-.27-.35-.64-.53-1.11-.53-.28,0-.52.06-.72.18-.19.12-.35.28-.48.47-.12.19-.21.41-.27.66s-.08.49-.08.75Z"/>
    <path class="cls-1" d="M86.6,9.85c0,.15.02.26.06.33.04.07.11.1.23.1h.13s.11,0,.17-.02v.86s-.1.03-.16.05c-.07.02-.14.03-.21.05-.07.01-.14.03-.21.03-.07,0-.13.01-.18.01-.25,0-.45-.05-.62-.15s-.27-.28-.32-.54c-.24.24-.54.42-.89.53-.35.11-.69.16-1.01.16-.25,0-.48-.03-.71-.1-.23-.07-.43-.17-.6-.31-.17-.14-.31-.31-.41-.51-.1-.21-.15-.45-.15-.73,0-.35.06-.63.19-.85.12-.22.29-.39.49-.51.2-.12.43-.21.68-.27.25-.05.5-.1.76-.13.22-.04.43-.07.63-.09.2-.02.37-.05.53-.09.15-.04.27-.11.36-.2.09-.09.13-.23.13-.41,0-.16-.04-.29-.11-.39-.07-.1-.17-.18-.28-.24-.11-.05-.23-.09-.37-.11-.13-.02-.26-.03-.38-.03-.34,0-.62.07-.84.22s-.34.37-.37.68h-1.21c.02-.37.11-.67.25-.91.15-.24.34-.43.57-.58s.49-.25.78-.31.59-.09.89-.09c.27,0,.53.03.8.09s.5.15.71.28c.21.13.38.3.5.51.13.21.19.46.19.76v2.91ZM85.39,8.27c-.18.12-.41.2-.68.22-.27.03-.54.06-.81.11-.13.02-.25.05-.37.09-.12.04-.23.09-.32.16-.09.07-.16.16-.22.27-.05.11-.08.25-.08.41,0,.14.04.26.12.35.08.09.17.17.28.22.11.05.23.09.36.11.13.02.25.03.36.03.13,0,.28-.02.44-.05.16-.04.3-.1.44-.19.14-.09.25-.2.35-.33.09-.14.14-.3.14-.5v-.93Z"/>
    <path class="cls-1" d="M87.72,5.45h1.33l1.43,4.22h.02l1.39-4.22h1.26l-2.13,5.96c-.1.26-.2.5-.29.73-.1.23-.21.44-.35.62-.14.18-.31.32-.51.43-.21.11-.47.16-.79.16-.28,0-.56-.02-.84-.07v-1.05c.1.01.19.03.29.05.09.02.19.03.29.03.14,0,.26-.02.35-.05s.17-.09.23-.16c.06-.07.11-.15.15-.25.04-.09.08-.2.12-.33l.14-.44-2.08-5.64Z"/>
    <path class="cls-1" d="M95.23,9.29c.04.37.17.62.4.77s.51.22.84.22c.11,0,.24,0,.39-.03.15-.02.28-.05.41-.1.13-.05.23-.13.31-.22s.12-.23.11-.39-.06-.29-.17-.39c-.11-.1-.24-.18-.41-.25s-.36-.11-.57-.16c-.21-.04-.43-.09-.65-.14-.23-.05-.44-.11-.65-.19-.21-.07-.4-.17-.56-.3s-.3-.28-.4-.48c-.1-.19-.15-.43-.15-.72,0-.31.07-.56.22-.77s.33-.38.55-.5.47-.22.74-.27c.27-.05.53-.08.78-.08.28,0,.55.03.81.09.26.06.49.16.7.3s.38.32.52.54c.14.22.22.49.26.8h-1.26c-.06-.3-.19-.5-.4-.6-.21-.1-.45-.15-.72-.15-.09,0-.19,0-.3.02-.12.01-.23.04-.33.08s-.19.1-.26.18-.11.18-.11.3c0,.15.05.28.15.37.1.09.24.17.4.24s.36.11.57.16c.21.04.43.09.66.14.22.05.43.11.65.19.21.07.4.17.57.3.17.12.3.28.4.47.1.19.15.42.15.7,0,.34-.07.62-.22.85s-.34.42-.58.57-.5.25-.79.32-.58.1-.86.1c-.35,0-.67-.04-.96-.12-.29-.08-.55-.2-.76-.37-.22-.16-.39-.37-.51-.61-.12-.24-.19-.53-.2-.87h1.21Z"/>
    <path class="cls-1" d="M100.24,9.63h1.48v1.48c0,.45-.14.83-.4,1.14-.26.31-.6.5-1.03.59v-.67c.23-.06.41-.19.53-.4.12-.21.17-.43.16-.66h-.73v-1.48Z"/>
    <path class="cls-1" d="M16.35,15.68h1.35l1.37,5.97h.02l1.53-5.97h1.36l1.49,5.97h.02l1.41-5.97h1.35l-2.09,7.81h-1.35l-1.52-5.97h-.02l-1.55,5.97h-1.37l-2-7.81Z"/>
    <path class="cls-1" d="M27.94,20.98c0,.22.03.43.09.64.06.2.15.38.27.54.12.15.27.28.46.37.18.09.4.14.66.14.35,0,.64-.08.85-.24s.38-.39.48-.71h1.15c-.06.31-.17.58-.33.82-.16.24-.34.44-.56.61-.22.16-.47.29-.74.37-.27.08-.56.13-.85.13-.43,0-.81-.07-1.15-.22-.33-.15-.61-.35-.84-.61s-.4-.58-.52-.94c-.12-.36-.18-.77-.18-1.2,0-.4.06-.78.19-1.14.12-.36.3-.68.53-.95.23-.27.51-.49.83-.65.33-.16.69-.24,1.1-.24.43,0,.82.09,1.16.28.34.19.63.43.85.74.23.31.39.66.49,1.06s.13.81.08,1.23h-4.03ZM30.77,20.16c-.01-.2-.05-.39-.12-.57-.07-.18-.16-.34-.28-.48-.12-.14-.26-.24-.42-.33-.17-.08-.35-.13-.56-.13s-.41.04-.58.12c-.17.08-.32.18-.45.32-.12.14-.22.29-.3.48-.07.18-.12.38-.12.59h2.82Z"/>
    <path class="cls-1" d="M33.54,15.68h1.21v7.81h-1.21v-7.81Z"/>
    <path class="cls-1" d="M36.73,15.68h1.21v7.81h-1.21v-7.81Z"/>
    <path class="cls-1" d="M39.98,15.68h1.21v2.89h.02c.08-.14.19-.26.31-.37s.25-.2.4-.28.3-.14.46-.18.32-.06.47-.06c.43,0,.81.08,1.13.24.32.16.59.37.8.65s.37.59.48.96c.11.37.16.76.16,1.17,0,.38-.05.75-.14,1.11-.1.36-.24.67-.44.95-.19.27-.44.49-.74.66-.3.16-.65.25-1.05.25-.18,0-.37-.01-.56-.04-.19-.03-.37-.07-.54-.15s-.32-.17-.46-.28c-.14-.12-.25-.27-.35-.46h-.02v.78h-1.15v-7.81ZM44.21,20.67c0-.26-.03-.5-.1-.74-.06-.24-.16-.45-.29-.64-.13-.19-.29-.34-.48-.45-.19-.11-.41-.17-.66-.17-.51,0-.89.18-1.15.55-.26.37-.39.85-.39,1.46,0,.28.03.55.1.79.07.24.17.45.3.63.13.18.3.31.48.42.19.1.41.15.65.15.28,0,.51-.06.7-.18.19-.12.35-.27.47-.45.12-.19.21-.4.27-.63.05-.24.08-.48.08-.73Z"/>
    <path class="cls-1" d="M47.7,20.98c0,.22.03.43.09.64.06.2.15.38.27.54s.27.28.46.37c.18.09.4.14.66.14.35,0,.64-.08.85-.24.22-.16.38-.39.48-.71h1.15c-.06.31-.17.58-.33.82-.16.24-.34.44-.56.61s-.47.29-.74.37c-.27.08-.56.13-.85.13-.43,0-.81-.07-1.15-.22-.33-.15-.61-.35-.84-.61s-.4-.58-.52-.94c-.12-.36-.18-.77-.18-1.2,0-.4.06-.78.19-1.14.12-.36.3-.68.53-.95s.51-.49.83-.65c.33-.16.69-.24,1.1-.24.43,0,.82.09,1.16.28s.63.43.85.74.39.66.49,1.06c.1.4.13.81.08,1.23h-4.03ZM50.52,20.16c-.01-.2-.05-.39-.12-.57-.07-.18-.16-.34-.28-.48-.12-.14-.26-.24-.42-.33-.17-.08-.35-.13-.56-.13s-.41.04-.58.12c-.17.08-.32.18-.45.32-.12.14-.22.29-.3.48-.07.18-.12.38-.12.59h2.82Z"/>
    <path class="cls-1" d="M53.27,15.68h1.21v1.18h-1.21v-1.18ZM53.27,17.83h1.21v5.66h-1.21v-5.66Z"/>
    <path class="cls-1" d="M56.33,17.83h1.15v.83l.02.02c.18-.31.42-.56.72-.74.3-.18.63-.27.99-.27.6,0,1.08.16,1.42.48.35.32.52.8.52,1.44v3.89h-1.21v-3.56c-.01-.45-.11-.77-.28-.97-.17-.2-.44-.3-.8-.3-.21,0-.39.04-.55.12-.16.08-.3.18-.41.32s-.2.29-.27.48c-.06.18-.1.38-.1.58v3.34h-1.21v-5.66Z"/>
    <path class="cls-1" d="M67.87,23.19c0,.85-.23,1.49-.7,1.91s-1.13.63-2,.63c-.28,0-.55-.03-.83-.09-.28-.06-.53-.16-.76-.3s-.42-.32-.58-.55c-.16-.23-.25-.5-.28-.83h1.21c.04.18.1.32.18.43s.19.2.3.26c.12.06.25.1.39.12.14.02.29.03.45.03.49,0,.85-.12,1.07-.37.23-.25.34-.61.34-1.07v-.86h-.02c-.17.31-.4.56-.7.73-.29.18-.61.26-.95.26-.44,0-.81-.08-1.12-.24s-.56-.37-.76-.65-.35-.59-.44-.95c-.09-.36-.14-.74-.14-1.15,0-.38.06-.74.17-1.08.11-.34.28-.64.49-.9.21-.26.47-.46.78-.62.31-.15.66-.23,1.05-.23.35,0,.66.07.96.22.29.15.51.38.67.71h.02v-.78h1.21v5.36ZM65.18,22.5c.27,0,.5-.06.68-.17.19-.11.34-.26.46-.45.12-.19.2-.4.26-.63.05-.24.08-.48.08-.72s-.03-.47-.08-.7c-.06-.23-.14-.43-.26-.6-.12-.18-.27-.31-.46-.42-.19-.1-.41-.15-.67-.15s-.5.06-.68.18c-.18.12-.33.27-.45.45s-.19.4-.24.63c-.05.24-.07.47-.07.71s.03.46.08.68c.06.22.14.42.26.6.12.18.27.32.45.43.18.11.4.16.65.16Z"/>
    <path class="cls-1" d="M72.72,17.83h.9v-.47c0-.36.04-.65.13-.87s.2-.39.34-.51c.14-.12.3-.2.48-.24s.37-.06.57-.06c.39,0,.67.03.85.08v.97c-.08-.02-.16-.04-.25-.05-.09-.01-.19-.02-.31-.02-.16,0-.3.04-.42.12-.12.08-.18.24-.18.47v.58h1.03v.93h-1.03v4.73h-1.21v-4.73h-.9v-.93Z"/>
    <path class="cls-1" d="M79.52,23.64c-.44,0-.83-.07-1.17-.22-.34-.15-.63-.36-.87-.62s-.42-.58-.54-.94c-.12-.36-.19-.77-.19-1.2s.06-.83.19-1.19c.12-.37.3-.68.54-.94s.53-.47.87-.62c.34-.15.73-.22,1.17-.22s.83.07,1.17.22c.34.15.63.36.87.62.24.26.42.58.54.94.12.36.19.76.19,1.19s-.06.84-.19,1.2c-.12.37-.3.68-.54.94-.24.26-.53.47-.87.62-.34.15-.73.22-1.17.22ZM79.52,22.66c.27,0,.5-.06.7-.18.2-.12.36-.27.49-.46.13-.19.22-.4.28-.64s.09-.48.09-.73-.03-.48-.09-.72c-.06-.24-.15-.45-.28-.64-.13-.19-.29-.34-.49-.45-.2-.12-.43-.18-.7-.18s-.5.06-.7.18c-.2.12-.36.27-.49.45s-.22.4-.28.64c-.06.24-.09.48-.09.72s.03.49.09.73c.06.24.15.45.28.64.13.19.29.34.49.46.2.12.43.18.7.18Z"/>
    <path class="cls-1" d="M83.62,17.83h1.14v1.09h.02c.04-.15.1-.3.21-.45.1-.15.23-.28.37-.4.14-.12.31-.22.48-.29s.36-.11.54-.11c.14,0,.24,0,.29.01.05,0,.11.01.16.02v1.2c-.08-.01-.17-.03-.26-.04-.09-.01-.18-.02-.26-.02-.21,0-.4.04-.58.13-.18.08-.34.21-.47.37-.13.16-.24.37-.32.61-.08.24-.12.52-.12.83v2.69h-1.21v-5.66Z"/>
    <path class="cls-1" d="M91.56,15.68h1.21v7.81h-1.21v-7.81Z"/>
    <path class="cls-1" d="M94.59,15.68h1.21v1.18h-1.21v-1.18ZM94.59,17.83h1.21v5.66h-1.21v-5.66Z"/>
    <path class="cls-1" d="M97.16,17.83h.9v-.47c0-.36.04-.65.13-.87s.2-.39.34-.51c.14-.12.3-.2.48-.24.18-.04.37-.06.57-.06.39,0,.67.03.85.08v.97c-.08-.02-.16-.04-.25-.05s-.19-.02-.31-.02c-.16,0-.3.04-.42.12-.12.08-.18.24-.18.47v.58h1.03v.93h-1.03v4.73h-1.21v-4.73h-.9v-.93Z"/>
    <path class="cls-1" d="M102.21,20.98c0,.22.03.43.09.64.06.2.15.38.27.54s.27.28.46.37c.18.09.4.14.66.14.35,0,.64-.08.85-.24.22-.16.38-.39.48-.71h1.15c-.06.31-.17.58-.33.82-.16.24-.34.44-.56.61s-.47.29-.74.37c-.27.08-.56.13-.85.13-.43,0-.81-.07-1.15-.22-.33-.15-.61-.35-.84-.61s-.4-.58-.52-.94c-.12-.36-.18-.77-.18-1.2,0-.4.06-.78.19-1.14.12-.36.3-.68.53-.95s.51-.49.83-.65c.33-.16.69-.24,1.1-.24.43,0,.82.09,1.16.28s.63.43.85.74.39.66.49,1.06c.1.4.13.81.08,1.23h-4.03ZM105.03,20.16c-.01-.2-.05-.39-.12-.57-.07-.18-.16-.34-.28-.48-.12-.14-.26-.24-.42-.33-.17-.08-.35-.13-.56-.13s-.41.04-.58.12c-.17.08-.32.18-.45.32-.12.14-.22.29-.3.48-.07.18-.12.38-.12.59h2.82Z"/>
  </g>
</svg>