<svg id="Layer_1" data-name="Layer 1" xmlns="http://www.w3.org/2000/svg" viewBox="0 0 98.98 97.8">
  <g>
    <path d="M90.71,90.11H8.28V7.68H90.71ZM67.1,66.54a3,3,0,0,1-.63,1.11A21.35,21.35,0,0,1,64,70.22c-1,.89-2,1.79-3,2.65Q57.4,76,53.53,78.74A29.49,29.49,0,0,1,50.11,81a1.09,1.09,0,0,0-.27.21c-.18.19-.17.39,0,.52a1.26,1.26,0,0,0,.49.18c.32.06.65.06,1,.11A3.51,3.51,0,0,0,53,81.84,22.1,22.1,0,0,0,57,80c1.55-.89,3.08-1.82,4.6-2.77a82.38,82.38,0,0,0,7.69-5.41,51,51,0,0,0,6-5.56,39.24,39.24,0,0,0,3.86-5,41,41,0,0,0,3.11-5.72,45.71,45.71,0,0,0,2-5.41c.35-1.17.63-2.36,1-3.53a2.19,2.19,0,0,0-.44-2.11A16.52,16.52,0,0,0,83,42.5c-.4-.35-.81-.7-1.23-1a.73.73,0,0,0-1,0,4,4,0,0,0-.62.54,10.43,10.43,0,0,0-1.34,1.91c-.93,1.61-1.83,3.24-2.79,4.83a66,66,0,0,1-5.59,7.91,22.1,22.1,0,0,1-3.6,3.57c-.48.37-1,.69-1.5,1a.63.63,0,0,1-.75,0,.66.66,0,0,1-.28-.73,4.46,4.46,0,0,1,.25-1c.51-1.07,1-2.16,1.59-3.18.85-1.44,1.79-2.83,2.69-4.23a47.54,47.54,0,0,0,3.09-5.3,10.64,10.64,0,0,0,.82-2.25,2.46,2.46,0,0,0-.36-2,17.38,17.38,0,0,0-2-2.6,4.9,4.9,0,0,0-1.53-1.14,1.6,1.6,0,0,0-2.15.46l-.06.08a32.48,32.48,0,0,0-2.71,3.88c-1.06,1.69-2,3.41-3,5.17a50.84,50.84,0,0,0-2.57,5.37A40.63,40.63,0,0,0,56.12,61,8.87,8.87,0,0,0,56,62.3a3.33,3.33,0,0,0,.4,1.6,12.12,12.12,0,0,0,3,3.8,3,3,0,0,0,2.63.68,14.77,14.77,0,0,0,3.61-1.16C66.1,67,66.56,66.79,67.1,66.54ZM42.3,65.2A4.19,4.19,0,0,0,42.75,67a7.94,7.94,0,0,0,2,2.55,4.19,4.19,0,0,0,2.14,1,1.43,1.43,0,0,0,1.61-.76,5.06,5.06,0,0,0,.3-.67c.86-2.41,1.75-4.82,2.59-7.25,1-3,2-6.12,3.18-9.14q1.58-4.15,3.34-8.24t3.68-7.93c.8-1.61,1.64-3.21,2.4-4.84a13.06,13.06,0,0,0,1.31-4.42,3.67,3.67,0,0,0-.55-2.42,7.8,7.8,0,0,0-2-2,9.88,9.88,0,0,0-1.44-1,1.5,1.5,0,0,0-2,.47c-.3.39-.57.79-.85,1.2A91.86,91.86,0,0,0,52.59,33.7C52,34.83,51.47,36,51,37.12c-1,2.14-1.92,4.28-2.81,6.45-.78,1.89-1.48,3.81-2.17,5.73-.79,2.19-1.46,4.42-2,6.66a57.34,57.34,0,0,0-1.29,6.2C42.49,63.17,42.41,64.19,42.3,65.2ZM27.78,63.48c.06.52.08,1,.17,1.55a19.3,19.3,0,0,0,.51,2.28A3.53,3.53,0,0,0,31,69.82c.4.12.82.2,1.22.29a1.05,1.05,0,0,0,1.14-.41,5.81,5.81,0,0,0,.54-.85,23.29,23.29,0,0,0,1.62-4.33c.66-2.25,1.3-4.51,2.09-6.72.92-2.61,1.92-5.18,3-7.73,1.23-3,2.49-5.91,3.74-8.86.67-1.59,1.32-3.2,2-4.78s1.35-3,2-4.43c.51-1.07,1.05-2.12,1.57-3.19.17-.35.33-.71.47-1.08a4.58,4.58,0,0,0,0-3.24,8.22,8.22,0,0,0-.93-1.82,12.13,12.13,0,0,0-1.95-2.22,1.4,1.4,0,0,0-1.76-.24,2.8,2.8,0,0,0-.5.31,8.87,8.87,0,0,0-1.57,1.67,37.54,37.54,0,0,0-3.4,5.64c-.8,1.58-1.53,3.2-2.25,4.82q-2.43,5.45-4.63,11c-1.27,3.24-2.48,6.51-3.53,9.83a56.16,56.16,0,0,0-1.73,6.63A22.74,22.74,0,0,0,27.78,63.48Zm-14,1.12c0,.43,0,.86.1,1.29a5.37,5.37,0,0,0,1.28,3,3.07,3.07,0,0,0,2,1.14c.65.06,1.3,0,2,.06a1.22,1.22,0,0,0,1.3-.87,34.21,34.21,0,0,0,1.61-4.93c.66-2.77,1.38-5.52,2.28-8.22.78-2.32,1.62-4.62,2.44-6.93.57-1.6,1.18-3.18,1.74-4.78a28.79,28.79,0,0,0,1.26-4.56A2.28,2.28,0,0,0,29.6,38a3.8,3.8,0,0,0-1.74-1.45,1.89,1.89,0,0,0-.78-.14,4.31,4.31,0,0,0-1.32.27,6.3,6.3,0,0,0-2.47,1.83,14.44,14.44,0,0,0-2,3,42.8,42.8,0,0,0-1.89,4.34c-.73,1.86-1.45,3.73-2.1,5.61s-1.17,3.56-1.73,5.34c-.4,1.26-.8,2.52-1.16,3.79A14.67,14.67,0,0,0,13.81,64.6ZM36.29,25.41a6.5,6.5,0,0,0-.29-2,1.88,1.88,0,0,0-1.87-1.47,5.18,5.18,0,0,0-2.52.69A8.84,8.84,0,0,0,29.71,24a9.84,9.84,0,0,0-2.37,3,5.87,5.87,0,0,0-.5,3.93A3.69,3.69,0,0,0,28.11,33a2.51,2.51,0,0,0,2.22.51,3.39,3.39,0,0,0,1.56-.89c.5-.47,1-1,1.49-1.46a13.32,13.32,0,0,0,1.67-2A6.19,6.19,0,0,0,36.29,25.41ZM78.85,71.92a2.61,2.61,0,1,0,0-5.21,2.61,2.61,0,1,0,0,5.21Z"/>
    <path d="M67.1,66.54c-.54.25-1,.48-1.48.68A14.77,14.77,0,0,1,62,68.38a3,3,0,0,1-2.63-.68,12.12,12.12,0,0,1-3-3.8,3.33,3.33,0,0,1-.4-1.6A8.87,8.87,0,0,1,56.12,61a40.63,40.63,0,0,1,2.23-7.21,50.84,50.84,0,0,1,2.57-5.37c.93-1.76,1.91-3.48,3-5.17a32.48,32.48,0,0,1,2.71-3.88l.06-.08a1.6,1.6,0,0,1,2.15-.46,4.9,4.9,0,0,1,1.53,1.14,17.38,17.38,0,0,1,2,2.6,2.46,2.46,0,0,1,.36,2,10.64,10.64,0,0,1-.82,2.25,47.54,47.54,0,0,1-3.09,5.3c-.9,1.4-1.84,2.79-2.69,4.23-.6,1-1.08,2.11-1.59,3.18a4.46,4.46,0,0,0-.25,1,.66.66,0,0,0,.28.73.63.63,0,0,0,.75,0c.51-.34,1-.66,1.5-1a22.1,22.1,0,0,0,3.6-3.57A66,66,0,0,0,76,48.71c1-1.59,1.86-3.22,2.79-4.83A10.43,10.43,0,0,1,80.1,42a4,4,0,0,1,.62-.54.73.73,0,0,1,1,0c.42.33.83.68,1.23,1a16.52,16.52,0,0,1,1.83,1.91,2.19,2.19,0,0,1,.44,2.11c-.34,1.17-.62,2.36-1,3.53a45.71,45.71,0,0,1-2,5.41,41,41,0,0,1-3.11,5.72,39.24,39.24,0,0,1-3.86,5,51,51,0,0,1-6,5.56,82.38,82.38,0,0,1-7.69,5.41c-1.52.95-3.05,1.88-4.6,2.77a22.1,22.1,0,0,1-4,1.89,3.51,3.51,0,0,1-1.61.15c-.32,0-.65,0-1-.11a1.26,1.26,0,0,1-.49-.18c-.22-.13-.23-.33,0-.52a1.09,1.09,0,0,1,.27-.21,29.49,29.49,0,0,0,3.42-2.23Q57.39,76,61,72.87c1-.86,2-1.76,3-2.65a21.35,21.35,0,0,0,2.46-2.57A3,3,0,0,0,67.1,66.54Z" fill="#fff"/>
    <path d="M42.3,65.2c.11-1,.19-2,.34-3A57.34,57.34,0,0,1,43.93,56c.58-2.24,1.25-4.47,2-6.66.69-1.92,1.39-3.84,2.17-5.73C49,41.4,50,39.26,51,37.12,51.47,36,52,34.83,52.59,33.7a91.86,91.86,0,0,1,5.84-10.14c.28-.41.55-.81.85-1.2a1.5,1.5,0,0,1,2-.47,9.88,9.88,0,0,1,1.44,1,7.8,7.8,0,0,1,2,2,3.67,3.67,0,0,1,.55,2.42A13.06,13.06,0,0,1,64,31.72c-.76,1.63-1.6,3.23-2.4,4.84q-1.94,3.93-3.68,7.93t-3.34,8.24c-1.14,3-2.14,6.09-3.18,9.14-.84,2.43-1.73,4.84-2.59,7.25a5.06,5.06,0,0,1-.3.67,1.43,1.43,0,0,1-1.61.76,4.19,4.19,0,0,1-2.14-1,7.94,7.94,0,0,1-2-2.55A4.19,4.19,0,0,1,42.3,65.2Z" fill="#fff"/>
    <path d="M27.78,63.48a22.74,22.74,0,0,1,.41-3.39,56.16,56.16,0,0,1,1.73-6.63c1-3.32,2.26-6.59,3.53-9.83q2.19-5.54,4.63-11c.72-1.62,1.45-3.24,2.25-4.82a37.54,37.54,0,0,1,3.4-5.64,8.87,8.87,0,0,1,1.57-1.67,2.8,2.8,0,0,1,.5-.31,1.4,1.4,0,0,1,1.76.24,12.13,12.13,0,0,1,1.95,2.22,8.22,8.22,0,0,1,.93,1.82,4.58,4.58,0,0,1,0,3.24c-.14.37-.3.73-.47,1.08-.52,1.07-1.06,2.12-1.57,3.19-.69,1.47-1.38,2.94-2,4.43s-1.35,3.19-2,4.78c-1.25,2.95-2.51,5.9-3.74,8.86-1.06,2.55-2.06,5.12-3,7.73-.79,2.21-1.43,4.47-2.09,6.72a23.29,23.29,0,0,1-1.62,4.33,5.81,5.81,0,0,1-.54.85,1.05,1.05,0,0,1-1.14.41c-.4-.09-.82-.17-1.22-.29a3.53,3.53,0,0,1-2.52-2.51A19.3,19.3,0,0,1,28,65C27.86,64.52,27.84,64,27.78,63.48Z" fill="#fff"/>
    <path d="M13.81,64.6a14.67,14.67,0,0,1,.62-3.95c.36-1.27.76-2.53,1.16-3.79.56-1.78,1.11-3.57,1.73-5.34s1.37-3.75,2.1-5.61a42.8,42.8,0,0,1,1.89-4.34,14.44,14.44,0,0,1,2-3,6.3,6.3,0,0,1,2.47-1.83,4.31,4.31,0,0,1,1.32-.27,1.89,1.89,0,0,1,.78.14A3.8,3.8,0,0,1,29.6,38a2.28,2.28,0,0,1,.22,1.75,28.79,28.79,0,0,1-1.26,4.56c-.56,1.6-1.17,3.18-1.74,4.78-.82,2.31-1.66,4.61-2.44,6.93-.9,2.7-1.62,5.45-2.28,8.22a34.21,34.21,0,0,1-1.61,4.93,1.22,1.22,0,0,1-1.3.87c-.65,0-1.3,0-2-.06a3.07,3.07,0,0,1-2-1.14,5.37,5.37,0,0,1-1.28-3C13.86,65.46,13.85,65,13.81,64.6Z" fill="#fff"/>
    <path d="M36.29,25.41a6.19,6.19,0,0,1-1.24,3.78,13.32,13.32,0,0,1-1.67,2c-.49.49-1,1-1.49,1.46a3.39,3.39,0,0,1-1.56.89A2.51,2.51,0,0,1,28.11,33a3.69,3.69,0,0,1-1.27-2.11,5.87,5.87,0,0,1,.5-3.93,9.84,9.84,0,0,1,2.37-3,8.84,8.84,0,0,1,1.9-1.35,5.18,5.18,0,0,1,2.52-.69A1.88,1.88,0,0,1,36,23.39,6.5,6.5,0,0,1,36.29,25.41Z" fill="#fff"/>
    <path d="M78.85,71.92a2.61,2.61,0,1,1,2.63-2.58A2.58,2.58,0,0,1,78.85,71.92Zm2.29-2.62a2.28,2.28,0,0,0-4.56,0,2.28,2.28,0,0,0,4.56,0Z" fill="#fff"/>
    <path d="M81.14,69.3a2.28,2.28,0,0,1-4.56,0,2.28,2.28,0,0,1,4.56,0Zm-3.39,1.46h.63V69.54h.46l.58,1.22h.69l-.29-.66c-.1-.22-.2-.44-.29-.62a2,2,0,0,0,.43-.36.78.78,0,0,0-.54-1.26,13.26,13.26,0,0,0-1.67,0Z"/>
    <path d="M77.75,70.76V67.85a13.26,13.26,0,0,1,1.67,0A.78.78,0,0,1,80,69.12a2,2,0,0,1-.43.36c.09.18.19.4.29.62l.29.66h-.69l-.58-1.22h-.46v1.22Zm.65-1.67a2.1,2.1,0,0,0,.83,0,.41.41,0,0,0,.28-.36.38.38,0,0,0-.26-.37,1.31,1.31,0,0,0-.85,0Z" fill="#fff"/>
    <path d="M78.4,69.09v-.83a1.31,1.31,0,0,1,.85,0,.38.38,0,0,1,.26.37.41.41,0,0,1-.28.36A2.1,2.1,0,0,1,78.4,69.09Z"/>
  </g>
</svg>
