<svg id="Layer_1" data-name="Layer 1" xmlns="http://www.w3.org/2000/svg" viewBox="0 0 204 96">
  <g>
    <path d="M16.68,33a32.55,32.55,0,0,1,7.88-10.17,34.06,34.06,0,0,1,11.21-6.46A32.79,32.79,0,0,1,61.24,18h0a1.1,1.1,0,0,1-1,2h0a30.85,30.85,0,0,0-23.94-2A32.25,32.25,0,0,0,17.63,33.5a.55.55,0,0,1-1-.5Z" fill="#231f20"/>
    <path d="M34.69,70.35a25.85,25.85,0,0,0,4.8,1.77,21.83,21.83,0,0,0,5,.68,27.88,27.88,0,0,0,9.94-1.75,1.1,1.1,0,1,1,.74,2.07l-.06,0a29.6,29.6,0,0,1-10.7,1.31,23.48,23.48,0,0,1-5.32-1,27.73,27.73,0,0,1-4.92-2.11h0a.55.55,0,0,1,.5-1Z" fill="#231f20"/>
    <path d="M10.64,29.92a39.55,39.55,0,0,1,6.21-8.54,37.5,37.5,0,0,1,8.29-6.49,41.26,41.26,0,0,1,9.62-4A42.17,42.17,0,0,1,45,9.29a.56.56,0,0,1,.58.52.55.55,0,0,1-.52.58h0a40.69,40.69,0,0,0-9.82,2,39.73,39.73,0,0,0-9,4.32,34.91,34.91,0,0,0-7.41,6.47,36.26,36.26,0,0,0-5.31,8.24,1.65,1.65,0,0,1-3-1.41s0,0,0-.08Z" fill="#231f20"/>
    <path d="M28.09,83.35a40,40,0,0,1-8.17-5.86,38,38,0,0,1-6.35-7.72A41.31,41.31,0,0,1,8.16,56a30,30,0,0,1-.59-4.92A.55.55,0,0,1,8.66,51h0a30.77,30.77,0,0,0,.84,4.66A40.65,40.65,0,0,0,11,60.21a39,39,0,0,0,4.44,8.33,35.56,35.56,0,0,0,6.34,6.91,36.34,36.34,0,0,0,7.85,5,1.65,1.65,0,1,1-1.41,3l-.08,0Z" fill="#231f20"/>
    <path d="M26.52,74.48a42.51,42.51,0,0,1-6.28-5.86,31.76,31.76,0,0,1-4.79-7.23,29.22,29.22,0,0,1-2.55-8.34,35.33,35.33,0,0,1-.16-8.72,1.11,1.11,0,0,1,1.16-1,1.1,1.1,0,0,1,1,1.16v.12a33.25,33.25,0,0,0-.12,8.22A28,28,0,0,0,17,60.71a30.5,30.5,0,0,0,4.34,7,40.83,40.83,0,0,0,5.94,5.89.55.55,0,0,1,.05.77.56.56,0,0,1-.74.09Z" fill="#231f20"/>
    <path d="M27.67,30.75a29.14,29.14,0,0,0-4.11,6.35,24.51,24.51,0,0,0-2.13,7.17,24,24,0,0,0,.2,7.42A28.85,28.85,0,0,0,24,58.75a1.1,1.1,0,1,1-1.95,1,.3.3,0,0,1,0-.08v0A31.09,31.09,0,0,1,19.75,52a25.37,25.37,0,0,1,.07-8,25.74,25.74,0,0,1,2.53-7.53A30,30,0,0,1,26.83,30h0A.54.54,0,0,1,27.6,30a.56.56,0,0,1,.07.78Z" fill="#231f20"/>
    <path d="M31.08,25.67a25.58,25.58,0,0,1,5.64-2.74,26.52,26.52,0,0,1,6.1-1.29A28.09,28.09,0,0,1,55,23.21a.55.55,0,0,1,.32.7.55.55,0,0,1-.68.34h0a26.66,26.66,0,0,0-11.64-1,24.43,24.43,0,0,0-5.63,1.46,23.51,23.51,0,0,0-5.08,2.74A1.1,1.1,0,0,1,31,25.7l0,0Z" fill="#231f20"/>
    <path d="M74.39,75.79a45.65,45.65,0,0,1-7.06,5.32,39,39,0,0,1-8,3.72,36.64,36.64,0,0,1-8.59,1.76,40.07,40.07,0,0,1-8.69-.24.55.55,0,0,1,.14-1.09,37.88,37.88,0,0,0,8.38-.3,35.35,35.35,0,0,0,8-2.18,36,36,0,0,0,7.25-4,43,43,0,0,0,6.28-5.39,1.65,1.65,0,0,1,2.35,2.29.46.46,0,0,1-.07.07Z" fill="#231f20"/>
    <path d="M65.22,74.77a26.58,26.58,0,0,1-6.62,3.85,36.77,36.77,0,0,1-7.33,2.18,35.33,35.33,0,0,1-7.68.59,23.16,23.16,0,0,1-7.68-1.52,1.09,1.09,0,0,1,.74-2.06l.07,0h0a21.3,21.3,0,0,0,6.94,1.62,32.85,32.85,0,0,0,7.28-.3,35.61,35.61,0,0,0,7.12-1.82,25.55,25.55,0,0,0,6.47-3.42.55.55,0,0,1,.68.86Z" fill="#231f20"/>
    <path d="M55.65,9.35a38.47,38.47,0,0,1,7.5,3.06,41.92,41.92,0,0,1,6.67,4.46,38.47,38.47,0,0,1,10,12.24.55.55,0,0,1-1,.54,36.79,36.79,0,0,0-10.38-11,38.6,38.6,0,0,0-6.55-3.74,34.64,34.64,0,0,0-7.09-2.33,1.66,1.66,0,0,1-1.27-2,1.64,1.64,0,0,1,2-1.26l.11,0Z" fill="#231f20"/>
    <path d="M16.68,33a32.55,32.55,0,0,1,7.88-10.17,34.06,34.06,0,0,1,11.21-6.46A32.79,32.79,0,0,1,61.24,18h0a1.1,1.1,0,0,1-1,2h0a30.85,30.85,0,0,0-23.94-2A32.25,32.25,0,0,0,17.63,33.5a.55.55,0,0,1-1-.5Z" fill="#231f20"/>
    <path d="M34.69,70.35a25.85,25.85,0,0,0,4.8,1.77,21.83,21.83,0,0,0,5,.68,27.88,27.88,0,0,0,9.94-1.75,1.1,1.1,0,1,1,.74,2.07l-.06,0a29.6,29.6,0,0,1-10.7,1.31,23.48,23.48,0,0,1-5.32-1,27.73,27.73,0,0,1-4.92-2.11h0a.55.55,0,0,1,.5-1Z" fill="#231f20"/>
    <path d="M10.64,29.92a39.55,39.55,0,0,1,6.21-8.54,37.5,37.5,0,0,1,8.29-6.49,41.26,41.26,0,0,1,9.62-4A42.17,42.17,0,0,1,45,9.29a.56.56,0,0,1,.58.52.55.55,0,0,1-.52.58h0a40.69,40.69,0,0,0-9.82,2,39.73,39.73,0,0,0-9,4.32,34.91,34.91,0,0,0-7.41,6.47,36.26,36.26,0,0,0-5.31,8.24,1.65,1.65,0,0,1-3-1.41s0,0,0-.08Z" fill="#231f20"/>
    <path d="M28.09,83.35a40,40,0,0,1-8.17-5.86,38,38,0,0,1-6.35-7.72A41.31,41.31,0,0,1,8.16,56a30,30,0,0,1-.59-4.92A.55.55,0,0,1,8.66,51h0a30.77,30.77,0,0,0,.84,4.66A40.65,40.65,0,0,0,11,60.21a39,39,0,0,0,4.44,8.33,35.56,35.56,0,0,0,6.34,6.91,36.34,36.34,0,0,0,7.85,5,1.65,1.65,0,1,1-1.41,3l-.08,0Z" fill="#231f20"/>
    <path d="M26.52,74.48a42.51,42.51,0,0,1-6.28-5.86,31.76,31.76,0,0,1-4.79-7.23,29.22,29.22,0,0,1-2.55-8.34,35.33,35.33,0,0,1-.16-8.72,1.11,1.11,0,0,1,1.16-1,1.1,1.1,0,0,1,1,1.16v.12a33.25,33.25,0,0,0-.12,8.22A28,28,0,0,0,17,60.71a30.5,30.5,0,0,0,4.34,7,40.83,40.83,0,0,0,5.94,5.89.55.55,0,0,1,.05.77.56.56,0,0,1-.74.09Z" fill="#231f20"/>
    <path d="M27.67,30.75a29.14,29.14,0,0,0-4.11,6.35,24.51,24.51,0,0,0-2.13,7.17,24,24,0,0,0,.2,7.42A28.85,28.85,0,0,0,24,58.75a1.1,1.1,0,1,1-1.95,1,.3.3,0,0,1,0-.08v0A31.09,31.09,0,0,1,19.75,52a25.37,25.37,0,0,1,.07-8,25.74,25.74,0,0,1,2.53-7.53A30,30,0,0,1,26.83,30h0A.54.54,0,0,1,27.6,30a.56.56,0,0,1,.07.78Z" fill="#231f20"/>
    <path d="M31.08,25.67a25.58,25.58,0,0,1,5.64-2.74,26.52,26.52,0,0,1,6.1-1.29A28.09,28.09,0,0,1,55,23.21a.55.55,0,0,1,.32.7.55.55,0,0,1-.68.34h0a26.66,26.66,0,0,0-11.64-1,24.43,24.43,0,0,0-5.63,1.46,23.51,23.51,0,0,0-5.08,2.74A1.1,1.1,0,0,1,31,25.7l0,0Z" fill="#231f20"/>
    <path d="M74.39,75.79a45.65,45.65,0,0,1-7.06,5.32,39,39,0,0,1-8,3.72,36.64,36.64,0,0,1-8.59,1.76,40.07,40.07,0,0,1-8.69-.24.55.55,0,0,1,.14-1.09,37.88,37.88,0,0,0,8.38-.3,35.35,35.35,0,0,0,8-2.18,36,36,0,0,0,7.25-4,43,43,0,0,0,6.28-5.39,1.65,1.65,0,0,1,2.35,2.29.46.46,0,0,1-.07.07Z" fill="#231f20"/>
    <path d="M65.22,74.77a26.58,26.58,0,0,1-6.62,3.85,36.77,36.77,0,0,1-7.33,2.18,35.33,35.33,0,0,1-7.68.59,23.16,23.16,0,0,1-7.68-1.52,1.09,1.09,0,0,1,.74-2.06l.07,0h0a21.3,21.3,0,0,0,6.94,1.62,32.85,32.85,0,0,0,7.28-.3,35.61,35.61,0,0,0,7.12-1.82,25.55,25.55,0,0,0,6.47-3.42.55.55,0,0,1,.68.86Z" fill="#231f20"/>
    <path d="M55.65,9.35a38.47,38.47,0,0,1,7.5,3.06,41.92,41.92,0,0,1,6.67,4.46,38.47,38.47,0,0,1,10,12.24.55.55,0,0,1-1,.54,36.79,36.79,0,0,0-10.38-11,38.6,38.6,0,0,0-6.55-3.74,34.64,34.64,0,0,0-7.09-2.33,1.66,1.66,0,0,1-1.27-2,1.64,1.64,0,0,1,2-1.26l.11,0Z" fill="#231f20"/>
    <path d="M16.68,33a32.55,32.55,0,0,1,7.88-10.17,34.06,34.06,0,0,1,11.21-6.46A32.79,32.79,0,0,1,61.24,18h0a1.1,1.1,0,0,1-1,2h0a30.85,30.85,0,0,0-23.94-2A32.25,32.25,0,0,0,17.63,33.5a.55.55,0,0,1-1-.5Z" fill="#231f20"/>
    <path d="M34.69,70.35a25.85,25.85,0,0,0,4.8,1.77,21.83,21.83,0,0,0,5,.68,27.88,27.88,0,0,0,9.94-1.75,1.1,1.1,0,1,1,.74,2.07l-.06,0a29.6,29.6,0,0,1-10.7,1.31,23.48,23.48,0,0,1-5.32-1,27.73,27.73,0,0,1-4.92-2.11h0a.55.55,0,0,1,.5-1Z" fill="#231f20"/>
    <path d="M10.64,29.92a39.55,39.55,0,0,1,6.21-8.54,37.5,37.5,0,0,1,8.29-6.49,41.26,41.26,0,0,1,9.62-4A42.17,42.17,0,0,1,45,9.29a.56.56,0,0,1,.58.52.55.55,0,0,1-.52.58h0a40.69,40.69,0,0,0-9.82,2,39.73,39.73,0,0,0-9,4.32,34.91,34.91,0,0,0-7.41,6.47,36.26,36.26,0,0,0-5.31,8.24,1.65,1.65,0,0,1-3-1.41s0,0,0-.08Z" fill="#231f20"/>
    <path d="M28.09,83.35a40,40,0,0,1-8.17-5.86,38,38,0,0,1-6.35-7.72A41.31,41.31,0,0,1,8.16,56a30,30,0,0,1-.59-4.92A.55.55,0,0,1,8.66,51h0a30.77,30.77,0,0,0,.84,4.66A40.65,40.65,0,0,0,11,60.21a39,39,0,0,0,4.44,8.33,35.56,35.56,0,0,0,6.34,6.91,36.34,36.34,0,0,0,7.85,5,1.65,1.65,0,1,1-1.41,3l-.08,0Z" fill="#231f20"/>
    <path d="M26.52,74.48a42.51,42.51,0,0,1-6.28-5.86,31.76,31.76,0,0,1-4.79-7.23,29.22,29.22,0,0,1-2.55-8.34,35.33,35.33,0,0,1-.16-8.72,1.11,1.11,0,0,1,1.16-1,1.1,1.1,0,0,1,1,1.16v.12a33.25,33.25,0,0,0-.12,8.22A28,28,0,0,0,17,60.71a30.5,30.5,0,0,0,4.34,7,40.83,40.83,0,0,0,5.94,5.89.55.55,0,0,1,.05.77.56.56,0,0,1-.74.09Z" fill="#231f20"/>
    <path d="M27.67,30.75a29.14,29.14,0,0,0-4.11,6.35,24.51,24.51,0,0,0-2.13,7.17,24,24,0,0,0,.2,7.42A28.85,28.85,0,0,0,24,58.75a1.1,1.1,0,1,1-1.95,1,.3.3,0,0,1,0-.08v0A31.09,31.09,0,0,1,19.75,52a25.37,25.37,0,0,1,.07-8,25.74,25.74,0,0,1,2.53-7.53A30,30,0,0,1,26.83,30h0A.54.54,0,0,1,27.6,30a.56.56,0,0,1,.07.78Z" fill="#231f20"/>
    <path d="M31.08,25.67a25.58,25.58,0,0,1,5.64-2.74,26.52,26.52,0,0,1,6.1-1.29A28.09,28.09,0,0,1,55,23.21a.55.55,0,0,1,.32.7.55.55,0,0,1-.68.34h0a26.66,26.66,0,0,0-11.64-1,24.43,24.43,0,0,0-5.63,1.46,23.51,23.51,0,0,0-5.08,2.74A1.1,1.1,0,0,1,31,25.7l0,0Z" fill="#231f20"/>
    <path d="M74.39,75.79a45.65,45.65,0,0,1-7.06,5.32,39,39,0,0,1-8,3.72,36.64,36.64,0,0,1-8.59,1.76,40.07,40.07,0,0,1-8.69-.24.55.55,0,0,1,.14-1.09,37.88,37.88,0,0,0,8.38-.3,35.35,35.35,0,0,0,8-2.18,36,36,0,0,0,7.25-4,43,43,0,0,0,6.28-5.39,1.65,1.65,0,0,1,2.35,2.29.46.46,0,0,1-.07.07Z" fill="#231f20"/>
    <path d="M65.22,74.77a26.58,26.58,0,0,1-6.62,3.85,36.77,36.77,0,0,1-7.33,2.18,35.33,35.33,0,0,1-7.68.59,23.16,23.16,0,0,1-7.68-1.52,1.09,1.09,0,0,1,.74-2.06l.07,0h0a21.3,21.3,0,0,0,6.94,1.62,32.85,32.85,0,0,0,7.28-.3,35.61,35.61,0,0,0,7.12-1.82,25.55,25.55,0,0,0,6.47-3.42.55.55,0,0,1,.68.86Z" fill="#231f20"/>
    <path d="M55.65,9.35a38.47,38.47,0,0,1,7.5,3.06,41.92,41.92,0,0,1,6.67,4.46,38.47,38.47,0,0,1,10,12.24.55.55,0,0,1-1,.54,36.79,36.79,0,0,0-10.38-11,38.6,38.6,0,0,0-6.55-3.74,34.64,34.64,0,0,0-7.09-2.33,1.66,1.66,0,0,1-1.27-2,1.64,1.64,0,0,1,2-1.26l.11,0Z" fill="#231f20"/>
    <path d="M43.82,39.17c1.48.36,2.25.89,2.25,2.06,0,1.32-1,2.1-2.5,2.1a4.27,4.27,0,0,1-2.92-1.12l.75-.88a3.24,3.24,0,0,0,2.22.91c.75,0,1.24-.35,1.24-.89s-.29-.78-1.57-1.08c-1.5-.36-2.34-.78-2.34-2.1a2.15,2.15,0,0,1,2.4-2,3.87,3.87,0,0,1,2.54.88l-.66.93a3.23,3.23,0,0,0-1.9-.72c-.72,0-1.14.37-1.14.84S42.48,38.85,43.82,39.17Z" fill="#231f20"/>
    <path d="M53.4,40.2a2.8,2.8,0,0,1-3,3.14,2.76,2.76,0,0,1-3-3.08v-4h1.23v4c0,1.3.67,2,1.77,2s1.76-.66,1.76-2v-4H53.4Z" fill="#231f20"/>
    <path d="M57.79,39.17c1.48.36,2.25.89,2.25,2.06,0,1.32-1,2.1-2.5,2.1a4.27,4.27,0,0,1-2.92-1.12l.74-.88a3.21,3.21,0,0,0,2.21.91c.76,0,1.24-.35,1.24-.89s-.28-.78-1.57-1.08c-1.49-.36-2.33-.78-2.33-2.1a2.14,2.14,0,0,1,2.39-2,3.88,3.88,0,0,1,2.55.88l-.66.93a3.23,3.23,0,0,0-1.9-.72c-.72,0-1.14.37-1.14.84S56.45,38.85,57.79,39.17Z" fill="#231f20"/>
    <path d="M64.45,43.23H63.21V37.38H61V36.23h5.68v1.15H64.45Z" fill="#231f20"/>
    <path d="M74.68,43.23H73.37l-.71-1.69H69.35l-.72,1.69H67.37l3.08-7h1.13ZM71,37.65l-1.2,2.8h2.41Z" fill="#231f20"/>
    <path d="M77.17,36.23v7H75.94v-7Z" fill="#231f20"/>
    <path d="M83.94,36.23h1.2v7h-1l-3.86-5v5H79.05v-7h1.14l3.75,4.84Z" fill="#231f20"/>
    <path d="M93.65,43.23h-1.3l-.71-1.69H88.33l-.72,1.69H86.35l3.08-7.06h1.14ZM90,37.65l-1.2,2.8h2.41Z" fill="#231f20"/>
    <path d="M100.28,38a1.67,1.67,0,0,1-1,1.57,1.72,1.72,0,0,1,1.39,1.71c0,1.26-1,1.93-2.59,1.93H94.83v-7H98C99.4,36.23,100.28,36.92,100.28,38Zm-1.24.2c0-.57-.44-.9-1.23-.9H96v1.86h1.68c.81,0,1.34-.31,1.34-1Zm.4,3c0-.6-.47-1-1.45-1H96v1.92h2c.87,0,1.38-.33,1.38-1Z" fill="#231f20"/>
    <path d="M102.07,36.23h1.23v5.89H107v1.12h-4.91Z" fill="#231f20"/>
    <path d="M113.45,37.33h-4v1.82H113v1.1h-3.51v1.88h4v1.1h-5.24v-7h5.19Z" fill="#231f20"/>
    <path d="M120.57,43.23H118v-7h2.61a3.51,3.51,0,1,1,0,7Zm0-5.88h-1.38v4.76h1.38a2.38,2.38,0,1,0,.19-4.76Z" fill="#231f20"/>
    <path d="M131,37.33h-4v1.82h3.51v1.1h-3.51v1.88h4v1.1h-5.24v-7H131Z" fill="#231f20"/>
    <path d="M137.49,36.23h1.33l-2.91,7h-1.08l-2.9-7.07h1.35l2.11,5.39Z" fill="#231f20"/>
    <path d="M145.12,37.33h-4v1.82h3.52v1.1h-3.52v1.88h4v1.1h-5.26v-7h5.19Z" fill="#231f20"/>
    <path d="M146.64,36.23h1.22v5.89h3.69v1.12h-4.91Z" fill="#231f20"/>
    <path d="M156.16,43.35a3.62,3.62,0,1,1,3.68-3.62,3.55,3.55,0,0,1-3.49,3.62Zm0-6.11a2.35,2.35,0,0,0-2.35,2.35v.13a2.4,2.4,0,0,0,2.3,2.5h.08a2.36,2.36,0,0,0,2.36-2.35.57.57,0,0,0,0-.13,2.4,2.4,0,0,0-2.3-2.5Z" fill="#231f20"/>
    <path d="M164,41h-1.39v2.25h-1.23v-7h2.74a2.35,2.35,0,0,1,2.66,2.35C166.75,40.16,165.49,41,164,41Zm0-3.63h-1.43v2.52H164c.93,0,1.51-.51,1.51-1.26s-.59-1.26-1.51-1.26Z" fill="#231f20"/>
    <path d="M171.45,41.51h0l-2.19-3.28v5H168v-7h1.31l2.13,3.31,2.13-3.31h1.31v7h-1.22v-5Z" fill="#231f20"/>
    <path d="M181.88,37.33h-4v1.82h3.51v1.1h-3.51v1.88h4v1.1h-5.24v-7h5.19Z" fill="#231f20"/>
    <path d="M188.28,36.23h1.21v7h-1l-3.86-5v5h-1.21v-7h1.14l3.75,4.84Z" fill="#231f20"/>
    <path d="M194.21,43.23H193V37.38h-2.22V36.23h5.68v1.15h-2.22Z" fill="#231f20"/>
    <path d="M43.82,50.13c1.48.36,2.25.89,2.25,2.06,0,1.32-1,2.1-2.5,2.1a4.33,4.33,0,0,1-2.92-1.13l.75-.87a3.24,3.24,0,0,0,2.22.91c.75,0,1.24-.35,1.24-.89s-.29-.78-1.57-1.08c-1.5-.36-2.34-.78-2.34-2.1a2.15,2.15,0,0,1,2.4-2,3.93,3.93,0,0,1,2.54.88l-.66.93a3.23,3.23,0,0,0-1.9-.72c-.72,0-1.14.37-1.14.84S42.48,49.8,43.82,50.13Z" fill="#231f20"/>
    <path d="M98.71,50.13c1.47.36,2.24.89,2.24,2.06,0,1.32-1,2.1-2.5,2.1a4.33,4.33,0,0,1-2.92-1.13l.74-.87a3.28,3.28,0,0,0,2.22.91c.75,0,1.24-.35,1.24-.9s-.29-.78-1.57-1.07c-1.5-.37-2.34-.79-2.34-2.1a2.15,2.15,0,0,1,2.39-2.05,4,4,0,0,1,2.55.88l-.67.93a3.11,3.11,0,0,0-1.9-.71c-.71,0-1.13.36-1.13.84S97.34,49.8,98.71,50.13Z" fill="#231f20"/>
    <path d="M50.86,54.31a3.63,3.63,0,1,1,3.67-3.63,3.55,3.55,0,0,1-3.48,3.63Zm0-6.11a2.35,2.35,0,0,0-2.36,2.35.62.62,0,0,0,0,.13,2.39,2.39,0,0,0,2.3,2.49h.08a2.36,2.36,0,0,0,2.36-2.36.49.49,0,0,0,0-.12,2.39,2.39,0,0,0-2.3-2.5Z" fill="#231f20"/>
    <path d="M56,47.19h1.23v5.89h3.68V54.2H56Z" fill="#231f20"/>
    <path d="M68.09,51.16a2.79,2.79,0,0,1-3,3.13,2.75,2.75,0,0,1-3-3.07v-4h1.23v4c0,1.3.67,2,1.77,2s1.76-.66,1.76-2v-4h1.23Z" fill="#231f20"/>
    <path d="M72.74,54.18H71.5V48.33H69.27V47.19H75v1.14H72.73Z" fill="#231f20"/>
    <path d="M77.57,47.19v7H76.33v-7Z" fill="#231f20"/>
    <path d="M82.77,54.31a3.63,3.63,0,1,1,3.68-3.63A3.56,3.56,0,0,1,83,54.31Zm0-6.11a2.34,2.34,0,0,0-2.35,2.35v.13a2.39,2.39,0,0,0,2.3,2.49h.08a2.36,2.36,0,0,0,2.36-2.36s0-.08,0-.12a2.39,2.39,0,0,0-2.3-2.5Z" fill="#231f20"/>
    <path d="M92.82,47.19H94v7H93l-3.86-5v5H87.93v-7h1.14L92.82,52Z" fill="#231f20"/>
    <path d="M110.38,47.19h1.21v7h-1l-3.86-5v5h-1.21v-7h1.14L110.38,52Z" fill="#231f20"/>
    <path d="M118.58,48.29h-4V50.1h3.51v1.11h-3.51v1.87h4v1.1h-5.24v-7h5.19Z" fill="#231f20"/>
    <path d="M123,54.18H121.8V48.33h-2.22V47.19h5.68v1.14H123Z" fill="#231f20"/>
    <path d="M130.76,47.16h1l1.71,5.22,1.7-5.19h1.28L134,54.26H133l-1.72-5-1.72,5h-1.06L126,47.19h1.33L129,52.38Z" fill="#231f20"/>
    <path d="M141.09,54.31a3.63,3.63,0,1,1,3.68-3.63,3.56,3.56,0,0,1-3.48,3.63Zm0-6.11a2.34,2.34,0,0,0-2.35,2.35v.13a2.39,2.39,0,0,0,2.3,2.49h.08a2.36,2.36,0,0,0,2.36-2.36V50.7a2.4,2.4,0,0,0-2.31-2.5Z" fill="#231f20"/>
    <path d="M150.73,54.18,149,51.74h-1.54v2.44h-1.23v-7h3.12c1.6,0,2.6.85,2.6,2.22a2.1,2.1,0,0,1-1.67,2.13l1.89,2.65Zm-1.47-5.88h-1.79v2.35h1.8c.87,0,1.44-.46,1.44-1.17s-.54-1.17-1.45-1.17Z" fill="#231f20"/>
    <path d="M159.67,54.18h-1.49l-2.39-3.13-1.09,1.11v2h-1.23v-7h1.23v3.53L158,47.19h1.51l-2.91,3Z" fill="#231f20"/>
    <g>
      <path d="M42.58,58.15h.86l1.77,4.6h-.86l-.44-1.21H42.09l-.43,1.21h-.83Zm-.27,2.78h1.4L43,59h0Z" fill="#231f20"/>
      <path d="M51.73,62.75h-.52l-.12-.54a1.64,1.64,0,0,1-1.39.65,2.11,2.11,0,0,1-.92-.19,2,2,0,0,1-.69-.52,2.24,2.24,0,0,1-.44-.78,3,3,0,0,1,0-1.87,2.24,2.24,0,0,1,.44-.78,2.06,2.06,0,0,1,.69-.52,2.28,2.28,0,0,1,.92-.2,2.46,2.46,0,0,1,.72.11,2,2,0,0,1,.6.29,1.59,1.59,0,0,1,.44.49,1.86,1.86,0,0,1,.22.69h-.79a1.07,1.07,0,0,0-.14-.39.94.94,0,0,0-.27-.29,1.11,1.11,0,0,0-.36-.18,1.86,1.86,0,0,0-.42,0,1.24,1.24,0,0,0-.63.14,1.34,1.34,0,0,0-.43.39,2.09,2.09,0,0,0-.26.57,2.81,2.81,0,0,0,0,1.29,2.09,2.09,0,0,0,.26.57,1.34,1.34,0,0,0,.43.39,1.24,1.24,0,0,0,.63.14,1.44,1.44,0,0,0,.55-.07,1.31,1.31,0,0,0,.4-.26,1,1,0,0,0,.24-.39,1.6,1.6,0,0,0,.09-.53H49.76V60.3h2Z" fill="#231f20"/>
      <path d="M52.73,58.15h.81v3.92H55.9v.7H52.76Z" fill="#231f20"/>
      <path d="M58.53,58a2.23,2.23,0,0,1,.92.19,2.1,2.1,0,0,1,.69.52,2.2,2.2,0,0,1,.44.79,3,3,0,0,1,0,1.86,2.2,2.2,0,0,1-.44.79,2,2,0,0,1-.69.52,2.38,2.38,0,0,1-1.85,0,2.06,2.06,0,0,1-.69-.52,2.2,2.2,0,0,1-.44-.79,3,3,0,0,1,0-1.86,2.14,2.14,0,0,1,1.13-1.31A2.28,2.28,0,0,1,58.53,58Zm0,.66a1.3,1.3,0,0,0-.64.14,1.4,1.4,0,0,0-.44.4,1.86,1.86,0,0,0-.24.56,2.56,2.56,0,0,0,0,1.29,2,2,0,0,0,.24.57,1.49,1.49,0,0,0,.44.39,1.43,1.43,0,0,0,.64.15,1.23,1.23,0,0,0,1.07-.55,2.18,2.18,0,0,0,.25-.56,2.81,2.81,0,0,0,0-1.29,2.41,2.41,0,0,0-.25-.57,1.24,1.24,0,0,0-1.07-.54Z" fill="#231f20"/>
      <path d="M61.6,58.15h2.23a1.62,1.62,0,0,1,1,.28,1,1,0,0,1,.37.86,1,1,0,0,1-.17.6,1.11,1.11,0,0,1-.49.39h0a1,1,0,0,1,.65.39,1.37,1.37,0,0,1,.22.79,1.24,1.24,0,0,1-.1.5,1.08,1.08,0,0,1-.3.4,1.77,1.77,0,0,1-.53.27,2.86,2.86,0,0,1-.77.1H61.6Zm.8,1.93h1.32a.76.76,0,0,0,.48-.17.56.56,0,0,0,.19-.47.6.6,0,0,0-.17-.49.81.81,0,0,0-.5-.14H62.4Zm0,2h1.42a.86.86,0,0,0,.58-.19.73.73,0,0,0,.2-.54.69.69,0,0,0-.2-.53.81.81,0,0,0-.58-.18H62.4Z" fill="#231f20"/>
      <path d="M67.49,58.15h.86l1.78,4.6h-.86l-.43-1.21H67l-.43,1.21h-.82Zm-.28,2.77h1.41l-.69-2h0Z" fill="#231f20"/>
      <path d="M70.69,58.15h.81v3.92h2.36v.7H70.72Z" fill="#231f20"/>
      <path d="M76.45,58.15h.8v4.6h-.8Z" fill="#231f20"/>
      <path d="M78.34,58.15h.85l2.1,3.39h0V58.15h.79v4.6h-.85l-2.11-3.39h0v3.38h-.78Z" fill="#231f20"/>
      <path d="M83.15,58.15H84v4.6h-.81Z" fill="#231f20"/>
      <path d="M84.63,58.15h3.73v.69H86.9v3.93h-.79V58.84H84.65Z" fill="#231f20"/>
      <path d="M89,58.15h.8v4.6H89Z" fill="#231f20"/>
      <path d="M92.18,58.15H93l1.77,4.6H94l-.43-1.21H91.68l-.44,1.21h-.83Zm-.28,2.77h1.4l-.69-2h0Z" fill="#231f20"/>
      <path d="M94.35,58.15h3.72v.69H96.61v3.93h-.79V58.84H94.35Z" fill="#231f20"/>
      <path d="M98.74,58.15h.81v4.6h-.81Z" fill="#231f20"/>
      <path d="M100.14,58.15H101l1.15,3.64h0l1.18-3.64h.82l-1.57,4.6h-.9Z" fill="#231f20"/>
      <path d="M104.73,58.15H108v.69h-2.51v1.21h2.33v.66h-2.33v1.35h2.56v.69h-3.36Z" fill="#231f20"/>
      <path d="M110.84,58.15H114v.69h-2.35v1.21h2.08v.66h-2.08v2h-.81Z" fill="#231f20"/>
      <path d="M116.76,58a2.06,2.06,0,0,1,1.62.71,2.34,2.34,0,0,1,.43.79,2.78,2.78,0,0,1,0,1.86,2.34,2.34,0,0,1-.43.79,2.06,2.06,0,0,1-.69.52,2.4,2.4,0,0,1-1.86,0,2.06,2.06,0,0,1-.69-.52,2.34,2.34,0,0,1-.43-.79,2.78,2.78,0,0,1,0-1.86,2.34,2.34,0,0,1,.43-.79,2.2,2.2,0,0,1,.69-.52A2.28,2.28,0,0,1,116.76,58Zm0,.66a1.3,1.3,0,0,0-.64.14,1.27,1.27,0,0,0-.43.4,1.88,1.88,0,0,0-.25.56,2.56,2.56,0,0,0,0,1.29,2.06,2.06,0,0,0,.25.57,1.34,1.34,0,0,0,.43.39,1.51,1.51,0,0,0,1.28,0,1.34,1.34,0,0,0,.43-.39,2.06,2.06,0,0,0,.25-.57,2.56,2.56,0,0,0,0-1.29,1.88,1.88,0,0,0-.25-.56,1.22,1.22,0,0,0-1.07-.55Z" fill="#231f20"/>
      <path d="M119.82,58.15H122a1.7,1.7,0,0,1,1.14.33,1.14,1.14,0,0,1,.4.91,1.45,1.45,0,0,1-.1.55,1.15,1.15,0,0,1-.22.35,1.24,1.24,0,0,1-.26.19l-.18.08h0a.9.9,0,0,1,.22.06.69.69,0,0,1,.22.16.9.9,0,0,1,.17.3,1.37,1.37,0,0,1,.07.45,4.62,4.62,0,0,0,.06.74.92.92,0,0,0,.19.47h-.86a.76.76,0,0,1-.11-.33v-.34a3.31,3.31,0,0,0,0-.55.8.8,0,0,0-.14-.39.7.7,0,0,0-.28-.23,1.37,1.37,0,0,0-.45-.07h-1.18v1.9h-.81Zm.81,2.09H122a.85.85,0,0,0,.59-.18.71.71,0,0,0,.2-.55.77.77,0,0,0-.07-.36.6.6,0,0,0-.17-.22.82.82,0,0,0-.26-.1l-.3,0h-1.31Z" fill="#231f20"/>
      <path d="M126,58.15h3.73v.69h-1.46v3.93h-.81V58.84H126Z" fill="#231f20"/>
      <path d="M130.35,58.15h.81V60h2.08V58.15h.81v4.6h-.81V60.68h-2.09v2.07h-.81Z" fill="#231f20"/>
      <path d="M135.15,58.15h3.32v.69H136v1.21h2.32v.66H136v1.35h2.55v.69h-3.36Z" fill="#231f20"/>
      <path d="M141.22,58.15h.8v2.68c0,.16,0,.31,0,.47a1.26,1.26,0,0,0,.13.43.86.86,0,0,0,.32.31,1.52,1.52,0,0,0,1.22,0,.76.76,0,0,0,.33-.31,1.06,1.06,0,0,0,.12-.43,3.71,3.71,0,0,0,0-.47V58.15h.8v3a2.1,2.1,0,0,1-.13.78,1.56,1.56,0,0,1-.4.56,1.48,1.48,0,0,1-.59.32,2.73,2.73,0,0,1-1.55,0,1.48,1.48,0,0,1-.59-.32,1.56,1.56,0,0,1-.4-.56,2.1,2.1,0,0,1-.13-.78Z" fill="#231f20"/>
      <path d="M146,58.15h.85l2.1,3.39h0V58.15h.77v4.6h-.86l-2.08-3.39h0v3.38H146Z" fill="#231f20"/>
      <path d="M150.84,58.15h.8v4.6h-.8Z" fill="#231f20"/>
      <path d="M152.32,58.15h3.73v.69h-1.47v3.93h-.81V58.84h-1.45Z" fill="#231f20"/>
      <path d="M156.71,58.15H160v.69h-2.5v1.21h2.32v.66h-2.32v1.35h2.55v.69h-3.36Z" fill="#231f20"/>
      <path d="M160.9,58.15h1.91a2,2,0,0,1,.91.18,1.72,1.72,0,0,1,.64.49,2.08,2.08,0,0,1,.36.73,3.44,3.44,0,0,1,0,1.8,2.08,2.08,0,0,1-.36.73,1.72,1.72,0,0,1-.64.49,2,2,0,0,1-.91.18H160.9Zm.79,4h.78a2.12,2.12,0,0,0,.79-.13,1.14,1.14,0,0,0,.47-.35,1.36,1.36,0,0,0,.23-.52,3.55,3.55,0,0,0,0-1.3,1.14,1.14,0,0,0-.7-.87,2.11,2.11,0,0,0-.79-.12h-.78Z" fill="#231f20"/>
      <path d="M167.57,58.15h.86l2.1,3.39h0V58.15h.78v4.6h-.85l-2.1-3.39h0v3.38h-.78Z" fill="#231f20"/>
      <path d="M173.62,58.15h.86l1.78,4.6h-.87L175,61.54h-1.84l-.43,1.21h-.83Zm-.28,2.77h1.41l-.69-2h0Z" fill="#231f20"/>
      <path d="M175.79,58.15h3.73v.69h-1.47v3.93h-.8V58.84h-1.46Z" fill="#231f20"/>
      <path d="M180.18,58.15H181v4.6h-.81Z" fill="#231f20"/>
      <path d="M184.06,58a2.12,2.12,0,0,1,.93.19,2.14,2.14,0,0,1,1.13,1.31,3,3,0,0,1,0,1.86,2.2,2.2,0,0,1-.44.79,2.06,2.06,0,0,1-.69.52,2.38,2.38,0,0,1-1.85,0,2,2,0,0,1-.69-.52,2.2,2.2,0,0,1-.44-.79,2.92,2.92,0,0,1-.15-.93,2.67,2.67,0,0,1,.15-.93,2.14,2.14,0,0,1,1.13-1.31A2.26,2.26,0,0,1,184.06,58Zm0,.66a1.22,1.22,0,0,0-1.07.54,2.1,2.1,0,0,0-.25.57,2.81,2.81,0,0,0,0,1.29,1.88,1.88,0,0,0,.25.56,1.22,1.22,0,0,0,1.07.54,1.2,1.2,0,0,0,1.07-.54,1.66,1.66,0,0,0,.25-.56,2.56,2.56,0,0,0,0-1.29,1.63,1.63,0,0,0-.25-.57A1.2,1.2,0,0,0,184.06,58.7Z" fill="#231f20"/>
      <path d="M187.1,58.15H188l2.11,3.39h0V58.15h.78v4.6H190l-2.1-3.39h0v3.38h-.79Z" fill="#231f20"/>
      <path d="M192.45,61.22a.89.89,0,0,0,.09.45.75.75,0,0,0,.25.31,1.13,1.13,0,0,0,.39.17,1.41,1.41,0,0,0,.46.05,1.17,1.17,0,0,0,.45-.06.85.85,0,0,0,.3-.15.53.53,0,0,0,.16-.23.54.54,0,0,0,.06-.25.55.55,0,0,0-.12-.39.58.58,0,0,0-.26-.18,5.6,5.6,0,0,0-.57-.17l-.79-.21a1.51,1.51,0,0,1-.49-.21,1.22,1.22,0,0,1-.32-.28,1,1,0,0,1-.16-.33,1.34,1.34,0,0,1-.05-.35,1.19,1.19,0,0,1,.14-.61,1.5,1.5,0,0,1,.94-.66,2.09,2.09,0,0,1,.61-.08,2.23,2.23,0,0,1,.68.09,1.73,1.73,0,0,1,.56.28,1.23,1.23,0,0,1,.39.46,1.43,1.43,0,0,1,.15.64h-.79a.8.8,0,0,0-.3-.63,1.22,1.22,0,0,0-.69-.19,1.36,1.36,0,0,0-.29,0,.79.79,0,0,0-.27.1.53.53,0,0,0-.21.18.51.51,0,0,0-.08.29.47.47,0,0,0,.15.39,1,1,0,0,0,.4.22l.2.05.39.11.43.11.3.08a1.41,1.41,0,0,1,.39.19,1.24,1.24,0,0,1,.28.28,1,1,0,0,1,.17.34,1.39,1.39,0,0,1-.1,1,1.3,1.3,0,0,1-.42.45,1.83,1.83,0,0,1-.59.26,3,3,0,0,1-.67.08,2.64,2.64,0,0,1-.74-.1,1.69,1.69,0,0,1-.6-.3,1.27,1.27,0,0,1-.41-.51,1.71,1.71,0,0,1-.17-.74Z" fill="#231f20"/>
    </g>
  </g>
</svg>
