<svg id="Layer_1" data-name="Layer 1" xmlns="http://www.w3.org/2000/svg" viewBox="0 0 73.89 65.01"><defs><style>.cls-1{fill:#1d1d1b;}.cls-2{fill:#fff;}</style></defs><path class="cls-1" d="M72.78,36.65H.78V.65h72Z"/><path class="cls-2" d="M59.83,18.58c-.56.06-1,.09-1.28.09s-.72-.05-1.31-.11c.09.85.12,1.17.14,1.86V22.7l0,5.35c0,2.14.07,2.59.59,3.45a4.33,4.33,0,0,0,1.33,1.37c1,.75,2.2,1,4.29,1a6.86,6.86,0,0,0,4.26-1.05c1.57-1.11,1.91-2.1,1.91-5.74l0-3.54c0-.29,0-1.06,0-2.29,0-1,0-1.63,0-2,0-.15,0-.38.07-.69-.52,0-.9.09-1.15.09s-.63-.05-1.12-.09c.08.78.13,1.1.15,1.78.07.9.09,2,.09,3.17V27c0,2.48-.07,3-.54,3.72a3.11,3.11,0,0,1-.9.76,4.9,4.9,0,0,1-2.72.66,4.59,4.59,0,0,1-3.65-1.42c-.45-.68-.47-1-.5-3.29V22.88c0-.25,0-.68.05-1.24s0-.92,0-1.06c.05-.79.07-1.13.18-2m-6.12,2.18a10.69,10.69,0,0,1-.07-1.08,6.22,6.22,0,0,1,.11-1.12,11,11,0,0,1-1.71.11H49.75l-2.66,0-1.53,0c.09,1.78.11,2.5.16,3.62v6.17c0,1.62,0,2.68,0,3.2s-.09,1.17-.18,2.09c.52,0,.9-.06,1.17-.06a13.07,13.07,0,0,1,1.42.09,44.92,44.92,0,0,1-.16-5V26.79h2.37a20.24,20.24,0,0,1,3,.23,10.69,10.69,0,0,1-.07-1.08,7,7,0,0,1,.11-1.15,14.42,14.42,0,0,1-2.68.2H48V21.41l0-.9h2.41c.61,0,1.57,0,2.38.14.21,0,.52,0,1,.11M41,21.17A9.86,9.86,0,0,1,41.29,20a4.37,4.37,0,0,1,.4-.9,8.63,8.63,0,0,0-1.46-.45,9.8,9.8,0,0,0-2.16-.25,4.57,4.57,0,0,0-3.53,1.24,4.24,4.24,0,0,0-1.22,3,3.43,3.43,0,0,0,1.55,3A10.81,10.81,0,0,0,37,26.84a11.24,11.24,0,0,1,2,1.06,2.29,2.29,0,0,1,1.18,1.91c0,1.53-1.24,2.57-3,2.57a5.09,5.09,0,0,1-2.35-.57,6.37,6.37,0,0,1-1.55-1.08A7.11,7.11,0,0,1,32.58,33a7,7,0,0,0,2.58.81,10.75,10.75,0,0,0,1.51.13A5.35,5.35,0,0,0,41.18,32a4.51,4.51,0,0,0,1-2.75,3.76,3.76,0,0,0-.51-2A5.69,5.69,0,0,0,39,25.4a17.54,17.54,0,0,1-2.93-1.6,2.21,2.21,0,0,1-.88-1.73,2.11,2.11,0,0,1,2.32-2.16,6.26,6.26,0,0,1,1.44.24,6.57,6.57,0,0,1,2,1"/><path class="cls-1" d="M4.61,47.73c-.26-1-.85-1.52-1.57-1.52a1,1,0,0,0-1.13,1c0,.65.37.92,1.51,1.11,1.43.26,2.09.84,2.09,2,0,.68-.44,2-2.46,2a3.51,3.51,0,0,1-2.22-.7V50h.45c.17,1.23.82,1.91,1.78,1.91s1.35-.5,1.35-1.18-.23-.94-1.22-1.15C1.74,49.22.89,49,.89,47.62a1.93,1.93,0,0,1,2.2-1.91,3.24,3.24,0,0,1,2,.56v1.46Z"/><path class="cls-1" d="M8.56,51.87l.52,0v.44H6.73V51.9l.55,0,.06-.09V46.32l-.06-.09-.55,0v-.44H9.08v.44l-.52,0-.06.09v5.46Z"/><path class="cls-1" d="M15.9,47.1l-1.5,4.27h-1L11.85,47h-.06v4.75l.06.09.54,0v.44h-1.9V51.9l.55,0,.07-.09V46.32L11,46.23l-.55,0v-.44h2.14c.21.62,1.29,3.59,1.5,4.21h0l1.46-4.21h2v.44l-.51,0-.07.09v5.46l.07.09.51,0v.44H15.31V51.9l.56,0,.07-.09V47.1Z"/><path class="cls-1" d="M24.11,49c0,2-.53,3.38-2.62,3.38S19,51,19,49.06c0-1.71.58-3.34,2.64-3.34S24.11,47.18,24.11,49Zm-3.88.06c0,1.41.08,2.8,1.33,2.8s1.26-1.33,1.26-3.05c0-1.41-.13-2.61-1.26-2.61S20.23,47.44,20.23,49.08Z"/><path class="cls-1" d="M30.27,50.63V46.32l-.06-.09-.57,0v-.44h1.9v.44l-.52,0-.08.09v6H30l-3.3-5.17h0v4.61l.1.09.5,0v.44H25.39V51.9l.56,0,.06-.09V46.32L26,46.23l-.55,0v-.44h1.73l3.12,4.87Z"/><path class="cls-1" d="M37.2,51.78l.06.09.56,0v.44h-2.4V51.9l.56,0,.06-.09V46.32L36,46.24l-.56,0v-.44h4.74v1.54h-.43c-.27-1-.42-1-1.33-1H37.21v2.58h.72c.8,0,.84-.09,1-.86h.42v2.26h-.42c-.16-.77-.24-.89-1-.89h-.73Z"/><path class="cls-1" d="M44.21,45.76c1.6,0,2.2.76,2.2,1.8A1.7,1.7,0,0,1,45.1,49.3l1.37,2.38a.36.36,0,0,0,.31.2l.39.07v.39H45.53c-.22-.48-1.3-2.43-1.52-2.91h-.72v2.35l.07.09.51,0v.44H41.52V51.9l.54,0,.08-.09V46.32l-.08-.09-.54,0v-.44Zm-.16.5h-.77v2.67H44c.63,0,1.13-.48,1.13-1.37S44.68,46.26,44.05,46.26Z"/><path class="cls-1" d="M51.86,45.77l2,6,.08.09.43,0v.44H52.08V51.9l.6,0,0-.07-.38-1.16H49.94l-.39,1.14.06.09.6,0v.44H48.29V51.9l.47,0,.06-.09,2.08-6Zm-1.75,4.36h2.07l-1-3h0Z"/><path class="cls-1" d="M59.48,47.73c-.25-1-.85-1.52-1.57-1.52a1,1,0,0,0-1.13,1c0,.65.37.92,1.51,1.11,1.43.26,2.09.84,2.09,2,0,.68-.44,2-2.46,2a3.51,3.51,0,0,1-2.22-.7V50h.46c.17,1.23.81,1.91,1.77,1.91s1.35-.5,1.35-1.18-.22-.94-1.22-1.15c-1.45-.32-2.3-.59-2.3-1.92A1.93,1.93,0,0,1,58,45.71a3.24,3.24,0,0,1,2,.56v1.46Z"/><path class="cls-1" d="M65.12,50.06c-.16-.77-.24-.87-1-.87h-.75v2.64h1.19c.92,0,1.23,0,1.41-1.27h.45v1.78H61.6V51.9l.56,0,.07-.09V46.32l-.07-.08-.56,0v-.44h4.74v1.54h-.43c-.27-1-.42-1-1.33-1H63.39v2.41h.74c.79,0,.83-.12,1-.89h.41v2.26Z"/><path class="cls-1" d="M70.53,45.76c1.6,0,2.2.76,2.2,1.8a1.7,1.7,0,0,1-1.32,1.74l1.38,2.38a.36.36,0,0,0,.31.2l.39.07v.39H71.85c-.22-.48-1.3-2.43-1.52-2.91h-.72v2.35l.07.09.51,0v.44H67.83V51.9l.55,0,.08-.09V46.32l-.08-.09-.55,0v-.44Zm-.16.5H69.6v2.67h.73c.63,0,1.13-.48,1.13-1.37S71,46.26,70.37,46.26Z"/><path class="cls-1" d="M5.35,57.73l-.53,0v-.44H6.66v.44l-.5,0-.08.08v3.66A2.13,2.13,0,0,1,3.7,63.92c-2,0-2.45-1.13-2.45-2.41v-3.7l-.06-.08-.55,0v-.44H3v.44l-.52,0a.17.17,0,0,1-.06.08v3.74c0,.94.25,1.77,1.52,1.77,1.43,0,1.51-1,1.51-1.84V57.82Z"/><path class="cls-1" d="M12.89,62.13V57.81l-.07-.08-.57,0v-.44h1.9v.44l-.52,0-.07.08v6h-.92l-3.3-5.17h0v4.61l.09.09.5,0v.44H8V63.4l.56,0,.07-.09V57.81l-.07-.08L8,57.7v-.44H9.74l3.13,4.87Z"/><path class="cls-1" d="M17.4,63.37l.52,0v.44H15.56V63.4l.55,0,.07-.09V57.81l-.07-.08-.55,0v-.44h2.36v.44l-.52,0-.07.08v5.47Z"/><path class="cls-1" d="M21.62,63.84l-1.92-6-.06-.08-.45,0v-.44h2.36v.44l-.59,0-.07.08,1.46,4.74h0c.21-.73,1.24-4,1.46-4.74l-.06-.08-.6,0v-.44h1.9v.44l-.47,0-.06.08-1.94,6Z"/><path class="cls-1" d="M29.9,61.56c-.15-.77-.24-.87-1-.87h-.76v2.64h1.19c.93,0,1.23,0,1.42-1.27h.44v1.78H26.39V63.4l.55,0,.07-.09V57.82l-.07-.08-.55,0v-.44h4.74v1.54h-.44c-.26-1-.41-1-1.33-1H28.17v2.41h.75c.78,0,.83-.12,1-.89h.42v2.26Z"/><path class="cls-1" d="M35.31,57.26c1.61,0,2.2.76,2.2,1.8A1.69,1.69,0,0,1,36.2,60.8l1.38,2.38a.33.33,0,0,0,.3.2l.4.07v.39H36.63c-.21-.48-1.3-2.43-1.52-2.91H34.4v2.35l.06.09.51,0v.44H32.62V63.4l.55,0,.07-.09V57.81l-.07-.08-.55,0v-.44Zm-.16.5h-.76v2.67h.72c.64,0,1.14-.48,1.14-1.37S35.78,57.76,35.15,57.76Z"/><path class="cls-1" d="M43.29,59.23c-.25-1-.85-1.52-1.56-1.52a1,1,0,0,0-1.14,1c0,.65.37.92,1.51,1.11,1.43.26,2.09.83,2.09,2,0,.68-.43,2-2.45,2a3.46,3.46,0,0,1-2.22-.7V61.46H40c.17,1.23.81,1.91,1.77,1.91s1.36-.5,1.36-1.18-.23-.94-1.22-1.16c-1.46-.31-2.31-.58-2.31-1.91a1.93,1.93,0,0,1,2.2-1.91,3.25,3.25,0,0,1,2,.56v1.46Z"/><path class="cls-1" d="M47.25,63.37l.52,0v.44H45.42V63.4l.54,0,.07-.09V57.81L46,57.73l-.54,0v-.44h2.35v.44l-.52,0-.07.08v5.47Z"/><path class="cls-1" d="M49.48,58.85h-.43V57.27h5.16v1.58h-.43c-.21-1-.4-1.07-1.31-1.07H52.2v5.5l.07.09.52,0v.44H50.43V63.4l.55,0,.07-.09v-5.5h-.26C49.88,57.78,49.71,57.86,49.48,58.85Z"/><path class="cls-1" d="M58.66,61.17v2.11l.07.09.52,0v.44H56.88V63.4l.56,0,.07-.09v-2l-1.63-3.44-.07-.08-.46,0v-.44h2.38v.44l-.58,0-.07.08,1.22,2.62h.05l1.22-2.62-.06-.08-.6,0v-.44H60.8v.44l-.45,0-.07.08Z"/></svg>