<?xml version="1.0" encoding="UTF-8"?>
<svg id="Layer_1" data-name="Layer 1" xmlns="http://www.w3.org/2000/svg" viewBox="0 0 1919.44 900.7">
  <defs>
    <style>
      .cls-1 {
        fill: none;
      }

      .cls-1, .cls-2, .cls-3, .cls-4 {
        stroke-width: 0px;
      }

      .cls-3 {
        fill: #fff;
      }

      .cls-4 {
        fill: #011e41;
      }
    </style>
  </defs>
  <g>
    <rect class="cls-2" x="-.56" width="901.3" height="900.7"/>
    <path class="cls-3" d="M196.84,748.6c0,34.6-26.7,59.7-60.1,59.7s-60.1-25.4-60.1-58.4,26.7-59.7,60.1-59.7,60.1,25.4,60.1,58.4M177.84,749.2c0-31.4-15.2-53.4-41-53.4-28,0-41,26.3-41,53.4,0,31.4,15.3,53.3,41,53.3,28,0,41-26.3,41-53.3"/>
    <path class="cls-3" d="M563.54,748.6c0,34.6-26.7,59.7-60,59.7s-60.1-25.4-60.1-58.5,26.7-59.7,60.1-59.7,60,25.5,60,58.5M544.54,749.2c0-31.4-15.3-53.4-41-53.4-28,0-41,26.3-41,53.4,0,31.4,15.2,53.3,41,53.3,27.9,0,41-26.3,41-53.3"/>
    <path class="cls-3" d="M609.94,749.8h14.3c21.6,0,26.4-13.6,26.4-26.7,0-9.8-4.5-19-14.6-23.5-5.4-2.2-10.5-2.2-17.5-2.2h-8.6v52.4h0ZM636.34,768.2c-6.7-9.5-9.2-13-17.5-13h-8.9v38.8c0,3.2,1.3,4.7,4.8,5.4l13,2.8v4.2h-51.2v-4.2l11.8-2.8c3.5-.9,4.8-2.2,4.8-5.4v-89.5c0-3.2-1.3-4.4-4.8-5.4l-11.8-2.9v-4.1h49.9c10.5,0,17.8,1,23.8,3.2,12.4,4.8,19.4,16.5,19.4,27.6,0,14-10.5,25.8-28,29.8v.6c3.5,1.6,5.4,3.8,17.8,20l15.6,20.6c2.2,3.2,5.1,5.1,8.6,5.7l11.4,2.5v4.2h-27.3c-3.2,0-4.8-1-7.6-4.8l-23.8-33.3h0Z"/>
    <path class="cls-3" d="M412.34,731.1h4.8v38.1h-4.8l-2.9-11.4c-1-4.2-3.5-5.7-7.3-5.7h-27.6v41.9c0,3.2,1.3,4.7,4.8,5.4l13,2.8v4.2h-51.1v-4.2l11.8-2.8c3.5-.9,4.8-2.2,4.8-5.4v-89.5c0-3.2-1.3-4.5-4.8-5.4l-11.8-2.9v-4.2h86.4v28.6h-4.8l-5.4-17.2c-1.3-4.4-3.2-6-7-6h-35.9v49.2h27.6c3.8,0,6-1.6,7.3-5.7l2.9-9.8h0Z"/>
    <path class="cls-3" d="M704.34,806.4v-4.2l11.8-2.8c3.5-.9,4.8-2.2,4.8-5.4v-89.5c0-3.2-1.3-4.5-4.8-5.4l-11.8-2.9v-4.2h53.7c14.6,0,25.1,1.9,33.7,5.7,21.6,9.8,31.5,31.1,31.5,52.1s-7.6,39.4-27,49.5c-8.9,4.8-21.3,7-37.5,7h-54.4v.1ZM737.64,697.5v98.4c0,4.2,1,5.1,5.1,5.1h14c13.3,0,23.2-1.9,30.2-7,11.8-8.6,17.2-24.1,17.2-43.8s-5.4-38.4-21.3-47.6c-6.7-3.8-15.2-5.1-28.6-5.1h-16.6Z"/>
    <path class="cls-3" d="M241.64,802.2v4.2h-40.4v-4.2l10.1-2.5c3.8-1,6.4-2.2,8.9-5.1l35-43.8-35-46.4c-2.2-3.2-5.1-4.8-8.6-5.7l-9.5-2.5v-4.2h50.3v4.1l-10.8,2.2c-3.8.7-2.9,2.2-1,4.8l25.8,36.9h.6l26.4-36.8c1.9-2.5,2.5-3.5-1-4.5l-10.2-2.5v-4.2h40.4v4.1l-10.2,2.5c-3.8,1-6.4,2.2-8.9,5.1l-33,41.6,36.9,48.7c2.2,3.2,5.1,4.7,8.6,5.7l9.5,2.5v4.2h-50.2v-4.2l10.8-2.2c3.8-.6,3.2-1.9,1.3-4.5l-28-39.4h-.6l-28.3,39.1c-1.9,2.5-2.6,3.4.9,4.4l10.2,2.6h0Z"/>
    <path class="cls-3" d="M121.34,638.2c-3.2,3.2-7.9,5.3-14.5,5.3-5.8,0-11.1-1.8-14.7-5.4-4.9-4.9-4.7-11.2-4.7-18v-31.8h6.5v34.2c0,4.3-.1,8.5,3.2,11.9,2.3,2.3,5.9,3.6,10,3.6s7.2-1.4,9.2-3.4c3.7-3.7,3.5-7.8,3.5-17.5v-28.7h6.4v27c-.1,10.1.3,17.6-4.9,22.8"/>
    <polygon class="cls-3" points="178.94 642.5 152.84 598.1 152.94 642.5 147.04 642.5 147.04 588.3 153.64 588.3 179.84 633 179.64 588.3 185.64 588.3 185.64 642.5 178.94 642.5"/>
    <rect class="cls-3" x="208.24" y="588.3" width="6.5" height="54.2"/>
    <polygon class="cls-3" points="255.34 642.5 247.84 642.5 229.14 588.3 235.94 588.3 251.74 636.2 268.04 588.3 274.34 588.3 255.34 642.5"/>
    <polygon class="cls-3" points="289.14 642.5 289.14 588.3 318.54 588.3 318.54 593.7 295.44 593.7 295.44 611.6 317.14 611.6 317.14 616.9 295.44 616.9 295.44 636.9 319.24 636.9 319.24 642.5 289.14 642.5"/>
    <path class="cls-3" d="M360.44,596.5c-3.1-3.1-7.1-3-11.6-3h-6v20.2h2.1c5.5,0,11.4.3,15.1-3.4,1.8-1.8,2.8-4.3,2.8-7.1,0-3-1.2-5.4-2.4-6.7M366.34,642.5l-6.2-14c-3.9-8.6-5.6-9.5-13.5-9.5h-3.8v23.6h-6.4v-54.2h11.7c7.2,0,12.7,0,17,4.2,2.7,2.7,4.2,6.3,4.2,10.8,0,3.8-1.1,6.9-3.4,9.3-2,2.1-5.2,3.9-8.7,4.3,1.9.1,3.5,1.1,4.5,2.2,1.5,1.5,2.5,3.7,4.1,7.2l7.2,16.1h-6.7Z"/>
    <rect class="cls-3" x="436.44" y="588.3" width="6.5" height="54.2"/>
    <polygon class="cls-3" points="480.14 593.7 480.14 642.5 473.64 642.5 473.64 593.7 457.54 593.7 457.54 588.3 496.24 588.3 496.24 593.7 480.14 593.7"/>
    <polygon class="cls-3" points="527.34 621.1 527.34 642.5 520.94 642.5 520.94 621.1 503.74 588.3 511.24 588.3 524.54 613.7 537.54 588.3 544.54 588.3 527.34 621.1"/>
    <path class="cls-3" d="M605.34,592.8c-10.6,0-17.5,9-17.5,22.5s7.7,22.6,17.9,22.6c11.3,0,17.6-9.6,17.6-23s-7.4-22.1-18-22.1M605.34,643.5c-14,0-24.3-11.6-24.3-27.9s10.2-28.3,24.8-28.3,24.2,11.5,24.2,27.8-10,28.4-24.7,28.4"/>
    <polygon class="cls-3" points="654.34 593.7 654.34 611.6 675.34 611.6 675.34 616.9 654.34 616.9 654.34 642.5 647.94 642.5 647.94 588.3 676.64 588.3 676.64 593.7 654.34 593.7"/>
    <path class="cls-3" d="M386.24,601.5c0-8.3,6.7-14.2,16.5-14.2s14.7,5.1,15.1,5.6l-3.2,3.8c-1.2-.9-5.5-4.1-11.5-4.1-6.9,0-10.7,3.6-10.7,8.5,0,2.4,1,4.1,2.5,5.5,1.9,1.7,4.6,2.9,7.5,4.2,3.6,1.7,8.6,3.5,12,7,2.3,2.4,4,5.5,4,9.8,0,9-6.2,15.9-17.5,15.9-9.6,0-15.6-5.3-16.2-5.8l3-4.4c1.5,1.1,7.5,4.7,13.1,4.7,8.1,0,11.2-4.5,11.2-9.8,0-2.5-1.1-4.5-2.8-6.1-2.5-2.4-6.4-4.1-10-5.7-3.6-1.7-7.1-3.4-9.6-6-1.8-1.8-3.4-4.6-3.4-8.9"/>
    <path class="cls-3" d="M635.14,222c0-6.8-2.3-12.3-7.3-15.2-3.1-1.8-7.3-2.4-12.6-2.4h-37.9v76.6h41.3c9.5,0,15.1,2.1,15.6,10.7h.9v-69.7h0Z"/>
    <path class="cls-3" d="M640.44,222c0-6.8,2.3-12.3,7.3-15.2,3.1-1.8,7.4-2.4,12.6-2.4h38.2v76.6h-41.6c-9.5,0-15.1,2.1-15.6,10.7h-.9v-69.7h0Z"/>
    <path class="cls-3" d="M706.44,210v80.9h-58.7l-.7,1.6c-1,2.5-2.8,4.9-9.3,4.9s-8.2-2.3-9.2-4.9l-.7-1.6h-58.6v-80.9h-5.3v2.5l-5.1-1.6c-.6-2-2.4-3.5-4.6-3.5-2.7,0-4.8,2.2-4.8,4.8s2.2,4.8,4.8,4.8c1.2,0,2.2-.4,3-1.1l6.6,2v6.5l-5-.9c-.7-1.7-2.4-2.9-4.4-2.9-2.7,0-4.8,2.2-4.8,4.8s2.2,4.8,4.8,4.8c1.4,0,2.6-.6,3.5-1.5l5.9,1.1v6.6l-5.2-.2c-.8-1.4-2.4-2.4-4.1-2.4-2.7,0-4.8,2.2-4.8,4.8s2.2,4.8,4.8,4.8c1.6,0,3-.8,3.9-2l5.4.2v7.2l-5.3.2c-.9-1.2-2.3-2-3.9-2-2.7,0-4.8,2.2-4.8,4.8s2.2,4.8,4.8,4.8c1.7,0,3.3-.9,4.1-2.3l5.1-.2v6.6l-5.8,1c-.9-.9-2.1-1.5-3.5-1.5-2.7,0-4.8,2.2-4.8,4.8s2.2,4.8,4.8,4.8c2,0,3.7-1.2,4.4-2.9l4.9-.9v6.5l-6.4,1.9c-.8-.7-1.9-1.1-3-1.1-2.7,0-4.8,2.2-4.8,4.8s2.2,4.8,4.8,4.8c2.2,0,4-1.5,4.6-3.5l4.8-1.5v6.3l-7,3c-.8-.5-1.7-.8-2.7-.8-2.7,0-4.8,2.2-4.8,4.8s2.2,4.8,4.8,4.8c2.4,0,4.3-1.7,4.7-4l5-2.1v5.8h60.6c2.5,4.3,6.7,6.5,13.2,6.5s10.7-2.2,13.2-6.5h60.7v-85.7h-5.1Z"/>
    <path class="cls-3" d="M598.04,183c-12.2,0-22.2,1.9-22.2,4.2s9.9,4.2,22.2,4.2,22.2-1.9,22.2-4.2-10-4.2-22.2-4.2"/>
    <path class="cls-3" d="M628.54,156.4l-12.8,9-.1.9,3,1.4c.6.3.6.8.3,1.1l-8,6.8-.8-.1-5.7-8.4c-.4-.5-.2-1.1.4-1.2l3.8-.6v-1l-9.9-14h-1.6l-9.9,14v1l3.8.6c.7.1.8.7.4,1.2l-5.7,8.4-.8.1-7.5-6.8c-.3-.3-.3-.8.3-1.1l3-1.4-.1-.9-13.3-9-1.1.4,7.8,23.9c4-1.8,13.1-3,23.8-3.1,10.7.1,19.8,1.3,23.8,3.1l7.8-23.9-.9-.4h0Z"/>
    <path class="cls-3" d="M637.74,343.3c-12.2,0-22.2,1.9-22.2,4.2s9.9,4.2,22.2,4.2,22.2-1.9,22.2-4.2-9.9-4.2-22.2-4.2"/>
    <path class="cls-3" d="M668.34,316.8l-12.8,9-.1.9,3,1.4c.6.3.6.8.3,1.1l-8,6.8-.8-.1-5.7-8.4c-.4-.5-.2-1.1.4-1.2l3.8-.6v-1l-9.9-14h-1.6l-9.9,14v1l3.8.6c.7.1.8.7.4,1.2l-5.7,8.4-.8.1-7.5-6.8c-.3-.3-.3-.8.3-1.1l3-1.4-.1-.9-13.3-9-1.1.4,7.8,23.9c4-1.8,13.1-3,23.8-3.1,10.7,0,19.8,1.3,23.8,3.1l7.8-23.9-.9-.4h0Z"/>
    <path class="cls-3" d="M677.44,183c-12.2,0-22.2,1.9-22.2,4.2s9.9,4.2,22.2,4.2,22.2-1.9,22.2-4.2-9.9-4.2-22.2-4.2"/>
    <path class="cls-3" d="M708.04,156.4l-12.8,9-.1.9,3,1.4c.6.3.6.8.3,1.1l-8,6.8-.8-.1-5.7-8.4c-.4-.5-.2-1.1.4-1.2l3.8-.6v-1l-9.9-14h-1.6l-9.9,14v1l3.8.6c.7.1.8.7.4,1.2l-5.7,8.4-.8.1-7.5-6.9c-.3-.3-.3-.8.3-1.1l3-1.3-.1-.9-13.3-9-1.1.4,7.8,23.9c4-1.8,13.1-3,23.8-3.1,10.7.1,19.8,1.3,23.8,3.1l7.8-23.9-.9-.4h0Z"/>
    <path class="cls-4" d="M587.14,216.5c2.1,0,3.8.4,4.9,1.5.8.8,1.5,2,1.5,3.5,0,4.2-3.2,6-7.1,6h-4.4v-.6c1.2-.1,1.4-.2,1.4-2v-5.6c0-1.8-.1-1.9-1.2-2v-.7l4.9-.1h0ZM586.34,224.8c0,1.5.4,1.8,1.2,1.8,1.5,0,2.9-1.6,2.9-4.6,0-3.6-1.8-4.6-3.3-4.6-.4,0-.6.1-.7.1s-.1.4-.1.8v6.5h0Z"/>
    <path class="cls-4" d="M606.34,221.8c0,3.6-2.5,5.9-5.7,5.9-3.4,0-5.6-2.5-5.6-5.6,0-2.7,1.8-5.9,5.8-5.9,3.1,0,5.5,2.3,5.5,5.6M598.14,221.5c0,3.1,1.1,5.3,2.8,5.3,1.5,0,2.2-1.4,2.2-4.5,0-3.4-1.2-5.3-2.7-5.3-1.2.1-2.3,1.6-2.3,4.5"/>
    <path class="cls-4" d="M621.24,216.5v.7c-1.3.1-1.3.2-1.3,2l.2,5.7c0,1.9.1,1.9,1.3,2v.6h-5.3v-.6c1.3-.1,1.3-.2,1.3-2v-5.9h-.1l-3.3,8.5h-.9l-3.1-7.9h0l-.1,3.8v2.8c.1.6.4.8,1.5.9v.6h-4.2v-.6c.8-.1,1.1-.2,1.2-.9.1-.5.2-1.4.3-2.9l.2-3.4c.1-2.1,0-2.3-1.3-2.4v-.7h4l3,6.7,2.6-6.7,4-.3h0Z"/>
    <path class="cls-4" d="M626.74,224.7c0,1.8.1,1.9,1.3,2v.7h-5.5v-.7c1.2-.1,1.3-.2,1.3-2v-5.6c0-1.8-.1-1.9-1.3-2v-.7h5.5v.7c-1.2.1-1.3.2-1.3,2v5.6Z"/>
    <path class="cls-4" d="M599.54,247.8h-1.5l-6.2-8h0v3.1c0,1.8.1,2.7.1,3.2.1.6.5.8,1.7.9v.7h-4.2v-.7c.7,0,1.2-.3,1.3-.9.1-.5.1-1.4.1-3.2v-3.1c0-1.2,0-1.5-.4-1.9-.2-.4-.7-.5-1.3-.5v-.7h3.7l5.6,7h0v-2.3c0-1.8-.1-2.7-.1-3.2-.1-.6-.5-.8-1.7-.9v-.7h4.3v.7c-.8,0-1.3.3-1.4.9-.1.5-.1,1.4-.1,3.2l.1,6.4h0Z"/>
    <path class="cls-4" d="M606.44,247.8c-1.2-3-2.8-7.2-3.4-8.8-.6-1.4-.9-1.5-1.7-1.6v-.7h5.5v.7l-.6.1c-.6.1-.6.2-.4.8.3.9,1.6,4.3,2.3,5.9.5-1.4,1.6-4.7,1.9-5.4.3-1,.2-1.2-.5-1.3l-.5-.1v-.7h4.1v.7c-1,.1-1.2.2-1.9,1.7-.1.2-2.2,5.2-3.4,8.7h-1.4Z"/>
    <path class="cls-4" d="M614.04,244.2c.3,1,1.3,2.9,3,2.9.9,0,1.5-.6,1.5-1.7,0-1-.7-1.6-1.7-2l-.2-.1c-1.4-.6-3-1.5-3-3.3,0-1.9,1.4-3.5,4-3.5.5,0,1.1.1,1.6.2.4.1.7.2.9.2.1.6.2,1.5.4,2.6l-.7.1c-.4-1.1-1-2.3-2.3-2.3-.9,0-1.5.7-1.5,1.5s.7,1.3,1.7,1.8l.4.2c1.5.7,2.9,1.6,2.9,3.5,0,2.1-1.7,3.6-4.3,3.6-.7,0-1.4-.1-1.8-.3-.5-.2-.9-.3-1.1-.4-.1-.8-.4-1.7-.6-2.8l.8-.2h0Z"/>
    <path class="cls-4" d="M592.04,265.2c0,1.8.1,1.9,1.3,2v.7h-5.5v-.7c1.2-.1,1.3-.2,1.3-2v-5.6c0-1.8-.1-1.9-1.3-2v-.6h5.5v.7c-1.2.1-1.3.2-1.3,2v5.5Z"/>
    <path class="cls-4" d="M598.74,265.5c0,.9,0,1.3.3,1.5.3.1.7.1,1.2.1s1.3,0,1.6-.5c.3-.3.6-.8.8-1.7l.7.1c-.1.6-.5,2.4-.6,2.9h-8.3v-.7c1.3-.1,1.4-.2,1.4-2v-5.6c0-1.8-.1-1.9-1.3-2v-.6h5.5v.7c-1.2.1-1.3.2-1.3,2v5.8h0Z"/>
    <path class="cls-4" d="M608.14,265.5c0,.9,0,1.3.3,1.5.3.1.7.1,1.2.1s1.3,0,1.6-.5c.3-.3.5-.8.8-1.7l.7.1c-.1.6-.5,2.4-.6,2.9h-8.4v-.7c1.3-.1,1.4-.2,1.4-2v-5.6c0-1.8-.1-1.9-1.3-2v-.6h5.5v.7c-1.2.1-1.3.2-1.3,2l.1,5.8h0Z"/>
    <path class="cls-4" d="M616.24,268.1c-1.2-3-2.8-7.2-3.4-8.8-.6-1.5-.9-1.5-1.7-1.6v-.7h5.5v.7l-.6.1c-.6.1-.6.2-.4.8.3.9,1.6,4.3,2.3,5.9.5-1.4,1.6-4.7,1.9-5.5.3-1,.2-1.2-.5-1.3h-.5v-.7h4.1v.7c-1,.1-1.2.2-1.9,1.7-.1.2-2.2,5.2-3.4,8.7h-1.4Z"/>
    <path class="cls-4" d="M661.54,216.5v.7c-1.3.1-1.3.2-1.3,2l.2,5.7c0,1.9.1,1.9,1.3,2v.6h-5.3v-.6c1.3-.1,1.3-.2,1.3-2v-5.9h-.1l-3.3,8.5h-.9l-3.1-7.9h0l-.1,3.8v2.8c.1.6.4.8,1.5.9v.6h-4.2v-.6c.8-.1,1.1-.2,1.2-.9.1-.5.2-1.4.3-2.9l.2-3.4c.1-2.1,0-2.3-1.3-2.4v-.7h4l3,6.7,2.6-6.7,4-.3h0Z"/>
    <path class="cls-4" d="M667.04,224.7c0,1.8.1,1.9,1.3,2v.7h-5.5v-.7c1.2-.1,1.3-.2,1.3-2v-5.6c0-1.8-.1-1.9-1.3-2v-.7h5.5v.7c-1.2.1-1.3.2-1.3,2v5.6Z"/>
    <path class="cls-4" d="M679.64,227.6h-1.5l-6.2-8h0v3.1c0,1.8.1,2.7.1,3.2.1.6.5.8,1.7.9v.6h-4.3v-.6c.7,0,1.2-.3,1.3-.9.1-.5.1-1.4.1-3.2v-3.1c0-1.2,0-1.5-.4-1.9-.2-.4-.7-.5-1.3-.5v-.7h3.7l5.6,7h0v-2.3c0-1.8-.1-2.7-.1-3.2-.1-.6-.5-.8-1.7-.9v-.7h4.3v.7c-.8,0-1.3.3-1.4.9-.1.5-.1,1.4-.1,3.2l.2,6.4h0Z"/>
    <path class="cls-4" d="M686.64,226.8l.5-.1c.6-.1.7-.2.4-.9l-.6-1.7h-2.8l-.5,1.6c-.2.7-.2.9.6,1l.5.1v.7h-3.9v-.7c.9-.1,1.1-.2,1.7-1.6l3.4-8.7,1.2-.2,1.2,3.2c.7,2,1.5,4,2.1,5.7.5,1.5.8,1.6,1.7,1.6v.7h-5.3l-.2-.7h0ZM684.54,223.1h2.2l-1.1-3.2h0l-1.1,3.2Z"/>
    <path class="cls-4" d="M661.44,245c0,1.8.1,1.9,1.5,2v.7h-5.9v-.7c1.3-.1,1.5-.2,1.5-2v-7.4h-.3c-1.1,0-1.6.2-1.9.5-.2.2-.4.7-.6,1.6h-.7c.1-1.4.2-2.6.2-3.4h.5c.2.4.4.4.9.4h6.7c.4,0,.5-.1.8-.4h.5c0,.7.1,2.1.2,3.4l-.7.1c-.2-1-.4-1.4-.7-1.7s-.8-.4-1.7-.4h-.3v7.3h0Z"/>
    <path class="cls-4" d="M670.24,245c0,1.8.1,1.9,1.3,2v.7h-5.5v-.7c1.2-.1,1.3-.2,1.3-2v-5.6c0-1.8-.1-1.9-1.3-2v-.7h5.5v.7c-1.2.1-1.3.2-1.3,2v5.6Z"/>
    <path class="cls-4" d="M684.34,242.1c0,3.6-2.5,5.9-5.7,5.9-3.4,0-5.6-2.5-5.6-5.6,0-2.7,1.8-5.9,5.9-5.9,3,0,5.4,2.2,5.4,5.6M676.14,241.8c0,3.1,1.2,5.3,2.8,5.3,1.5,0,2.2-1.4,2.2-4.5,0-3.4-1.2-5.3-2.7-5.3-1.2.1-2.3,1.5-2.3,4.5"/>
    <path class="cls-4" d="M666.44,257v.7c-1.3.1-1.3.2-1.3,2l.2,5.6c0,1.9.1,1.9,1.3,2v.7h-5.3v-.7c1.3-.1,1.3-.2,1.3-2v-5.9h-.1l-3.3,8.5h-.9l-3.1-7.9h0l-.1,3.8v2.8c.1.6.4.8,1.5.9v.7h-4.2v-.7c.8-.1,1.1-.2,1.2-.9.1-.5.2-1.4.3-3l.2-3.4c.1-2.1,0-2.3-1.3-2.4v-.8h4l3,6.7,2.6-6.7h4Z"/>
    <path class="cls-4" d="M669.04,259.7c0-1.8-.1-1.9-1.3-2v-.7h8c0,.3.1,1.5.2,2.8h-.7c-.2-.8-.3-1.3-.6-1.6-.3-.3-.8-.4-1.7-.4h-.3c-.6,0-.7,0-.7.6v3.3h.8c1.5,0,1.5-.1,1.7-1.4h.7v4h-.7c-.2-1.5-.2-1.6-1.7-1.6h-.8v2.8c0,.9,0,1.3.3,1.5.3.1.7.1,1.2.1.7,0,1.4-.1,1.8-.5.3-.3.6-.9.8-1.7l.7.1c-.1.8-.4,2.5-.6,3h-8.6v-.7c1.3-.1,1.4-.2,1.4-2l.1-5.6h0Z"/>
    <path class="cls-4" d="M682.74,267.3l.5-.1c.6-.1.7-.2.4-.9l-.6-1.7h-2.8l-.5,1.6c-.2.7-.2.9.6,1h.5v.7h-3.9v-.7c.9-.1,1.1-.2,1.7-1.6l3.4-8.7,1.2-.2,1.2,3.2c.7,2,1.5,4,2.1,5.7.5,1.5.8,1.5,1.7,1.6v.7h-5.3l-.2-.6h0ZM680.54,263.6h2.2l-1.1-3.2h0l-1.1,3.2Z"/>
    <path class="cls-3" d="M622.54,403.7c0,2.4-2,4.4-4.4,4.4s-4.4-2-4.4-4.4,2-4.4,4.4-4.4,4.4,2,4.4,4.4"/>
    <path class="cls-3" d="M667.34,411.1c0,2.4-2,4.4-4.4,4.4s-4.4-2-4.4-4.4,2-4.4,4.4-4.4,4.4,1.9,4.4,4.4"/>
    <path class="cls-3" d="M642.04,92.1c0,2.4-2,4.4-4.4,4.4s-4.4-2-4.4-4.4,2-4.4,4.4-4.4,4.4,1.9,4.4,4.4"/>
    <path class="cls-3" d="M747.14,133.4c-.1,2.4-2.2,4.3-4.6,4.2s-4.3-2.2-4.2-4.6c.1-2.4,2.2-4.3,4.6-4.2,2.4.1,4.3,2.2,4.2,4.6"/>
    <path class="cls-3" d="M525.64,322.9c1.7,2.4,2.6,5,2.5,7.8,0,3.1-1,5.6-6.6,9.4l-15.9,11.4-2.9-4.2s16.3-11.6,16.6-11.8c2.8-2,4-3.4,4-5.6,0-1.4-.5-3-1.5-4.4-1.6-2.3-3.7-3-5.5-3-1.6,0-3.4,1.1-6.5,3.3l-15,10.2-2.9-4.1,14.3-9.7c4-2.8,7.1-4.7,10.1-4.7,4.2-.2,7.4,2.6,9.3,5.4"/>
    <polygon class="cls-3" points="474.64 291.8 505.04 281.1 506.64 285.7 489.34 306.9 511.24 298.2 512.94 302.7 482.94 314.2 481.24 309.6 498.64 288.4 476.34 296.2 474.64 291.8"/>
    <rect class="cls-3" x="470.35" y="265.3" width="32.1" height="5.1" transform="translate(-34.01 74.2) rotate(-8.43)"/>
    <polygon class="cls-3" points="469.14 229.3 469.34 224 501.04 236.9 500.74 242.2 468.24 251.9 468.24 246.5 494.64 239.1 469.14 229.3"/>
    <path class="cls-3" d="M498.14,157.6c-4.5,0-6.6,2.6-9.5,7.8l-3.8,6.8,28.3,15.3,2.4-4.4-11.8-6.4.7-1.3c2-3.6,2.7-4.1,7.7-3.7l9.2.8,2.6-4.7-10.6-.9c-2.1-.2-3.8-.4-5.1,0-.5.1-1,.4-1.5.8.1-.6.3-1.1.3-1.7,0-.9-.1-1.8-.4-2.6-.6-1.9-2-3.4-4-4.5-1.4-.9-3-1.3-4.5-1.3M492.44,167.3c1.9-3.4,3.2-4.7,5.2-4.7.7,0,1.7.2,2.6.7,1.2.7,2.1,1.8,2.5,3,.1.5.2.9.2,1.4,0,1.9-1.1,3.8-2.2,5.8l-.7,1.2-9-4.9,1.4-2.5h0Z"/>
    <rect class="cls-3" x="542.57" y="107.42" width="5.1" height="32.1" transform="translate(36.61 355.47) rotate(-37.29)"/>
    <polygon class="cls-3" points="550.94 99.7 571.74 88.9 573.74 92.8 565.64 97 578.44 121.6 573.94 123.9 561.14 99.4 552.94 103.6 550.94 99.7"/>
    <polygon class="cls-3" points="602.74 79.1 608.14 77.6 603.84 99.1 607.34 111.3 602.44 112.7 598.94 100.6 583.74 84.7 589.04 83.2 599.94 94.6 602.74 79.1"/>
    <polygon class="cls-3" points="700.74 123 717.04 95.4 732.34 104.4 730.14 108.2 719.14 101.7 714.64 109.4 724.94 115.4 722.74 119.1 712.44 113.1 705.14 125.6 700.74 123"/>
    <polygon class="cls-3" points="783.24 194.5 794.94 180.5 796.74 186 788.04 196 800.94 198.9 802.64 204.1 784.94 199.8 772.44 214.9 770.64 209.4 780.14 198.4 765.94 195.2 764.24 189.9 783.24 194.5"/>
    <polygon class="cls-3" points="774.04 226 806.04 223.4 807.44 241.1 803.14 241.5 802.04 228.8 793.24 229.6 794.24 241.5 789.94 241.8 788.94 229.9 774.44 231.1 774.04 226"/>
    <path class="cls-3" d="M788.14,254.6c-3.7,0-7.1,1-9.8,3-4.8,3.5-5.7,8.5-5.7,11.5,0,10.8,10.2,15.2,17.9,15.2,3.7,0,7-1,9.7-2.9,5.4-3.9,5.7-9.8,5.7-11.7,0-9.5-8.8-15.1-17.8-15.1M790.74,279.1c-6.2,0-13.6-3.4-13.6-9.7,0-2.3.8-5.4,3.6-7.4,1.9-1.4,4.4-2.1,7.2-2.1,3.2,0,8.9.9,11.9,5,1,1.4,1.6,3.1,1.6,4.9,0,2.5-1,5.4-3.6,7.3-1.9,1.3-4.4,2-7.1,2"/>
    <path class="cls-3" d="M769.54,147.8c-3.2,0-6.7,1-10,3.1-6.2,3.9-8.4,9.5-8.4,13.6,0,2.6.7,5.2,2.2,7.6,3.4,5.4,8.6,6.7,12,6.7s6.8-1.1,10.1-3.2c4-2.5,8.4-7.2,8.4-13.5,0-2.6-.8-5.2-2.3-7.6-2.8-4.4-7.2-6.7-12-6.7M764.54,173.9c-2.9,0-5.5-1.2-7.3-4-.9-1.4-1.4-3-1.4-4.6,0-3.6,2.3-7.4,6.5-10,2.8-1.8,5.5-2.6,8-2.6,3.1,0,5.6,1.4,7.3,4,1,1.6,1.5,3.2,1.5,4.9,0,3.5-2.2,7-6.3,9.6-2.9,1.8-5.8,2.7-8.3,2.7"/>
    <path class="cls-3" d="M681.94,81.7c-6.7,0-12.5,4.5-14.9,12.5-.5,1.8-.8,3.5-.8,5.2,0,3.2.5,5.7,1.8,8.1,3,5.4,8.4,7.3,12.5,7.3,2.3,0,4.6-.5,6.6-1.7,5.4-3,9-9.8,9-16.4,0-2.8-.5-5.5-1.8-7.8-2.5-4.7-7.3-7.2-12.4-7.2M680.24,110.3c-2.3,0-5.7-1.1-7.6-4.6-.9-1.7-1.3-3.7-1.3-5.8,0-5.7,3.8-13.8,10.8-13.8,3.9,0,8.9,2.9,8.9,10.2.1,4.7-3.2,14-10.8,14"/>
    <polygon class="cls-3" points="504.14 198.1 508.44 199.3 503.54 216.9 472.44 208.4 477.84 190.6 482.04 191.8 478.14 204.6 486.64 207 489.94 195.3 494.14 196.5 490.84 208.1 500.54 210.8 504.14 198.1"/>
    <path class="cls-3" d="M512.24,131.1c4.5-5,9-4.7,9-4.7l.8,4.2s-3.5.1-6.3,3.2c-1.2,1.3-1.8,2.8-1.8,4,0,1,.4,1.9,1.2,2.7,2.2,2,6-.2,8.4-1.2,1.8-.8,4.4-1.8,7-1.8,1.9,0,4,.6,5.8,2.2,2.1,1.9,3.2,4.3,3.2,6.8,0,2.7-1.1,5.1-3.2,7.5-4.1,4.6-9.6,5.1-9.6,5.1l-1.1-4.3c3.2-.8,5.7-2,7.2-3.7,1.2-1.3,1.8-2.8,1.8-4.1,0-1.2-.5-2.3-1.5-3.2-.8-.7-1.8-1-2.8-.9-2.1,0-4.5,1.2-6.6,2-3.9,1.6-8,2.9-11.7-.4-1.9-1.7-2.9-3.8-2.9-6.1,0-2.4,1-5,3.1-7.3"/>
    <path class="cls-3" d="M765.54,296.1l12.1,5.5-.6,1.4c-1.7,3.7-2.3,4.3-7.3,4.4h-9.2l-2.2,5h10.6c2.2,0,3.8,0,5.1-.5.4-.2.9-.4,1.3-.8,0,.3-.1.5-.1.8,0,1.2.2,2.4.7,3.4,1.5,3.4,5.4,5,8.3,5,5.1,0,7.1-3.1,9.5-8.7.1-.2,3-6.9,3-6.9l-29.2-13.1-2,4.5h0ZM784.44,315.2c-1.5,0-3.9-.8-4.8-3.2-.2-.6-.3-1.2-.3-1.9,0-1.8.8-3.6,1.7-5.5l.5-1.2,9.3,4.2-1,2.5c-1.8,3.8-2.9,5.1-5.4,5.1"/>
    <path class="cls-3" d="M748.64,326.5c-3.3,4.2-5.9,7.9-5.9,12.7,0,4.1,1.9,8.7,6.6,12.5,3.1,2.5,6.6,3.8,10.3,3.8,4.5,0,8-1.3,13.6-8.3l5.1-6.4-25.1-20-4.6,5.7h0ZM760.04,350.6c-2.6,0-5-1-7.4-3-2.5-2-5.2-5.2-5.2-9.2,0-2.8,1.5-5.4,3.8-8.4l2.1-2.7,18.3,14.6-1.4,1.8c-3.3,4.4-5.7,6.9-10.2,6.9"/>
    <path class="cls-3" d="M821.74,245.4c0-101.2-82.5-183.5-183.9-183.5s-183.9,82.3-183.9,183.5c0,60.7,30,117.3,80.3,151.6,5,18.4,21.8,32,41.8,32,5.4,0,10.7-1,15.7-3,6.7,2.2,13.7,4.1,20.6,5.5-2,5.6-4.8,10.9-7.5,15.4h.2s-.1.1-.2.1l3.8,3.8c1-.5,2.1-.9,3.3-.9,3.8,0,6.9,3.1,6.9,6.9s-3.1,6.9-6.9,6.9c-3.3,0-6.2-2.1-7.7-4.4,0,0-.9,3.1-.9,7.2,0,13.2,14.4,28.2,34.3,34.6,20-6.2,34.3-21.4,34.3-34.6,0-4.5-.9-7.2-.9-7.2-1.5,1.9-4,4.4-7.8,4.4s-6.9-3.1-6.9-6.9,3.1-6.9,6.9-6.9c1.3,0,2.6.4,3.6,1l3.7-3.7h.1c-2.1-5-3.6-9.6-4.7-14.1,33.1-4.5,61-18.4,83.2-41.8h0c46.2-34.9,72.6-88.1,72.6-145.9M575.94,423.8c-20.9,0-37.9-17-37.9-38,0-6.6,1.7-12.7,4.6-18.1,2,1.8,4,3.6,6.2,5.5-1.8,3.9-2.9,8.2-2.9,12.8,0,11.4,5.8,20.8,16.6,27.2,6.2,3.7,13.3,7,20.8,9.9-2.4.4-4.9.7-7.4.7M637.84,368.6c-7.9,0-15.6-.8-23.2-2.2-7.3-14.4-22.4-23.6-38.6-23.6-4,0-7.8.6-11.5,1.6-31.2-23.2-49.8-60.1-49.8-98.9,0-67.9,55.3-123.2,123.2-123.2s123.2,55.3,123.2,123.2-55.4,123.1-123.3,123.1M665.24,370.8c-3.7,5.3-5.9,12.6-6.5,20-11.7-3-22.2-7-31.5-11.2,1.8-3.4,6.8-5.8,10.6-5.8,9.4-.1,18.6-1.1,27.4-3M626.14,373.2c-1.6,1.2-2.8,2.6-3.7,4.1-4.7-2.3-10.5-5.2-14.3-7.3,5.4,1.2,12.5,2.7,18,3.2M575.94,347.9c12.7,0,24.6,6.5,31.5,16.9-6.1-1.5-12.1-3.6-17.9-6h0l-.2-.1c-4.1-1.9-8.5-2.9-13-2.9-10.1,0-19,5-24.6,12.5-2.3-1.3-4.7-2.6-6.9-4.1,6.8-9.8,18.2-16.3,31.1-16.3M663.24,444.6c-6.8,0-12.3,4.8-12.3,12.2s5.6,12.2,12.3,12.2c1,0,2-.2,2.9-.4-1.4,10.2-13.3,21.6-28.6,26.7-15.2-5.1-27.1-16.6-28.7-26.7.9.2,1.9.4,2.9.4,7.3,0,12.3-5.1,12.3-12.2s-5.3-12-12.1-12.1c2.1-3.8,4.1-7.8,5.5-12.1,8.4,1.5,16.7,2.3,24.5,2.3,6.3,0,12.5-.3,18.5-1,.8,3.5,2,7.1,3.4,10.9-.2-.1-.4-.1-.6-.2M642.04,429.6c-24.7,0-55.4-8.4-76.6-20.9-6.4-3.8-14-10.8-14-22.8,0-3.2.6-6.3,1.8-9.2,7.9,6.5,16.1,12.6,21.2,15.4,1.2.6,1.9,1,3.2,1,3.3,0,6-2.7,6-6,0-2.5-1.4-4.6-3.6-5.5-4.4-1.9-13.5-5.7-23.4-10.8,4.6-6,11.7-9.9,19.8-9.9,3.7,0,7.3.8,10.6,2.4l6.8,3.9c21.5,13.1,76.8,46.8,143.5,28.3-25.5,22.9-56.7,34.2-95.3,34.1M745.64,387.6c-29.9,10.6-57.8,9.8-81.6,4.5.8-10.6,5.2-22,11.9-24.1,52.4-16.2,90.6-65.1,90.6-122.6,0-70.8-57.7-128.4-128.7-128.4s-128.7,57.6-128.7,128.4c0,39.4,18.4,76.8,49.4,101-7.4,3.2-13.6,8.5-18.2,15-2.3-1.6-4.6-3.3-6.7-5l-1.2,1.2c1.4,1.7,3.6,3.9,6.2,6.4-3.8,6.4-6,13.9-6,21.9,0,1.2.1,2.5.2,3.7-46.1-33.6-73.5-87-73.5-144.1,0-98.4,80.1-178.4,178.5-178.4s178.5,80,178.5,178.4c0,56.2-25.8,108-70.7,142.1"/>
  </g>
  <g>
    <g>
      <path class="cls-2" d="M1427.84,819.3h-327.7v81.9h819.3V81.9h-81.9v327.7c0,226.3-183.4,409.7-409.7,409.7h0Z"/>
      <path class="cls-2" d="M1100.14,819.3v-327.7c0-226.2,183.4-409.7,409.7-409.7h327.7V0h-819.3v819.3h81.9Z"/>
      <path class="cls-1" d="M1100.14,491.6v327.7h327.7c226.2,0,409.7-183.4,409.7-409.7V81.9h-327.7c-226.3,0-409.7,183.4-409.7,409.7h0Z"/>
    </g>
    <g>
      <path class="cls-2" d="M1249.64,316.8l13.3,54.8,15.8-54.8h10.7l15.6,54.8,13.6-54.8h11.5l-18.8,74.8h-10.7l-16.5-54.8-17.1,54.8h-10.6l-18.5-74.8h11.7Z"/>
      <path class="cls-2" d="M1343.14,366.5c1.2,11.9,8,17.2,15.6,17.2,5.6,0,9.9-2.9,12.5-6.7l6.8,6c-3.1,4.3-9.5,10-19.8,10-13.6,0-24.8-10.2-24.8-30.3s10.1-29.7,24.1-29.7,24.2,10.6,24.2,29.7c0,1.4-.1,2.6-.2,3.8h-38.4ZM1343.14,358.9h29.1c-1.2-10.9-6.8-16.5-14.5-16.5s-13.6,5.9-14.6,16.5Z"/>
      <path class="cls-2" d="M1406.44,311.7v79.9h-10.3v-76.4l10.3-3.5Z"/>
      <path class="cls-2" d="M1433.14,311.7v79.9h-10.3v-76.4l10.3-3.5Z"/>
      <path class="cls-2" d="M1459.84,311.7v29.3c3.7-4.5,9.2-8,16.7-8,15.9,0,21.8,15.2,21.8,30s-5.9,29.9-21.8,29.9c-7.8,0-13.5-3.7-17.2-8.6v7.2h-9.7v-76.3l10.2-3.5h0ZM1459.84,351.7v22.5c2.9,5.6,7.3,9.3,14.2,9.3,10.9,0,14.5-9.7,14.5-20.5s-3.6-20.5-14.4-20.5c-6.9-.1-11.4,3.9-14.3,9.2h0Z"/>
      <path class="cls-2" d="M1520.24,366.5c1.2,11.9,8,17.2,15.6,17.2,5.6,0,9.9-2.9,12.5-6.7l6.8,6c-3.1,4.3-9.5,10-19.8,10-13.6,0-24.8-10.2-24.8-30.3s10.1-29.7,24.1-29.7,24.2,10.6,24.2,29.7c0,1.4-.1,2.6-.2,3.8h-38.4ZM1520.24,358.9h29.1c-1.2-10.9-6.8-16.5-14.5-16.5s-13.5,5.9-14.6,16.5h0Z"/>
      <path class="cls-2" d="M1584.34,318.8c0,3.6-2.5,6.2-5.9,6.2s-5.8-2.6-5.8-6.2,2.4-6.2,5.8-6.2,5.9,2.5,5.9,6.2ZM1583.64,334.4v57.2h-10.3v-57.2h10.3Z"/>
      <path class="cls-2" d="M1609.74,334.4v7c4.2-5.5,10.3-8.4,18.1-8.4,11.6,0,19.6,6.4,19.6,22.4v36.2h-10.3v-35.1c0-9.9-5-13.7-12.5-13.7-6.1,0-11.1,2.5-14.3,10v38.8h-10.3v-57.2h9.7Z"/>
      <path class="cls-2" d="M1710.14,334.4v46.3c0,20.8-9.4,29.2-31.2,33.4l-1.2-9.2c16-3.7,22.8-9.3,22.8-21.6v-2c-3.8,4.6-9.5,8-17.3,8-15.9,0-21.7-14.4-21.7-28.1s5.8-28.1,21.7-28.1c7.8,0,13.5,3.5,17.3,8.1v-6.7l9.6-.1h0ZM1700.44,370.9v-19.2c-3-5.5-7.6-9.3-14.7-9.3-11,0-14.6,9.2-14.6,18.9s3.6,19,14.5,19c7.3,0,11.8-4,14.8-9.4h0Z"/>
      <path class="cls-2" d="M1275.54,437.6c15.1,0,25.2,7.7,25.2,23,0,11.9-6.1,19.1-15.7,21.8l19.2,29.9h-12.5l-17.9-28.8h-17.8v28.8h-11v-74.8h30.5v.1ZM1255.94,474.2h19.8c8.7,0,14.5-4.2,14.5-13.3s-5.8-13.2-14.5-13.2h-19.8v26.5h0Z"/>
      <path class="cls-2" d="M1319.34,487.4c1.2,11.9,8,17.2,15.6,17.2,5.6,0,9.9-2.9,12.5-6.7l6.8,6c-3.1,4.3-9.5,10-19.8,10-13.6,0-24.8-10.2-24.8-30.3s10.1-29.7,24.1-29.7,24.2,10.6,24.2,29.7c0,1.4-.1,2.6-.2,3.8h-38.4ZM1319.34,479.7h29.1c-1.2-10.9-6.8-16.5-14.5-16.5s-13.6,5.9-14.6,16.5Z"/>
      <path class="cls-2" d="M1407.84,470.3c-3.8-4-10.2-7.2-17.5-7.2s-10.7,3.1-10.7,7c0,2.9,1.8,4.6,4.9,6,5.1,2.2,13.4,3.5,19.8,6.6,5.8,2.9,8.7,6.7,8.7,13.3,0,13.4-11.5,17.9-22.8,17.9-10.5,0-18.8-3.9-23-8.1l4-8.6c4.1,3.9,11.1,7.2,18.9,7.2,7.3,0,12.8-2.9,12.8-8.4,0-3.1-1.8-5-6.2-6.7-6.2-2.5-14.2-3.9-19-6.3-4.9-2.4-8.1-6.4-8.1-12.6,0-10.5,9.1-16.4,21.3-16.4,9.7,0,17,3.8,20.9,7.6l-4,8.7Z"/>
      <path class="cls-2" d="M1431.44,487.4c1.2,11.9,8,17.2,15.6,17.2,5.6,0,9.9-2.9,12.5-6.7l6.8,6c-3.1,4.3-9.5,10-19.8,10-13.6,0-24.8-10.2-24.8-30.3s10.1-29.7,24.1-29.7,24.2,10.6,24.2,29.7c0,1.4-.1,2.6-.2,3.8h-38.4ZM1431.44,479.7h29.1c-1.2-10.9-6.8-16.5-14.5-16.5s-13.6,5.9-14.6,16.5Z"/>
      <path class="cls-2" d="M1485.74,459.9c4.2-3.1,10.9-6,20.4-6,13,0,22.2,5.4,22.2,22.3v36.3h-9.5v-4.1c-4.8,3.1-10.6,4.9-16.9,4.9-11.5,0-20.5-5.8-20.5-18.4s9.2-19.1,21.8-19.1c5.1,0,10.5,1.1,15,3v-2c0-10.2-5.1-13.2-13.3-13.2-6.1,0-10.9,1.6-15.1,4.5l-4.1-8.2ZM1518.34,501.3v-15.9c-3.9-1.4-8.5-2.2-12.5-2.2-8.2,0-14.6,3.4-14.6,11s5.8,10.4,13.1,10.4c4.5.1,9.8-1.1,14-3.3h0Z"/>
      <path class="cls-2" d="M1576.84,466.4c-2.1-2-4.8-2.8-8.2-2.8-5.8,0-10.7,2.3-13.9,10.3v38.6h-10.3v-57.2h9.7v6.9c4-5.4,9.5-8.3,16.4-8.3,5.1,0,8.1,1.6,10.1,3.5l-3.8,9h0Z"/>
      <path class="cls-2" d="M1625.74,471.8c-2.5-5.5-7-8.4-12.8-8.4-8.8,0-15.8,6.8-15.8,20.5s7,20.4,15.2,20.4c5.8,0,10.3-3.2,13.1-8l7.3,5.4c-2.5,4.3-9.1,12.1-21,12.1-13.6,0-24.8-10.4-24.8-30s11.1-29.9,25.8-29.9c10.4,0,17.3,5.1,20.2,11.9l-7.2,6h0Z"/>
      <path class="cls-2" d="M1654.44,432.5v29.1c4.2-5.1,10.1-7.8,17.5-7.8,11.6,0,19.6,6.4,19.6,22.4v36.2h-10.3v-35.1c0-9.9-5-13.7-12.5-13.7-6.1,0-11.1,2.5-14.3,10v38.8h-10.3v-76.4l10.3-3.5h0Z"/>
      <path class="cls-2" d="M1295.74,579.6c-4.3-7.8-10.1-12.3-19.2-12.3-13.5,0-22.5,9.7-22.5,28.7s9,28.5,22.5,28.5c8.1,0,13.8-3.5,18.8-11.5l8.2,6c-6.4,10.6-15.5,15.7-27.2,15.7-19,0-33.3-13.3-33.3-38.8s14.2-38.8,33.5-38.8c13.7,0,22.5,6.9,27.2,16.5l-8,6h0Z"/>
      <path class="cls-2" d="M1321.44,608.2c1.2,11.9,8,17.2,15.6,17.2,5.6,0,9.9-2.9,12.5-6.7l6.8,6c-3.1,4.3-9.5,10-19.8,10-13.6,0-24.8-10.2-24.8-30.3s10.1-29.7,24.1-29.7,24.2,10.6,24.2,29.7c0,1.4-.1,2.6-.2,3.8h-38.4ZM1321.44,600.5h29.1c-1.2-10.9-6.8-16.5-14.5-16.5s-13.5,5.9-14.6,16.5Z"/>
      <path class="cls-2" d="M1384.24,576.1v7c4.2-5.5,10.3-8.4,18.1-8.4,11.6,0,19.6,6.4,19.6,22.4v36.2h-10.3v-35.1c0-9.9-5-13.7-12.5-13.7-6.1,0-11.1,2.5-14.3,10v38.8h-10.3v-57.2h9.7Z"/>
      <path class="cls-2" d="M1438.54,576.1v-15.5l10.3-3.3v18.8h14.6v8.4h-14.6v32.4c0,4.5,2.4,6.9,6.7,6.9,3,0,5.6-1,8.2-3.5l-1.7,9.4c-2.1,2.4-6.5,4-10.6,4-7,0-12.9-4.8-12.9-14.6v-34.7h-6.5v-8.4l6.5.1h0Z"/>
      <path class="cls-2" d="M1506.34,587.2c-2.1-2-4.8-2.8-8.2-2.8-5.8,0-10.7,2.3-13.9,10.3v38.6h-10.3v-57.2h9.7v6.9c4-5.4,9.5-8.3,16.4-8.3,5.1,0,8.1,1.6,10.1,3.5l-3.8,9h0Z"/>
      <path class="cls-2" d="M1526.34,608.2c1.2,11.9,8,17.2,15.6,17.2,5.6,0,9.9-2.9,12.5-6.7l6.8,6c-3.1,4.3-9.5,10-19.8,10-13.6,0-24.8-10.2-24.8-30.3s10.1-29.7,24.1-29.7,24.2,10.6,24.2,29.7c0,1.4-.1,2.6-.2,3.8h-38.4ZM1526.34,600.5h29.1c-1.2-10.9-6.8-16.5-14.5-16.5s-13.5,5.9-14.6,16.5h0Z"/>
    </g>
  </g>
</svg>