<svg id="Layer_1" data-name="Layer 1" xmlns="http://www.w3.org/2000/svg" viewBox="0 0 204 32">
  <g>
    <g>
      <g>
        <path d="M15.53,12.78l1,7.1,3.22-5.37-1.37,5.91,3.47-3.32L20,21.48l2.88-2.15C21.57,23,20.4,25,15.53,26.69h0C10.67,25,9.5,23,8.16,19.33L11,21.48,9.24,17.1l3.46,3.32-1.36-5.91,3.22,5.37,1-7.1Z" fill="#010101"/>
        <g>
          <path d="M10.44,10.4A2.06,2.06,0,0,1,8.09,8.29V5.12H9.31V8.24a1,1,0,0,0,1.14,1.19,1,1,0,0,0,1.16-1.17V5.12h1.22V8.27a2.11,2.11,0,0,1-2.39,2.13" fill="#010101"/>
          <path d="M15.05,7.2h.45c.59,0,.92-.22.92-.62S16.14,6,15.55,6h-.5Zm0,2.25h.53c.48,0,1-.13,1-.7S16.05,8,15.56,8h-.51Zm.53.86H13.87V5.12h1.74c1.26,0,2,.49,2,1.38a1.12,1.12,0,0,1-.71,1,1.24,1.24,0,0,1,.94,1.22c0,1-.79,1.54-2.22,1.54" fill="#010101"/>
          <path d="M21.22,10.4a2.55,2.55,0,0,1-2.77-2.68A2.61,2.61,0,0,1,21.26,5a3.2,3.2,0,0,1,1.59.37l0,0-.18,1.05-.08-.05A2.32,2.32,0,0,0,21.3,6a1.54,1.54,0,0,0-1.6,1.73,1.55,1.55,0,0,0,1.61,1.71A2.69,2.69,0,0,0,22.73,9L22.81,9l.17,1,0,0a3.48,3.48,0,0,1-1.73.44" fill="#010101"/>
        </g>
        <path d="M6.36,3.49V17.06c0,5.7,3.1,9.83,9.17,11.45,6.08-1.62,9.18-5.75,9.18-11.45V3.49Zm9.17,24.3C9.79,26.17,7.05,22.38,7.05,17V4.18H24V17C24,22.38,21.28,26.17,15.53,27.79Z" fill="#010101"/>
        <path d="M15.53,12.16c1.28,0,1.46.51,2.49.51s1.2-.51,2.48-.51,1.46.51,2.48.51V11.48c-1,0-1.2-.51-2.48-.51s-1.46.51-2.48.51S16.81,11,15.53,11s-1.45.51-2.48.51S11.85,11,10.57,11s-1.46.51-2.48.51v1.19c1,0,1.2-.51,2.48-.51s1.45.51,2.48.51S14.26,12.16,15.53,12.16Z" fill="#010101"/>
        <g>
          <path d="M16.35,14.31a5.18,5.18,0,0,0,1.67.42c1,0,1.2-.51,2.48-.51s1.46.52,2.48.51V13.54c-1,0-1.2-.5-2.48-.5s-1.46.51-2.48.5c-.83,0-1.1-.32-1.84-.45Z" fill="#010101"/>
          <path d="M13.05,14.73a5.18,5.18,0,0,0,1.67-.42l.17-1.22c-.74.13-1,.46-1.84.45-1,0-1.2-.5-2.48-.5s-1.46.51-2.48.5v1.19c1,0,1.2-.51,2.48-.51S12,14.74,13.05,14.73Z" fill="#010101"/>
        </g>
        <g>
          <path d="M16.64,16.46a4.59,4.59,0,0,0,1,.32l.72-1.2a2.05,2.05,0,0,1-.37,0,4.57,4.57,0,0,1-1.55-.39Z" fill="#010101"/>
          <path d="M19.92,16.33a3.37,3.37,0,0,1,.58,0c1.28,0,1.46.52,2.48.51V15.61c-1,0-1.2-.51-2.48-.51h-.3Z" fill="#010101"/>
          <path d="M11.15,16.33l-.28-1.22h-.3c-1.28,0-1.46.51-2.48.51V16.8c1,0,1.2-.51,2.48-.51A3.37,3.37,0,0,1,11.15,16.33Z" fill="#010101"/>
          <path d="M13.39,16.78a4.52,4.52,0,0,0,1-.32l.17-1.24a4.57,4.57,0,0,1-1.55.39,2.05,2.05,0,0,1-.37,0Z" fill="#010101"/>
        </g>
      </g>
      <g>
        <path d="M35.81,10.31h-.9V6.53H33.5v-.8h3.67l.12.8H35.81v3.78Z" fill="#010101"/>
        <path d="M42.75,10.31h-.9v-2h-2v2H39V5.73h.89V7.52h2V5.73h.9v4.58Z" fill="#010101"/>
        <path d="M48.26,10.31H45.31V5.73H48.2v.79h-2v1h1.59l.13.8H46.2V9.52h2.06v.79Z" fill="#010101"/>
        <path d="M55.18,10.4A1.72,1.72,0,0,1,53.3,8.52V5.73h.89V8.48c0,.74.36,1.15,1,1.15s1-.39,1-1.13V5.73h.89V8.48a1.75,1.75,0,0,1-1.9,1.92Z" fill="#010101"/>
        <path d="M63.28,10.31h-.77L60.32,7.1v3.21H59.5V5.73h.87l2.09,3.08V5.73h.82v4.58Z" fill="#010101"/>
        <path d="M66.73,10.31h-.9V5.73h.9v4.58Z" fill="#010101"/>
        <path d="M71.07,10.38h-.8L68.5,5.84l.89-.2L70.7,9.22,72,5.73h.9l-1.82,4.65Z" fill="#010101"/>
        <path d="M77.53,10.31h-3V5.73h2.89v.79h-2v1h1.59l.13.8H75.47V9.52h2.06v.79Z" fill="#010101"/>
        <path d="M82.4,10.37,81.1,8.58h-.43v1.73h-.89V5.73h1.44c1.09,0,1.74.53,1.74,1.43a1.29,1.29,0,0,1-.91,1.29l1.28,1.71-.93.21ZM80.67,7.86h.55c.55,0,.85-.24.85-.7s-.46-.65-.85-.65h-.55V7.86Z" fill="#010101"/>
        <path d="M86.59,10.38A4.35,4.35,0,0,1,85,10l0,0,.13-.82.06,0a3.41,3.41,0,0,0,1.44.4c.5,0,.83-.23.83-.57s-.21-.47-.85-.69c-1-.34-1.45-.64-1.45-1.37a1.39,1.39,0,0,1,1.55-1.34A3.38,3.38,0,0,1,88,5.93l0,0-.13.83-.05,0a2.62,2.62,0,0,0-1.2-.33c-.4,0-.7.21-.7.49s.21.42.92.66c.9.32,1.39.63,1.39,1.39s-.68,1.42-1.7,1.42Z" fill="#010101"/>
        <path d="M91.41,10.31h-.9V5.73h.9v4.58Z" fill="#010101"/>
        <path d="M95.45,10.31h-.9V6.53H93.14v-.8h3.67l.12.8H95.45v3.78Z" fill="#010101"/>
        <path d="M100.07,10.31h-.9V8.54l-1.64-2.7.91-.2,1.19,2.09,1.16-2h1l-1.7,2.8v1.78Z" fill="#010101"/>
        <path d="M107.51,10.4A2.22,2.22,0,0,1,105.3,8a2.21,2.21,0,1,1,4.41,0,2.21,2.21,0,0,1-2.2,2.38Zm0-4c-.78,0-1.3.65-1.3,1.61s.55,1.62,1.3,1.62,1.3-.65,1.3-1.62a1.43,1.43,0,0,0-1.3-1.61Z" fill="#010101"/>
        <path d="M112.66,10.31h-.88V5.73h2.81v.79h-1.93V7.61h1.52l.13.79h-1.65v1.91Z" fill="#010101"/>
        <path d="M121,10.31h-1.51V5.73H121c1,0,1.54.44,1.54,1.19a1,1,0,0,1-.57,1A1.08,1.08,0,0,1,122.7,9c0,.88-.62,1.36-1.74,1.36Zm-.66-.74H121c.6,0,.89-.21.89-.62s-.29-.67-.88-.67h-.67V9.57Zm0-2h.59c.51,0,.76-.19.76-.56s-.07-.51-.74-.51h-.61V7.55Z" fill="#010101"/>
        <path d="M127.48,10.37l-1.31-1.79h-.41v1.73h-.89V5.73h1.43c1.09,0,1.74.53,1.74,1.43a1.29,1.29,0,0,1-.91,1.29l1.27,1.71-.92.21Zm-1.72-2.51h.54c.55,0,.85-.24.85-.7s-.46-.65-.85-.65h-.54V7.86Z" fill="#010101"/>
        <path d="M131.27,10.31h-.9V5.73h.9v4.58Z" fill="#010101"/>
        <path d="M135.32,10.31h-.9V6.53H133v-.8h3.67l.12.8h-1.48v3.78Z" fill="#010101"/>
        <path d="M139.34,10.31h-.9V5.73h.9v4.58Z" fill="#010101"/>
        <path d="M143,10.38a4.31,4.31,0,0,1-1.56-.34l0,0,.13-.82,0,0a3.45,3.45,0,0,0,1.45.4c.5,0,.83-.23.83-.57s-.22-.47-.86-.69c-1-.34-1.45-.64-1.45-1.37a1.4,1.4,0,0,1,1.56-1.34,3.38,3.38,0,0,1,1.32.27l0,0-.13.83-.06,0a2.59,2.59,0,0,0-1.19-.33c-.4,0-.7.21-.7.49s.21.42.92.66c.9.32,1.38.63,1.38,1.39s-.68,1.42-1.69,1.42Z" fill="#010101"/>
        <path d="M150.45,10.31h-.9v-2h-2v2h-.89V5.73h.89V7.52h2V5.73h.9v4.58Z" fill="#010101"/>
        <path d="M157.34,10.4A2.17,2.17,0,0,1,155.13,8a2.18,2.18,0,0,1,2.21-2.39,2.32,2.32,0,0,1,1.32.35l0,0-.14.84-.06,0a1.83,1.83,0,0,0-1.12-.4c-.83,0-1.32.61-1.32,1.62s.51,1.63,1.34,1.63a2.16,2.16,0,0,0,1.19-.41l.06,0,.12.78h0a2.47,2.47,0,0,1-1.39.41Z" fill="#010101"/>
        <path d="M162.62,10.4A2.22,2.22,0,0,1,160.41,8a2.21,2.21,0,1,1,4.41,0,2.22,2.22,0,0,1-2.2,2.38Zm0-4c-.78,0-1.31.65-1.31,1.61s.55,1.62,1.31,1.62S163.91,9,163.91,8s-.54-1.61-1.29-1.61Z" fill="#010101"/>
        <path d="M169.5,10.31h-2.72V5.73h.89v3.8h1.7l.13.78Z" fill="#010101"/>
        <path d="M173,10.4a1.72,1.72,0,0,1-1.87-1.88V5.73H172V8.48c0,.74.35,1.15,1,1.15s1-.39,1-1.13V5.73h.9V8.48A1.76,1.76,0,0,1,173,10.4Z" fill="#010101"/>
        <path d="M180.18,10.33h-.86L178.1,6.85l-.26,3.46H177l.36-4.58h1.21l1.2,3.51L181,5.73h1.19l.36,4.58h-.89l-.26-3.46-1.23,3.48Z" fill="#010101"/>
        <path d="M186.47,10.31H185V5.73h1.5c1,0,1.55.44,1.55,1.19a1,1,0,0,1-.57,1A1.07,1.07,0,0,1,188.21,9c0,.88-.62,1.36-1.74,1.36Zm-.65-.74h.66c.6,0,.89-.21.89-.62s-.3-.67-.88-.67h-.67V9.57Zm0-2h.58c.51,0,.77-.19.77-.56s-.08-.51-.74-.51h-.61V7.55Z" fill="#010101"/>
        <path d="M191.36,10.31h-.9V5.73h.9v4.58Z" fill="#010101"/>
        <path d="M196.76,10.4l-.44-1.21h-1.93L194,10.31h-.88l1.81-4.64h1l1.78,4.53-.88.2Zm-2.07-2H196c-.08-.24-.42-1.14-.67-1.8l-.66,1.8Z" fill="#010101"/>
      </g>
    </g>
    <g>
      <path d="M36.38,24.63h-1l-1.88-5,1-.18,1.36,3.92,1.35-3.87h1Z" fill="#010101"/>
      <path d="M40.49,24.61l-.07-.47a1.59,1.59,0,0,1-1.19.54.94.94,0,0,1-1-1c0-.87.71-1.25,2.16-1.39v-.1c0-.39-.22-.54-.62-.54a2.93,2.93,0,0,0-1.19.29l-.11-.71A3.73,3.73,0,0,1,39.87,21c.93,0,1.39.34,1.39,1.2v2.46Zm-.12-1.79c-1,.13-1.28.43-1.28.77a.4.4,0,0,0,.44.42,1.2,1.2,0,0,0,.84-.39Z" fill="#010101"/>
      <path d="M44.58,24.61V22.26c0-.31-.13-.52-.46-.52a1.2,1.2,0,0,0-.81.45v2.42h-.89V21h.75l.09.5A1.72,1.72,0,0,1,44.45,21a1,1,0,0,1,1,1.08v2.58Z" fill="#010101"/>
      <path d="M48.17,24.67a1.65,1.65,0,0,1-1.71-1.84A1.7,1.7,0,0,1,48.2,21a2,2,0,0,1,1.12.31l-.13.8a1.48,1.48,0,0,0-.95-.34c-.51,0-.88.38-.88,1.09s.4,1.1.94,1.1a1.47,1.47,0,0,0,.94-.34l.11.76A2,2,0,0,1,48.17,24.67Z" fill="#010101"/>
      <path d="M51.78,24.68a1.68,1.68,0,0,1-1.68-1.86,1.7,1.7,0,1,1,3.38,0A1.68,1.68,0,0,1,51.78,24.68Zm0-3c-.53,0-.81.46-.81,1.13s.29,1.14.81,1.14.83-.47.83-1.14S52.32,21.69,51.78,21.69Z" fill="#010101"/>
      <path d="M56.76,24.61l-.08-.51a1.74,1.74,0,0,1-1.19.58,1,1,0,0,1-1-1.08V21h.89v2.34c0,.31.14.52.45.52a1.22,1.22,0,0,0,.83-.45V21h.89v3.58Z" fill="#010101"/>
      <path d="M60.47,24.62H59.6l-1.25-3.53.94-.12.8,2.55L60.86,21h.88Z" fill="#010101"/>
      <path d="M64,24.68a1.65,1.65,0,0,1-1.75-1.86A1.67,1.67,0,0,1,63.89,21c1.07,0,1.55.81,1.55,1.83V23H63.13c0,.71.42,1,1,1a2.1,2.1,0,0,0,1.23-.44l.11.69A2.46,2.46,0,0,1,64,24.68Zm-.86-2.25h1.44c-.06-.55-.29-.86-.72-.86S63.21,21.86,63.14,22.43Z" fill="#010101"/>
      <path d="M67.36,22.55v2.06h-.89V21h.76l.11.71A1.4,1.4,0,0,1,68.49,21l.14.88A1.7,1.7,0,0,0,67.36,22.55Z" fill="#010101"/>
      <path d="M72.86,24.67a3.64,3.64,0,0,1-1.61-.36l.15-.9a3,3,0,0,0,1.47.46c.46,0,.77-.22.77-.63s-.18-.53-.92-.85c-1-.41-1.4-.73-1.4-1.53A1.47,1.47,0,0,1,73,19.43a2.78,2.78,0,0,1,1.35.31l-.15.89a2.32,2.32,0,0,0-1.21-.4c-.49,0-.71.24-.71.55s.17.48.88.78c1,.43,1.44.79,1.44,1.59A1.52,1.52,0,0,1,72.86,24.67Z" fill="#010101"/>
      <path d="M77.15,24.67a1.65,1.65,0,0,1-1.7-1.84A1.7,1.7,0,0,1,77.18,21a2,2,0,0,1,1.12.31l-.12.8a1.52,1.52,0,0,0-1-.34c-.51,0-.88.38-.88,1.09s.4,1.1.94,1.1a1.43,1.43,0,0,0,.93-.34l.11.76A1.93,1.93,0,0,1,77.15,24.67Z" fill="#010101"/>
      <path d="M81.49,24.61V22.26c0-.31-.14-.52-.46-.52a1.22,1.22,0,0,0-.82.45v2.42h-.89V19.39l.89-.14v2.23A1.68,1.68,0,0,1,81.35,21a1,1,0,0,1,1,1.08v2.58Z" fill="#010101"/>
      <path d="M85,24.68a1.67,1.67,0,0,1-1.68-1.86,1.69,1.69,0,1,1,3.37,0A1.68,1.68,0,0,1,85,24.68Zm0-3c-.53,0-.81.46-.81,1.13S84.52,24,85,24s.83-.47.83-1.14S85.57,21.69,85,21.69Z" fill="#010101"/>
      <path d="M89.22,24.68a1.67,1.67,0,0,1-1.67-1.86,1.69,1.69,0,1,1,3.37,0A1.68,1.68,0,0,1,89.22,24.68Zm0-3c-.52,0-.81.46-.81,1.13S88.7,24,89.22,24s.83-.47.83-1.14S89.76,21.69,89.22,21.69Z" fill="#010101"/>
      <path d="M91.93,24.61V19.39l.89-.14v5.36Z" fill="#010101"/>
      <path d="M97.1,24.68a1.67,1.67,0,0,1-1.68-1.86,1.69,1.69,0,1,1,3.37,0A1.68,1.68,0,0,1,97.1,24.68Zm0-3c-.53,0-.81.46-.81,1.13S96.58,24,97.1,24s.83-.47.83-1.14S97.63,21.69,97.1,21.69Z" fill="#010101"/>
      <path d="M101.32,20.05c-.31,0-.47.13-.47.45V21h.68l.11.72h-.79v2.86H100V21.75h-.51V21H100v-.62c0-.79.51-1.09,1.24-1.09a2.05,2.05,0,0,1,.37,0l.12.73A1.9,1.9,0,0,0,101.32,20.05Z" fill="#010101"/>
      <path d="M104.44,24.61V19.49h3v.83h-2v1.22H107l.13.82h-1.67v1.42h2.07v.83Z" fill="#010101"/>
      <path d="M110,24.67a1.65,1.65,0,0,1-1.7-1.84A1.7,1.7,0,0,1,110,21a2,2,0,0,1,1.12.31l-.12.8a1.52,1.52,0,0,0-1-.34c-.51,0-.89.38-.89,1.09s.41,1.1,1,1.1a1.43,1.43,0,0,0,.93-.34l.11.76A1.93,1.93,0,0,1,110,24.67Z" fill="#010101"/>
      <path d="M113.59,24.68a1.68,1.68,0,0,1-1.68-1.86,1.7,1.7,0,1,1,3.38,0A1.68,1.68,0,0,1,113.59,24.68Zm0-3c-.53,0-.81.46-.81,1.13s.29,1.14.81,1.14.83-.47.83-1.14S114.12,21.69,113.59,21.69Z" fill="#010101"/>
      <path d="M118.44,24.61V22.26c0-.31-.13-.52-.46-.52a1.22,1.22,0,0,0-.82.45v2.42h-.89V21H117l.08.5a1.74,1.74,0,0,1,1.2-.58,1,1,0,0,1,1,1.08v2.58Z" fill="#010101"/>
      <path d="M122,24.68a1.68,1.68,0,0,1-1.68-1.86,1.7,1.7,0,1,1,3.38,0A1.68,1.68,0,0,1,122,24.68Zm0-3c-.53,0-.81.46-.81,1.13S121.47,24,122,24s.83-.47.83-1.14S122.52,21.69,122,21.69Z" fill="#010101"/>
      <path d="M128.93,24.61V22.26c0-.31-.12-.52-.44-.52a1.21,1.21,0,0,0-.8.44v2.43h-.89V22.26c0-.31-.11-.52-.44-.52a1.17,1.17,0,0,0-.79.44v2.43h-.89V21h.75l.08.5a1.72,1.72,0,0,1,1.18-.58.88.88,0,0,1,.92.58,1.7,1.7,0,0,1,1.2-.58,1,1,0,0,1,1,1.08v2.58Z" fill="#010101"/>
      <path d="M131.45,20.42a.51.51,0,0,1-.54-.5.54.54,0,0,1,1.07,0A.5.5,0,0,1,131.45,20.42ZM131,24.61V21h.89v3.58Z" fill="#010101"/>
      <path d="M134.59,24.67a1.65,1.65,0,0,1-1.7-1.84A1.69,1.69,0,0,1,134.62,21a2,2,0,0,1,1.12.31l-.13.8a1.47,1.47,0,0,0-.94-.34c-.52,0-.89.38-.89,1.09s.4,1.1.94,1.1a1.44,1.44,0,0,0,.94-.34l.11.76A2,2,0,0,1,134.59,24.67Z" fill="#010101"/>
      <path d="M138,24.67a3.21,3.21,0,0,1-1.4-.34l.12-.75A2.43,2.43,0,0,0,138,24c.38,0,.59-.14.59-.37s-.16-.36-.73-.5c-.87-.22-1.23-.48-1.23-1.13S137.13,21,138,21a3,3,0,0,1,1.25.25l-.11.74a2.46,2.46,0,0,0-1.14-.32c-.33,0-.5.12-.5.32s.14.3.67.44c.93.24,1.29.49,1.29,1.16S138.92,24.67,138,24.67Z" fill="#010101"/>
    </g>
  </g>
</svg>
