<?xml version="1.0" encoding="UTF-8"?>
<svg id="Layer_1" data-name="Layer 1" xmlns="http://www.w3.org/2000/svg" viewBox="0 0 151.03 28.28">
  <defs>
    <style>
      .cls-1 {
        fill: #fff;
      }

      .cls-2 {
        fill-rule: evenodd;
      }
    </style>
  </defs>
  <path class="cls-2" d="m130.45,25.26s-.02-.03-.05-.06c-.69,0-1-.47-1.57-.64-.07-.05-.14-.1-.2-.14-.38-.1-1.15-.82-1.14-1.21-.02,0-.05,0-.07-.01-.1-.24-.28-.3-.32-.56q-.18-.04-.65.02c-.27.93-1.12.92-1.78,1.43-.22.08-.5.1-.7.19,0,.03,0,.05,0,.1-.33-.02-.52.14-.86.16-.02.03-.02.07-.03.1-.29.1-.56.11-.83.22-.01.04-.02.07-.03.11-.16-.02-.31-.02-.47-.02-.02.01-.03.03-.05.04-1.54-.13-1.59-.9-1.57-2.06.16-.01.29-.02.43-.02,1.09.57,3.39-.28,4.05-1.18.16-.08.19-.14.27-.17,0-.05.02-.11.03-.16.06,0,.11-.03.16-.04-.04-.53.1-.7.2-1.12q-.07-.01-.09-.07t.09-.2s.05-.03.08-.03c.11-.3.04-.64.12-.95-.49,0-1.22.32-1.57.07-.02-.04-.03-.08-.04-.12h-.06s0-.05,0-.09c-.03-.01-.06-.01-.07-.02-.18-.35-.35-.85-.23-1.19.08-.05,1.15-.3,2.5-.74.2-.1.21-.2.31-.39-.15-.46-.04-1.09-.06-1.54h-.11c-.23-.9-.42-1.04.04-1.92.59-.4.98.05,1.53.38.13.38.38.92.38,1.38.14.29.12,1.83.98.94.37.06.68.13,1.05.26.02.04.02.08.03.13.12-.04.15-.01.3.06,0,.37.29.59.24.9-.28.3-.3.58-.73.6-.11.18-.26.32-.49.34,0,.04,0,.08,0,.12-.07.01-.14.04-.2.06-.01.01-.01.04-.01.07-.59-.05-.94.03-.99.63.18.14.28.39.36.63.02.01.05.01.08.03.01.05.02.12.04.18.06.01.11.01.16.03q.21.34.27.53c.26.04.46.05.46.36.11.01.12,0,.21.14.19.03.33.13.51.17v.07c.58.21,1.19.53,1.84.54.28.26.86.17,1.11.55.09.06.18.12.27.18-.02.08-.03.17-.05.25-.22.15-.36.5-.29.77-.37.17-1.18.75-1.36,1.15-.31.19-.29.09-.45.44-.11.08-.23.16-.34.24-.16-.02-.28-.09-.35.05-.09.01-.18.01-.27.01"/>
  <path d="m150.76,16.75c-.27-.56-.45-.72-1.04-.91-.55,0-2.07.2-2.36.04q.07-.05.16-.26c.43-.37.42-.65.42-1.13-.19-.51-.29-.6-.32-.73-.05,0-.09,0-.15,0-.02-.08-.04-.13-.07-.19.31-.03.61-.07.91-.1.02-.04.03-.07.05-.1q.1-.05.35-.07s.03-.06.04-.09c.61-.25.82-1.69.23-1.81-.02-.04-.03-.06-.03-.08-.17-.07-.26-.07-.3-.21-.61-.03-1.36.22-1.51-.46-.25-.22-.33-.02-.5-.38-.41,0-.86-.1-.86.38-.08,0-.15.02-.24.03-.04.23-.09.46-.12.69-.11.15-.16.2-.18.39-.1,0-.2.01-.3,0-.1.01-.19.01-.29.02v.09c-.24.03-.45.07-.61.2-.04-.24-.01-.51-.26-.63-.01-.07-.02-.11-.04-.18h-.07c-.09-.32-.41-.32-.71-.32-.02.1-.1.17-.16.24-.03.03-.06.05-.09.09-.01-.03-.02-.04-.04-.05q-.1.18-.28.77h-.1c-.08.32-.05.39.03.74-.05.29-.1.57-.16.86,0,.18-.05.22-.11.78-.04.19-.07.38-.1.57-.04,0-.07,0-.1,0-.03.29.02.5.06.82.03,0,.05,0,.07,0,.1.29.08.54.44.71-.01.02-.03.05-.04.09-.43.08-.81.22-1.24.24q.21-.39.24-.52s-.06,0-.09,0c.48-.67.41-1.17.47-1.95-.03-.01-.07-.01-.1-.03-.02-.65-.14-1.04-.41-1.61-.06,0-.1-.02-.16-.02-.02-.4-.1-.55-.37-.85-.04,0-.1,0-.15,0,0-.02,0-.05,0-.07-1.37.04-.32.94-.79,1.34-.12.56-.04,1.11-.21,1.73-.27.22-.11,1.29-.07,1.64.11.15.61.59.64.75q-.99.35-1.28.42c-.03-.24-.06-.31.08-.48-.06-.31-.11-.6-.16-.91-.08-.02-.13-.04-.19-.05-.05-.13-.1-.26-.16-.39-.62-.09-.7.05-.95.51-.26.76-.48,1.57-.77,2.37-.53.61-.36,1.11-.2,1.81.02,0,.07,0,.1,0,.03.06.05.13.08.19.12,0,.23.02.36.03.04.16.14.14.18.31.65.23.98-.13,1.13-.63.08,0,.14,0,.21,0,.11-.23.37-.38.4-.52.05,0,.07-.02.12-.02.42-.63,1.94-1.13,2.75-1.21.29-.07.57-.15.86-.2.46-.12.93-.22,1.42-.29.22-.09.47-.17.73-.24,1.09-.29,2.46-.41,3.49-.49-.1.1-.19.22-.33.26-.16.38-.79.42-.85.85.07,0,.13,0,.2,0,.02.09.02.18.03.27.13.05.2.03.25.18.23.11,1.05.07,1.16-.21.19-.02.39-.15.54-.17,0-.03,0-.09,0-.13.09-.02.16-.05.26-.07,0-.04.02-.07.03-.1.09-.02.17-.02.25-.04,0-.03,0-.06,0-.09.08-.03.16-.05.24-.09v-.08c.15-.05.15-.14.31-.17,0-.03,0-.06,0-.09.39-.12.33-.75.33-1.03m-5.17-1.56s-.05,0-.1,0q-.16.22-.48.48s-.07.04-.11.05c-.32.11-.67.21-.66.55-.05.01-.09.01-.13.02q.04-.9-.01-1.16c.09-.42.17-.79.16-1.18.16,0,.32,0,.49,0,.06.12.11.22.17.34,0,.01,0,.02,0,.02.28.08.43.56.78.73-.03.05-.08.1-.11.15"/>
  <path d="m146.5,20.59c-.59.06-.63.09-1.68.24q.01-.1.21-.31c.57-.9.59-1.88-.17-2.08-.29-.07-.68-.03-1.17.14-.35.18-.67.37-.98.57-.63.41-1.24.85-1.95,1.14-.23.16-.27.29-.35.31-.03.18-.02.64.25.7,0,.02,0,.05,0,.08.04,0,.07.01.1.01.02.03.02.05.03.08q.1.01.52-.06c.22-.3.82-.73,1.38-1.01.25-.14.49-.24.68-.28-.14.25-.17.45-.18.74.27.26-.02.51-.52.76-.77.37-2.02.69-2.38.85-.1,0-.4.12-.49.12-.13,0-.26,0-.39,0-.04.05-.07.1-.11.15-.52.26-.54.31-.78.4-.54.08-1.57.16-1.86.62-.03,0-.06,0-.1,0-.24.65-.11.89.4,1.32v.06c.27.01.48.06.8.05,0-.03,0-.06,0-.09q.51-.25,1.38-.76c.39-.13.78-.34,1.18-.38.3-.08.41-.25.73-.27,0-.02,0-.05,0-.08.13-.03.28-.06.41-.08.31-.18.77-.29,1.21-.39.45-.12.89-.24,1.12-.44.94.3,0,1.29-.23,1.78q-.22.11-.26.18c-.12,0-.38.06-.65.13-.57.13-1.25.35-1.3.45-.17.05-.34.1-.49.16-.02.01-.02.04-.03.05-.16.02-.32.05-.48.08,0,.04-.02.09-.02.15q.37.2.8.35c0,.05,0,.11,0,.17.12.04.17.12.46.34.33.08.66.1,1.03.1.13,0,.26,0,.39,0,.68-.12,1.02-.52,1.61-.78,0-.02.01-.06.02-.08.05-.02.1-.04.14-.05,1.31-.51,1.18-1.71.97-2.88-.06-.04-.07-.15-.16-.28.3-.59,1.64-.36,2.25-.24.77-.04,1-.38,1.04-.99-.53-1.1-1.11-1.31-2.35-.75"/>
  <path class="cls-2" d="m118.63,12.15s0-.06,0-.1c-.35-.06-.97-.16-1.25-.03-.01.05-.03.12-.04.17-.07,0-.11.03-.15.07-.18.21-.1.82-.02,1.03,0,.01.01.03.01.03.33.14.28.54.55.62.04.11.02.1.17.18,0,.03,0,.07,0,.09.04.02.07.03.1.06.3,0,1.13.09,1.25-.31.05,0,.1,0,.14,0,.2-.91.18-1.52-.76-1.82m-1.92,4.33s-.02-.07-.03-.1c-.07-.01-.13-.04-.19-.06-.02-.03-.02-.07-.02-.09-.19-.08-.61-.26-.66-.42-.3-.01-.61-.02-.93-.04q-.31.14-2.83.82c.11-.54.22-.9.44-1.38q.27-.07.47-.16c.8.01,1.59.15,2.39.09.33-.09.52-.18.76-.2.02-.03.02-.07.03-.1.23-.06.37-.12.58-.26,0-.04,0-.1,0-.14.24-.08.16-.38.1-.56-.04,0-.07,0-.09,0-.06-.26-.27-.34-.46-.48-.72-.43-1.76-.35-2.47.05-.31.02-.63.05-.94.07-.18-.43-.18-.71-.4-1.12h-.1s0-.07,0-.09c-.02,0-.05,0-.08,0,0-.03,0-.05,0-.1-.83-.07-.82.27-.83,1.05-.07.18-.14.35-.21.53-.14.05-.15.02-.19.17-.29.02-.6.22-.84.33-.12.02-.25.05-.37.08-.58.13-1.1.21-1.75.38-.54.37-.42.56-.41,1.22.31.3.57.17.98.12,0-.06.01-.11.03-.18.04.01.06.02.11.04,0-.03,0-.07,0-.09t.04.09c.34-.1.65-.23.98-.31.31-.09.66-.17,1.01-.19.06.18.05.89-.06,1,.02.33.03.89-.3,1.1-.01.03-.03.07-.04.1-.03.01-.07.03-.11.04-.1.18-.37.39-.52.56,0-.06-.01-.11-.01-.15v-.04s.09,0,.14,0q.03-.23.11-.42,0-.5-.05-1.06s-.06,0-.1,0c-.01-.07-.03-.1-.08-.15-.03-.04-.08-.08-.13-.15-1.1-.46-1.29,1.3-1.4,2-.23.72-.48,1.35-.56,2.11h-.1c-.08.47-.13.98-.2,1.48h-.1c.09,1.19-.37,2.32.21,3.53.12.06.83.05,1.03.06.27-.43.52-1.99.7-2.1.13.04.28.06.45.06.23-.01.48-.05.7-.11.09.73.28,1.36,1.22,1.37.46-.38.5-.42.6-.99.12-1.94.31-1.45,2.18-1.6.16-.08.33-.14.49-.21,0-.03.01-.05.01-.09.25-.05.26-.15.26-.38-.2-.11-.16-.26-.19-.45-.42-.17-.51-.27-.69-.35-.66,0-1.37.31-1.97.45,0-.03-.04-.04-.05-.07.05-.3,0-.37.04-.57q.28-.12.61-.16c.53-.32,2.33-.55,2.41-1.23-.2-.09-.21-.19-.25-.35-.12-.08-.26-.15-.38-.22-.09-.36-.3-.3-.59-.31-.77.26-1.47.55-2.23.64-.02-.29,0-.45.05-.69.03-.02.07-.03.11-.04,0-.03.02-.07.03-.09.94-.44,2.04-1.02,3.12-1.01.59.38.57,1.07.64,1.75-.03,1.88.05,4.21-.99,5.91-1.12.19-1.95.42-3.01.19.1.55.67.39,1.01.72.74.3,1.48.5,2.25.75.2-.01.33-.03.52-.11q.11-.15,1.27-2.63c.06-.26.13-.52.18-.78.01-.94-.11-1.71.05-2.57.03-.11.06-.23.09-.35,0-.27.12-1.66-.05-2.56-.08-.39-.19-.69-.4-.77m-6.87,5.36s0,.05,0,.08c-.04.01-.09.01-.14.02-.05.01-.09.01-.13.03-.02.03-.03.06-.04.08q-.15-.02-.38.05c-.17-.22-.18-1.36.17-1.36.15.19.27.3.4.37.16.08.35.12.65.16.1.41-.13.47-.53.57m-3.1-3.15c-.47.09-.39.51-.75.55-.01.06-.03.12-.04.18-.03,0-.07,0-.09,0,0,.03-.02.07-.02.1-.02-.01-.04-.02-.05-.04-.02.03-.02.05-.04.1-.04,0-.08,0-.13,0-.04.15-.28.41-.41.46,0,.06,0,.11,0,.18-.1.01-.2.01-.27.02,0,.04.02.08.04.11-.07,0-.13,0-.19,0-.08.27-.29.2-.34.46-.02,0-.06,0-.1,0,0,.07,0,.12,0,.19-.07.01-.14.08-.27.13-.03.01-.05.03-.09.04-.01.08-.03.16-.05.23h-.09c-.01.08-.03.16-.05.23-.07,0-.14,0-.19,0-.16.4-.58.48-.75.93-.04,0-.07,0-.1,0-.03.04-.05.08-.07.14,0-.2.02-.41.02-.61-.04,0-.08,0-.13,0-.05.32-.2.65-.48.81-.04.83-.38,1.38.39,1.93.29-.05.67-.13.97-.22.08-.2.33-.28.52-.4.03-.04.04-.07.04-.09.06-.13.11-.16.28-.19.31-.58.37-.8,1.01-.95,0-.08.02-.16.02-.24.04-.01.07-.03.11-.04,0-.04,0-.09,0-.14q-.09,0-.09-.04c.07,0,.12,0,.19,0,0-.06,0-.1,0-.15h.1c.02-.23-.07-.49.19-.54.1-.57.39-1.04.47-1.59.04-.03.08-.04.12-.07,0-.11,0-.23,0-.35.26-.21.32-.66.41-.99-.03,0-.06,0-.09,0,0-.04,0-.07,0-.1m-3.08-2.63c.15.07.31.18.47.28.22.13.42.24.6.22.32-.05.71-.03.85-.09.11-.15.12-.29.3-.35,0-.2.1-.53-.1-.59.18-.49,0-.71-.43-.82-.2-.36-.74-.42-1.18-.32-.19.05-.35.14-.46.25-.07.01-.12,0-.19.02-.03.37-.2.61.14.87,0,.16,0,.34.02.52m.43,3.29h.03c1.01-.12,1.41-.75,1.02-1.84-.15-.03-.15-.09-.21-.16-.25-.16-.54-.29-.81-.38-.64-.19-1.2-.06-1.18.9.04.01.06.03.1.05-.13.95.18,1.28,1.04,1.44"/>
  <path class="cls-2" d="m99.79,17.14c-.17-.3-.51-1.07-.77-1.15-.14-.14-.3-.21-.36-.32-.12,0-.26-.05-.32-.12-.13,0-.19-.04-1.74-.35-.65.02-1.22.02-1.85.18,0-.04-.01-.08-.01-.12.16-.12.37-.33.5-.51.37-.15.37-.5.54-.77.03,0,.04.02.08.02.05-.24.07-.38.04-.6h-.07c-.06-.21-.05-.23,0-.42-.54-.35-.47-.48-1.09-.36-.22.2-.64.67-.71.94-.04,0-.07.02-.11.01-.19.37-.76.67-.88.97-.03.01-.06.01-.09.01,0,.03-1.11,1.1-1.16,1.11-.28.39-.41.37-.73.64-.05.11-.12.27-.18.46-.1.37-.18.82-.01,1.08.04.05.1.11.16.14.09.12.19.24.28.35-.1.27-.16.33-.45,1.01h-.01s-.04,0-.06,0c0,.26-.09.56.04.78.04.05.08.11.15.16.04.77,1.29.22,1.69-.02q0-.09.14-.29c.38-.19.59-.7.67-1.09.25-.24-.06-.94-.07-1.24.2-.2.56-.33.86-.38.07-.16.35-.38.52-.21.17,1.53-1.26,2.53-1.95,3.72q-.21.09-.29.09c-.03.21-.04.24.02.46.13.04.25.08.39.12.03.1.06.18.07.27.87.06,1.52-.55,1.95-1.22.04,0,.1-.01.14-.01,0-.04.02-.08.02-.13.22-.1.11-.29.36-.37,0-.07.02-.14.02-.2.48-.61.3-1.17.97-1.62.03-.15.08-.3.12-.43-.03-.01-.04-.03-.06-.04.02-.11.03-.22.06-.32-.03-.01-.06-.02-.08-.03,0-.05-.01-.11-.01-.16-.03,0-.06-.01-.08-.03.02-.07.02-.15.03-.23.26.03.57.14.86.14,0,.03,0,.06,0,.09.42.22.5.93.36,1.38.14.66-.11,1.03-.4,1.62-.18.13-.4.35-.43.57-.78.22-1.34,1.19-2.16,1.37-.5-.03-.54-.09-1-.14,0,.03,0,.05.01.09-.07.01-.13.03-.18.04,0,.28.43.47.56.78.2.2.73.47,1.01.59.33-.05.37-.09.54-.09.17-.1.26-.23.48-.22.2-.27.55-.17.64-.41q.22-.02.46,0,.03-.05.79-.38c.21-.27.46-.31.66-.63.43-.21,1.02-1.18,1.02-1.62h.07c.06-.47.18-.95.24-1.4q-.06-.79-.2-1.53m-11.23,3.76c0-.61-.18-.9-.31-1.39-.02-.64-.23-1.57,0-2.12.48-.69,2.17-.69,2.62-1.34.06-.07.1-.15.12-.25-.05,0-.07,0-.1,0,0-.03,0-.04-.01-.07-.06-.33-.31-.32-.34-.63-.14-.04-.12-.07-.18-.15-.32-.16-.65-.3-.97-.45-.26-.22-.58-.5-.82-.63,0-.04,0-.07,0-.1-.67-.21-.84-.39-1.54-.16-.18.48-.37,1.01-.6,1.51-.14.5-.15.71-.64.86.09-.36-.21-.9-.35-1.2-.36-.11-1.07-.4-1.16.17-.38.07-.41.52-.51.86-.27.27-.48.65-.61,1.01,0,.22-.04.87.26.96.57.87,1.64.68,2.53.42.02.45.06.49-.1.94q-.21.14-2.16,1.23c-.66.4-1.43,1.08-2.19,1.07-.32.26-.33.28-.71.28-.22.3-.28.41-.63.52-.06.15-.35.59-.51.65,0,.38-.04,1.16.48,1.25.14.26.4.37.69.2.11.24.16.25.46.26.08-.14.17-.27.26-.39.65-.18,1.27-.25,2-.34,0-.06,0-.11,0-.15-.04,0-.07,0-.1,0-.01-.03-.03-.05-.03-.08-.32-.1-.76-.13-1.08-.19.01-.09.03-.19.04-.3.3-.09.37-.36.62-.44,0-.03,0-.06,0-.08.04,0,.1,0,.14,0,.65-.7,1.76-.94,2.37-1.79.04-.01.09-.02.11-.02,0-.04,0-.07,0-.1.19-.12.4-.24.59-.36.21.89.44,1.69.45,2.65-.04,0-.07,0-.1,0,0,.06,0,.11,0,.18-.04,0-.07,0-.09,0-.16.25-.39.24-.66.32,0,.04-.03.09-.03.15-.36.2-.75.03-.99.18.31.22,1.53.13,1.65.61.37.08.69.38,1.15.48.25,0,.81,0,.93-.36.03,0,.06,0,.09,0q.02-.1.11-.19c-.06-1.16-.2-2.29-.22-3.42.02-.03.03-.04.04-.05"/>
  <path class="cls-2" d="m78.55,11.99c-.05-.42-.34-1.08-.64-1.25-.57-.08-.66-.12-1.11-.14-.81.38-.38.99-.39,1.76.16.23,0,.56.14.69,0,.51.05.89.11,1.42-.01,1.01-.03,2.02-.04,3.03-.01.15-.16,2.57-.37,2.77,0,.5-.13.85-.18,1.39-.04,0-.1,0-.14,0-.09.48-.85.57-1.26.86-.37.16-.73.37-1.07.58-.41.22-.81.45-1.22.56-.02.05-.02.11-.02.16.43-.01.82-.05,1.23-.11.4-.05.79-.12,1.2-.2.01.03.03.04.04.07q.34,0,.86-.12s.01.05.03.1c.19,0,.38,0,.57,0,.31.15.5.25.88.28,0,.03,0,.05,0,.1.77-.04.61-.17,1.08-.79.03-.36,0-1.39.03-2.83.21-.27-.2-2.01-.24-2.35.02-.56.03-1.11.05-1.66.08-.43-.1-1.76.14-1.99.05-.54.09-1.07.12-1.62.12-.22.21-.4.11-.63.03-.04.05-.07.09-.1m-5.73,7.2s.01.05.01.09c.2.02.5.09.82.11.43.03.89-.03,1-.47.03-.01.04-.03.07-.03.01-.15.03-.3.06-.44.29-.29-.1-1.16.09-1.35-.07-.14-.26-.93-.25-1.02-.04,0-.09-.02-.12-.02-.11-.21-.22-.1-.31-.27-.18-.07-.34-.12-.49-.15-.32-.06-.59,0-.93.21-.01.07-.01.14-.03.2-.03,0-.05,0-.07.02-.22.82-.41,1.32-1.19,1.78-.32.35-1,.84-1.4,1.08-.01-.29-.1-.42-.1-.52-.48-.28-.36-.35-.38-.91.03-.01.05-.01.1-.03.18-.36.96-.43,1.34-.51.52-.27.54-.32.79-.4,0-.04,0-.07,0-.1.15-.06.26-.06.32-.24.03,0,.06-.01.08-.01,0-.23-.04-.27-.04-.37-.03-.02-.04-.03-.07-.03.02-.08.05-.15.1-.23.01-.01.04-.01.07-.03,0-.22-.05-.27-.04-.41-.02-.01-.05-.03-.08-.03,0-.05-.01-.08-.01-.11-.3-.16-.49-.4-.8-.44v-.09c-.34-.09-.6-.09-.91-.1.02-.15.03-.28.06-.42.44-.15.03-.92-.08-1.16-.03,0-.07,0-.09,0-.09-.41-.83-.76-1.22-.81,0-.03,0-.06,0-.1-.71.03-1.45.06-2.1.38-.17.3-.14.49,0,.81.03,0,.04,0,.07,0-.05.43,0,.46.05.84.05.02.09.03.12.03.12.3.17.33.2.4.08.03.16.06.26.07,0,.04.01.08.01.11.04.02.07.04.11.06.05.29-.04.53-.04.86-.03,0-.05.01-.08.01-.05.11-.07.2-.11.31-.26.04-.35.17-.55.21-.03.06-.04.1-.06.15-.19-.08-.54.13-.68.18-.76.1-1.54.19-2.29.21-.16.13-.21.12-.25.32-.27.08-.55.18-.8.27-.67.66-.13.94.03,1.64.06.01.11.03.15.04.38.52,1.05.52,1.65.54.02-.02.02-.05.03-.08.1.02.25-.05.43-.05.45-.25,1.15-.54,1.67-.64.01-.04.03-.07.03-.09.18-.03.36-.05.53-.06q.03.19.09.25c.08,0,.18,0,.27,0,0,.15,0,.31,0,.46-.65.03-1.45-.16-1.43.7h-.1s0,.09,0,.14c-.16.03-.35.28-.35.46-.61.08-.54.02-.77.56-.06.06-.25.12-.47.28,0,.04,0,.08-.01.11-.18.03-.29,0-.34.19-.33.17-.43.05-.56.41-.15.04-.32.08-.46.13,0,.03,0,.05,0,.1-.05,0-.11.01-.16,0-.02.06-.02.11-.02.17-.04.01-.1.02-.14.04-.26.46-.2.66-.2,1.22.03.01.05.03.08.03,0,.02,0,.07,0,.09.26.07.51.2.8.25,0,.03,0,.06,0,.1.22,0,.44,0,.65,0,.15-.12.68-.24.93-.26,0-.04,0-.07,0-.09.37-.05.69-.1.99-.38.07-.01.13-.01.19-.02,0-.03,0-.07,0-.1.15-.03.3-.05.44-.08,0-.04,0-.07,0-.09.22-.06.25-.13.44-.18q.05.1.08.29s-.08.01-.11.02q-.02.15.03.29c-.07.21-.21.28-.32.48-.47.21-.45.73-.05,1.03-.02.36-.12.9.4.99,0,.43.21.58.66.68q.26-.08.29-.13c.23.06.46.14.74-.02-.01-.1,0-.2-.03-.3.48-.2.42-.84.35-1.23-.5-1.13-.34-1.95-.28-3.16-.03,0-.05,0-.1,0,0-.02,0-.04,0-.07.3-.12.46-.46.46-.74.07-.04.14-.06.2-.11.01-.05.03-.11.05-.16.06-.01.1-.03.15-.04.01-.09.06-.2.08-.3.14-.08.21-.08.26-.23.03-.01.05-.01.09-.03.06-.34.2-.68.61-.73.01-.04.03-.06.04-.11.18-.05.34-.16.39-.35.3-.15.47-.55.82-.71.06.26.3.84.63.9"/>
  <path class="cls-2" d="m59.5,23.49s-.04-.03-.07-.04q.06-.27.05-.56c-.44-.2-.33-.51-.82-.48,0-.04-.02-.08-.02-.11-.49-.11-.77-.34-1.25-.43-.06-.25-.74-.35-1.16-.4-.11-.02-.21-.03-.26-.03-.01-.04-.01-.07-.01-.1-.42-.03-.46-.32-.81-.34,0,.02,0,.05,0,.09-.19-.04-.23-.03-.24-.21-.15-.03-.21-.1-.42-.13-.01-.03-.03-.07-.04-.1-.24-.07-.47-.23-.66-.33-.05-.52.47-1.35.67-1.78.02,0,.05-.02.08-.02.05-.46.04-.84-.05-1.26-.09-.09-.47-.5-.5-.55-.08-.02-.18-.03-.27-.05-.18.18-.3.16-.52.18-.23.5-.29.99-.42,1.55-.16.24-.22.23-.25.5-.03,0-.07,0-.1,0,0,.09,0,.19,0,.27-.08.06-.17.1-.24.14-.01.04-.03.1-.04.15-.21.08-1.17-.42-1.26-.6-.2-.09-.29-.19-.94-.51.1-.25.18-.32.2-.6.04,0,.09,0,.14,0,.01-.04.01-.08.02-.14.03-.02.04-.02.05-.03q.06-.1.05-.47s.04-.01.06-.03c.07-.3.13-.75-.25-.75-.03-.05-.05-.12-.08-.18q-.15-.05-.46-.05s0-.05,0-.06c-.37.08-.49.26-.79.45,0,.23-.18.47-.22.77-.13.03-1,.69-1.22.84,0,.02,0,.06-.01.09-.24.04-.51.13-.75.17-.19.35-.33.44-.49.88-.03,0-.06,0-.1,0-.03.2-.19.53-.05.75.33-.01.21.09.5.18q0-.07.08-.09c.25-.45.24-.45.77-.49.48-.29.94-.34,1.43-.51,0-.03,0-.07,0-.09.06,0,.11.01.16.01.15.21.23.36.2.68q.26-.06.42-.03c-.03.19.09.41.32.48,0,.06,0,.1,0,.15h.06s.01.08.01.14c.21.15.63.57.65.88-.28.12-.3.49-.66.62,0,.03,0,.07,0,.09-.31.12-.6.47-.92.56-.02.04-.03.06-.04.11-.09.01-.17.04-.24.07-.23.42-1.43.27-1.55.53-.13.01-.25.02-.38.05-.01.03-.03.04-.04.07-.22,0-.44-.02-.66-.02,0-.03,0-.06,0-.07-.16-.04-.19-.11-.37-.13.01.18.05.12.11.27-.1.01-.2.01-.29.02,0,.18.05.21.09.37-.04,0-.06,0-.09,0-.02.11-.05.22-.07.33.04.01.07.03.11.04.47,1.06,2.91.36,3.77.37,0-.03.02-.06.02-.08.2-.08.45-.17.63-.28,0-.04,0-.08,0-.12.11-.04.2-.09.3-.13.02-.02.02-.06.03-.09.56-.13,1.09-.75,1.5-1.11.17,0,.65.19.69.42.16.03.53.18.55.4.1,0,.63.32.66.4.08.03.16.06.26.1,0,.05,0,.12,0,.19.11.02.27.16.46.23.18.19.43.31.73.36.02.04.02.08.03.11.2.14.38.17.66.2,0,.03,0,.06,0,.1.13.02.18,0,.23.04.03.03.08.07.13.15.21,0,.23-.08.42.05.29-.05.61-.17.93-.01.24-.11.55-.14.63-.42q.1-.05.24-.06s0-.04,0-.07c.04-.01.07-.03.11-.03.1-.23.66-1.19.83-1.23q.04-.07.03-.23m-1.83-7.69q-.3-.07-.34-.11c-.17,0-.56-.02-1.02-.02-.8.02-1.8.13-1.95.54-.29.08-.25.1-.24.4.19.09.19.23.42.32.52.59,1.01.69,1.75.79.14.02.31.03.49.06.9-.06.74-.02,1.27-.66.17-.05.3-.07.44-.2,0-.27-.05-.61-.33-.7q-.02-.14-.09-.26c-.12-.03-.24-.06-.37-.09-.01-.03-.01-.05-.02-.08m-10.79-.1c0,.06,0,.12,0,.19.22.04.45.09.67.15q.91-.01,1.65-.1v-.07q.07.04.46.06s.03-.06.04-.08c.14-.04.28-.06.41-.1,0-.03,0-.05.01-.07,1.2-.16,2.29-.41,3.48-.78.62-.36,1.8-.36,2.47-.41.08-.04.16-.06.26-.09.44-.09,1-.05.98-.72q.14-.01.52.07c.02-.26.03-.45-.05-.66-.04-.01-.09-.03-.15-.04-.05-.15-.05-.17-.16-.19-.07-.6-.43-.28-.59-.6-.11,0-.29-.02-.52,0-.61.02-1.51.1-1.59.33-.08.01-.18.03-.27.04,0,.02,0,.05,0,.07-.21.06-.5.1-.55.31-.44.17-.9.24-1.35.38.03-.13.06-.23.1-.34.39-.25.14-.88,0-1.19-.05-.01-.1-.02-.14-.03-.01-.04-.01-.08-.03-.12-1.06-.04-1.25-.13-1.31,1.03.16.12.17.25.25.48.12.1.26.21.33.4q-.89.21-.93.25c-.35,0-.51,0-.83.09,0,.03,0,.06,0,.07-.2,0-.3-.02-.45.07-.86.18-1.76.15-2.65.14-.27.51-.52.85-.21,1.44.04.01.09.03.15.04"/>
  <path class="cls-2" d="m42.25,19.05c-.1-.59-.34-1.19-.38-1.73-.03-.01-.06-.01-.08-.03-.06-.13-.11-.26-.16-.4-.03,0-.06,0-.08,0,0-.03,0-.06,0-.09q-.15-.08-.19-.19s-.1-.03-.14-.04c-.77-.9-2.16-.86-3.23-.83-.19-.14-.27-.26-.26-.48-.02-.01-.05-.03-.08-.03-.04-.11-.08-.22-.13-.33-.02-.06-.04-.11-.07-.15-.19-.04-.34-.36-.36-.49.15-.01.3-.04.43-.05.52-.03,1.04-.05,1.58.05.34,0,.68-.02,1.02-.03q.04-.05.4-.18c.18-.34.18-.79.18-1.15-.36-.88-1.3-.44-2-.4-.27.02-.54.05-.83.08-.11,0-.21,0-.33,0-.67.06-1.32.17-2,.19-.08.03-.22.05-.37.08-.83.14-2.37.26-2.51.41-.38.04-.46.09-.7.08-.14.07-.37.13-.64.17-.79.12-1.91.16-2.12.39.03.6-.12.91.49,1.21.54,0,1.06-.09,1.61-.12.18-.03.37-.02.54-.02q-.02.05-.41.29c-.01.07-.07.14-.14.19-.18.18-.51.34-.6.52-.24.17-1.1,1.33-1.16,1.33-.15.39-.22.42-.34.7-.15.72-.89,2.85-.69,3.31-.03.41-.36,2.42-.18,2.67-.16.22.15,1.24.26,1.56.48.51.6.23,1.05.18.04-.09.08-.16.12-.25.01,0,.04-.01.07-.01.02-.13.03-.27.05-.4.04,0,.06,0,.09,0,.01-.14.04-.25.06-.39.4-.04.76-.2,1.12-.35.27-.11.53-.2.82-.2.57-.23,1.46-.18,2.11-.23.06-.15.47-.27.91-.37.49-.1,1.04-.17,1.24-.15.01.08.03.17.04.26.18.04.35.09.54.14,0,.04.01.07.01.11.03.01.05.01.08.03,0,.11,0,.22.02.33q.18.05.24.11c.05,0,.12,0,.18,0,.36,0,.71.01,1.08.02.05.01.09.04.15.05v.09c.08.01.17.01.26.03.73.28,1.88.51,2.23-.5.02,0,.06,0,.06,0,.03-.14.23-.4.61-1.18.14-.38.24-.98.35-1.27.15-.16.11-.23.11-.42.01-.72.02-1.43.03-2.14m-9.99,3.6c-.36.09-.71.19-1.07.3-.15.04-.32.09-.48.13,0,.03,0,.06,0,.1-.24.06-.3.1-.6.17.03-.11.04-.23.07-.34.22-.06.65-.93,1.03-1.45.14-.18.26-.33.37-.38.1-.23.18-.27.21-.33.03,0,.04,0,.07-.01.03-.18.13-.22.26-.34.02.56.05,1.13.08,1.69.04.09.1.34.05.48m-.36-4.13s0,.05,0,.08c-.19.04-.32.28-.51.35-.05.04-.1.08-.14.13-.57.6-1.08,1.22-1.61,1.87,0-.75.32-1.55.36-2.3.05-.22.13-.42.19-.62.14-.25.64-.98,1.1-1.52.29-.33.56-.59.72-.6.13.45.69,2.38-.11,2.61m3.61,1.76c-.14.5-.24,1.02-.46,1.42-.19.31-.46.54-.89.6,0-.1.02-.19.02-.29h.05c0-.37,0-.74.01-1.1-.01,0-.04,0-.05,0-.04-.58-.19-1.43.13-1.92.18-.11.39-.2.48-.39.1-.02.19-.07.29-.09.19-.08.4-.17.6-.22,0-.03,0-.04,0-.07.15,0,.15-.12.34-.05-.11.68-.26,1.41-.53,2.11m.77-5.61c-.13.41-.01.9-.07,1.38-.33.24-.7.48-1.09.69-.37.2-.74.37-1.1.5q-.04-.18,0-1.09c-.17-.7-.3-1.01-.32-1.22.47-.22.95-.42,1.45-.54.47-.12.94-.16,1.46-.11q-.16.26-.33.39m1.11,8.66c-.18.04-.4.09-.67.14-.06-.03-.15-.04-.22-.07.4-.16.64-.27.89-.33.25-.05.5-.05.89.04-.09.05-.11.05-.9.22m2.74-1.86q.14.03.14.07c-.17.08-.32.27-.18.46-.07,0-.13.02-.18.05-.03.08-.05.16-.06.25-.2.04-.4.33-.54.49-.15.05-.3.12-.45.19-.04-.44-.06-.66-.03-1.07h-.06c-.02-.27-.05-.34-.3-.37v-.09c-.34,0-.69.11-1.05.21-.33.11-.67.22-.99.26.06-.18.1-.23.1-.41.15-.04.48-.93.55-1.09.03-.02.06-.02.07-.02.14-.38.23-.76.32-1.15.13-.54.23-1.07.45-1.59.6-.32,1.9-.34,2.27.44.16.08.26.85.28,1.09-.03.01-.04.03-.06.05.03.79-.02,1.4-.26,2.21"/>
  <polygon points="30.23 4.1 28.66 1.54 29.3 1.54 29.94 1.54 30.85 3.21 31.8 1.54 32.42 1.54 33.05 1.54 31.47 4.02 33.16 6.73 32.52 6.73 31.87 6.73 30.85 4.94 29.83 6.73 29.19 6.73 28.54 6.73 30.23 4.1"/>
  <path d="m33.76,1.49h1.03v.94h-1.03v-.94Zm0,1.39h1.01v3.84h-1.01v-3.84Z"/>
  <path d="m35.77,2v-.46h1.02v.69c0,.36-.08.65-.24.86-.16.21-.41.35-.75.42v-.36c.21-.07.36-.16.43-.3.05-.09.08-.22.1-.39h-.56v-.46Z"/>
  <path d="m38.68,6.83c-.36,0-.64-.1-.86-.31-.22-.21-.32-.47-.32-.81,0-.35.1-.63.29-.84.2-.21.48-.35.85-.4l.67-.09c.17-.03.32-.07.43-.12.05-.03.09-.06.11-.13.03-.06.04-.12.03-.19-.01-.11-.07-.19-.16-.26-.12-.07-.28-.11-.5-.11-.19,0-.34.05-.45.15-.11.09-.17.23-.17.4h-.97c.02-.45.18-.79.46-1.02.29-.22.7-.33,1.26-.33.48,0,.86.1,1.13.3.28.21.42.48.42.83v2.15c0,.17.01.29.04.36.03.07.09.12.17.16h0v.15h-1.09c-.05-.16-.08-.31-.09-.46h0c-.32.37-.73.56-1.24.56m1.22-1.52v-.44c-.12.07-.27.12-.46.16l-.37.07c-.18.04-.31.09-.4.19-.09.09-.14.2-.14.33,0,.15.04.28.12.36.08.09.2.13.35.13.32,0,.58-.12.77-.34.04-.04.07-.11.09-.2.03-.08.04-.17.04-.25"/>
  <path d="m41.78,2.89h.97v.56c.04-.06.08-.13.13-.19.25-.32.61-.47,1.09-.47.4,0,.72.12.95.36.23.24.34.58.34,1v2.59h-1.02v-2.4c0-.24-.05-.41-.15-.53-.1-.12-.26-.17-.47-.17-.26,0-.47.08-.61.24-.14.16-.21.39-.21.69v2.17h-1.02v-3.84Z"/>
  <path d="m50.15,1.54h1.09v3.73c0,.53-.14.93-.42,1.19-.28.27-.7.41-1.25.41-.59,0-1.02-.15-1.29-.45-.27-.3-.4-.76-.38-1.38v-.31h1.03v.31c0,.32.04.55.14.7.1.15.26.23.49.23s.37-.05.46-.17c.09-.11.14-.29.14-.54V1.54Z"/>
  <path d="m52.25,1.49h1.03v.94h-1.03v-.94Zm0,1.39h1.02v3.84h-1.02v-3.84Z"/>
  <path d="m55.16,6.83c-.36,0-.64-.1-.86-.31-.22-.21-.32-.47-.32-.81,0-.35.1-.63.29-.84.2-.21.48-.35.85-.4l.67-.09c.18-.03.32-.07.43-.12.05-.03.09-.06.12-.13.03-.06.04-.12.03-.19-.01-.11-.07-.19-.16-.26-.12-.07-.28-.11-.5-.11-.19,0-.34.05-.45.15-.11.09-.16.23-.17.4h-.97c.02-.45.18-.79.46-1.02.28-.22.7-.33,1.26-.33.48,0,.85.1,1.13.3.28.21.42.48.42.83v2.15c0,.17.01.29.04.36.03.07.08.12.17.16h0v.15h-1.09c-.05-.16-.08-.31-.09-.46h0c-.32.37-.73.56-1.23.56m1.22-1.52v-.44c-.12.07-.27.12-.47.16l-.37.07c-.18.04-.31.09-.4.19-.09.09-.14.2-.14.33,0,.15.04.28.12.36.08.09.2.13.34.13.33,0,.58-.12.78-.34.04-.04.07-.11.1-.2.03-.08.04-.17.04-.25"/>
  <path d="m58.56,6.29c-.36-.36-.53-.85-.53-1.46s.18-1.12.53-1.49c.35-.37.83-.55,1.43-.55s1.09.18,1.44.55c.35.37.53.86.53,1.49s-.18,1.1-.53,1.46c-.35.36-.83.54-1.44.54s-1.08-.18-1.43-.54m2.12-.6c.16-.2.24-.49.24-.87s-.08-.68-.24-.89c-.16-.2-.39-.3-.69-.3s-.53.1-.68.3c-.16.2-.24.5-.24.89s.08.67.24.87c.15.2.38.3.68.3s.53-.1.69-.3"/>
  <path d="m64.45,6.75c-.17.01-.38.02-.63.02-.36,0-.62-.06-.77-.19-.16-.13-.24-.34-.24-.63v-2.35h-.54v-.71h.54v-1.04h1.02v1.04h.62v.71h-.62v2.18c0,.09.03.15.08.18.05.03.17.04.33.04h.21v.76Z"/>
  <path d="m65.39,6.29c-.35-.36-.53-.85-.53-1.46s.18-1.12.53-1.49c.36-.37.83-.55,1.43-.55s1.09.18,1.44.55c.35.37.53.86.53,1.49s-.18,1.1-.53,1.46c-.35.36-.83.54-1.44.54s-1.08-.18-1.43-.54m2.12-.6c.16-.2.24-.49.24-.87s-.08-.68-.24-.89c-.16-.2-.39-.3-.69-.3s-.53.1-.68.3c-.16.2-.24.5-.24.89s.08.67.24.87c.15.2.39.3.68.3s.53-.1.69-.3"/>
  <path d="m69.5,2.89h.97v.56c.04-.06.08-.13.13-.19.25-.32.61-.47,1.09-.47.4,0,.72.12.95.36.23.24.34.58.34,1v2.59h-1.02v-2.4c0-.24-.05-.41-.15-.53-.1-.12-.26-.17-.47-.17-.26,0-.47.08-.61.24-.14.16-.21.39-.21.69v2.17h-1.02v-3.84Z"/>
  <path d="m75.65,7.53c.28,0,.49-.07.61-.21.12-.13.19-.36.19-.68v-.47l-.08.12c-.22.31-.54.46-.96.46-.5,0-.9-.18-1.21-.54-.31-.36-.46-.83-.46-1.42s.15-1.09.45-1.46c.3-.37.69-.55,1.18-.55.43,0,.77.16,1,.47.04.06.09.12.12.19v-.56h.96v3.64c0,.61-.15,1.05-.45,1.34-.3.29-.77.43-1.4.43-.52,0-.94-.1-1.25-.31-.31-.2-.47-.48-.49-.84h1.1c0,.13.07.23.18.28.11.06.28.09.51.09m-.03-3.87c-.26,0-.47.1-.62.3-.15.2-.22.48-.22.84s.07.62.22.82c.15.19.35.29.61.29s.47-.1.62-.3c.15-.2.22-.48.22-.83s-.07-.63-.22-.82c-.15-.2-.35-.3-.62-.3"/>
  <rect x="78.06" y="4.22" width="2.02" height=".95"/>
  <polygon points="80.82 6.73 80.82 1.54 81.36 1.54 81.91 1.54 81.91 5.8 84.49 5.8 84.49 6.27 84.49 6.73 80.82 6.73"/>
  <path d="m85.19,1.49h1.03v.94h-1.03v-.94Zm0,1.39h1.02v3.84h-1.02v-3.84Z"/>
  <polygon points="86.8 2.89 87.35 2.89 87.91 2.89 88.73 5.74 88.74 5.74 89.56 2.89 90.09 2.89 90.63 2.89 89.24 6.73 88.71 6.73 88.18 6.73 86.8 2.89"/>
  <path d="m92.72,6.83c-.58,0-1.04-.18-1.35-.54-.32-.36-.48-.88-.48-1.54,0-.61.16-1.1.49-1.45.32-.35.77-.52,1.34-.52s1.04.18,1.36.53c.31.35.47.85.47,1.51,0,.08,0,.15-.02.23h-2.62c.02.31.09.53.2.68.14.19.38.29.71.29.15,0,.29-.05.43-.13.13-.08.21-.19.23-.31h1.03c-.09.39-.29.7-.6.92-.32.22-.71.33-1.19.33m.77-2.42c-.02-.23-.09-.4-.18-.53-.13-.17-.33-.26-.6-.26s-.46.1-.59.3c-.08.13-.15.29-.18.49h1.56Z"/>
  <path d="m95.21,2.89h.97v.69c.04-.08.08-.15.12-.22.24-.38.55-.57.92-.57h.23v1.04c-.09,0-.19-.01-.3-.01-.31,0-.54.08-.69.23-.15.15-.23.39-.23.7v1.99h-1.02v-3.84Z"/>
  <path d="m98.01,2.89h.97v.57l.07-.09c.27-.39.63-.58,1.08-.58.49,0,.88.18,1.17.54.29.36.44.83.44,1.43,0,.62-.15,1.13-.44,1.51-.3.38-.69.57-1.17.57-.44,0-.8-.18-1.07-.54l-.02-.03v1.97h-1.02V2.89Zm1.82,3.11c.27,0,.48-.1.63-.31.15-.21.23-.49.23-.85s-.07-.66-.23-.87c-.15-.21-.36-.32-.63-.32s-.48.11-.63.32c-.15.22-.23.52-.23.9,0,.35.08.62.23.82.15.2.36.3.63.3"/>
  <path d="m102.75,6.29c-.36-.36-.53-.85-.53-1.46s.18-1.12.53-1.49c.35-.37.83-.55,1.43-.55s1.09.18,1.44.55c.35.37.53.86.53,1.49s-.18,1.1-.53,1.46c-.35.36-.83.54-1.44.54s-1.08-.18-1.43-.54m2.12-.6c.16-.2.24-.49.24-.87s-.08-.68-.24-.89c-.16-.2-.39-.3-.69-.3s-.53.1-.68.3c-.16.2-.24.5-.24.89s.08.67.24.87c.15.2.38.3.68.3s.53-.1.69-.3"/>
  <path d="m107.17,6.29c-.36-.36-.53-.85-.53-1.46s.18-1.12.53-1.49c.35-.37.83-.55,1.43-.55s1.09.18,1.44.55c.35.37.53.86.53,1.49s-.18,1.1-.53,1.46c-.35.36-.83.54-1.44.54s-1.08-.18-1.43-.54m2.12-.6c.16-.2.24-.49.24-.87s-.08-.68-.24-.89c-.16-.2-.39-.3-.69-.3s-.53.1-.68.3c-.16.2-.24.5-.24.89s.08.67.24.87c.15.2.38.3.68.3s.53-.1.69-.3"/>
  <polygon points="111.31 1.54 111.81 1.54 112.33 1.54 112.33 6.73 111.82 6.73 111.31 6.73 111.31 1.54"/>
  <path d="m119.54,4.77c0,.74-.16,1.27-.49,1.61-.33.33-.87.49-1.61.49s-1.24-.17-1.58-.51c-.34-.35-.51-.87-.52-1.58V1.54h1.09v3.27c0,.37.09.65.25.84.17.18.42.28.76.28.36,0,.62-.09.77-.26.16-.17.24-.45.24-.86V1.54h1.09v3.24Z"/>
  <path d="m120.52,2.89h.97v.56c.04-.06.08-.13.13-.19.25-.32.61-.47,1.09-.47.4,0,.72.12.95.36.23.24.35.58.35,1v2.59h-1.02v-2.4c0-.24-.05-.41-.15-.53-.1-.12-.26-.17-.47-.17-.27,0-.47.08-.61.24-.14.16-.21.39-.21.69v2.17h-1.02v-3.84Z"/>
  <path d="m124.97,1.49h1.03v.94h-1.03v-.94Zm0,1.39h1.02v3.84h-1.02v-3.84Z"/>
  <polygon points="126.57 2.89 127.13 2.89 127.69 2.89 128.51 5.74 128.52 5.74 129.34 2.89 129.87 2.89 130.41 2.89 129.02 6.73 128.49 6.73 127.96 6.73 126.57 2.89"/>
  <path d="m132.5,6.83c-.58,0-1.04-.18-1.35-.54-.32-.36-.48-.88-.48-1.54,0-.61.16-1.1.49-1.45.32-.35.77-.52,1.34-.52s1.04.18,1.36.53c.32.35.47.85.47,1.51,0,.08,0,.15-.02.23h-2.62c.02.31.09.53.2.68.14.19.38.29.71.29.15,0,.29-.05.43-.13.13-.08.21-.19.23-.31h1.03c-.09.39-.29.7-.6.92-.32.22-.71.33-1.19.33m.77-2.42c-.02-.23-.09-.4-.18-.53-.13-.17-.33-.26-.6-.26s-.46.1-.59.3c-.09.13-.15.29-.18.49h1.57Z"/>
  <path d="m134.99,2.89h.97v.69c.04-.08.07-.15.12-.22.24-.38.55-.57.92-.57h.23v1.04c-.09,0-.19-.01-.3-.01-.31,0-.54.08-.69.23-.15.15-.23.39-.23.7v1.99h-1.02v-3.84Z"/>
  <path d="m139.98,4.04c0-.15-.06-.27-.18-.35-.12-.09-.28-.14-.49-.14s-.35.03-.46.1c-.11.06-.16.16-.16.28,0,.08.06.16.19.22.12.06.34.12.65.19.62.14,1.04.29,1.24.46.21.16.32.42.32.78,0,.37-.15.68-.46.91-.31.23-.71.34-1.21.34-.59,0-1.05-.11-1.37-.34-.32-.23-.49-.56-.51-.99h1.03c0,.18.09.31.24.41.15.1.35.15.61.15.2,0,.36-.04.48-.1.11-.07.17-.17.17-.29,0-.09-.05-.16-.17-.22-.11-.06-.3-.12-.58-.18-.65-.15-1.09-.3-1.31-.46-.22-.16-.33-.41-.33-.75,0-.38.14-.69.43-.92.29-.23.66-.35,1.12-.35.52,0,.94.12,1.26.35.32.23.48.53.48.91h-1Z"/>
  <path d="m141.86,1.49h1.03v.94h-1.03v-.94Zm0,1.39h1.02v3.84h-1.02v-3.84Z"/>
  <path d="m145.61,6.75c-.17.01-.38.02-.63.02-.36,0-.62-.06-.77-.19-.16-.13-.24-.34-.24-.63v-2.35h-.54v-.71h.54v-1.04h1.02v1.04h.62v.71h-.62v2.18c0,.09.03.15.08.18.05.03.16.04.33.04h.21v.76Z"/>
  <path d="m148.29,6.81c-.22.65-.41,1.06-.57,1.22-.16.16-.44.25-.85.25h-.48v-.82s.09.01.19.01c.27,0,.45-.06.53-.17.05-.07.1-.22.15-.44l-1.43-3.98h1.12l.83,2.85h0l.81-2.85h1.06l-1.38,3.92Z"/>
  <path d="m.92.47s-.37,2.46-.37,5.89c0,4.97.77,11.96,4.56,16.39,2.17,2.54,6.38,5.03,6.4,5.04.01,0,4.23-2.5,6.4-5.04,3.79-4.43,4.56-11.42,4.56-16.39,0-3.43-.37-5.89-.37-5.89H.92Z"/>
  <path class="cls-1" d="m9.88,18.79s-.06.06-.12.06-.1-.01-.11-.06c-.03,0-.02,0-.07,0-.04,0-.27.09-.29.08,0,0,.35-.19.43-.19.1,0,.17.04.24.05.06.01.19.05.21.05.01,0-.01.02-.05.02-.05,0-.17,0-.24-.02m1.27,5.02c0-.07-.04-.14-.09-.21,0,0,0-.01-.01-.01-.01-.02-.02-.03-.04-.05-.02-.02-.03-.03-.05-.05,0,0,0,0-.01-.01-.03-.03-.06-.06-.1-.09l.3.08v.35Zm4.36-4.99c-.97.72-2.95.68-3.27.77-.31.08-.22.3-.22.3-.44,1.15-1.22.58-1.22.58-.6-.37-.49.02-.26.48-.93-.12-.16-1.41.17-1.67.35-.27.74-1,.74-1-.11.13-.45.36-1.37.17-.4-.08-.69.17-.69.17-1.76-.16-1.31.61-1.31.61.19-.3.71-.16.71-.16,0,.11.06.17.12.2-.01.12-.04.28-.1.43-.07-.01-.22-.08-.27-.07-.14.02-.12.22-.27.28.01.03.08.08.16.1-.07.08-.06.2-.06.21,0,.06.04.07.04.1,0,.04,0,.07,0,.09.04-.02.09-.05.12-.04.03,0,.11,0,.16-.03.03-.02.08-.07.12-.15.01,0,.02.02.03.02.03.03.06.1.07.11.02,0,.02-.07.05-.11.03-.03.08-.15.11-.22.03-.08-.02-.14-.03-.15-.02-.02-.06-.05-.08-.08.05-.13.09-.29.1-.45,0,0,0-.13,0-.21,0-.07-.04-.1-.04-.1.07-.05.12.05.12.05v.24c.09,0,.16-.03.16-.03,0,0,.57-.06.65.08.09.14.05.51-.45,1.42-.55,1,.04,1.97.85,2.39.27.2.84.71.77,1.39,0,0-1.05.21-1.08.68,0,0,.34-.23.62-.26.54-.05.83-.01,1.6.07,0,0-.42-.24-.88-.33,0,0-.2-.76.08-1.35.01,0,.02,0,.03,0,.35-.07.95.27.95.27l-.14-.36c.64.09.95.85.95.85-.02-.64-.44-1.27-.93-1.81.07.01.14.02.21.03.18.01.34,0,.5-.02l-.22-.87.44.82c.44-.12.8-.39,1.1-.73l-.47-.47.59.32c.24-.31.42-.65.57-.99l-.61-.28.68.1c.29-.75.39-1.41.39-1.41"/>
  <path class="cls-1" d="m3.93,3.04s-.04.04-.1.04-.09,0-.09-.05c-.02,0-.02,0-.06,0-.04,0-.22.07-.24.07,0,0,.29-.15.35-.15.08,0,.14.03.2.04.05.01.16.04.17.04.01,0,0,.02-.04.02-.04,0-.14,0-.2-.01m1.05,4.14c0-.06-.03-.12-.07-.17,0,0,0,0-.01-.01,0-.01-.02-.03-.03-.04-.01-.02-.03-.03-.04-.04,0,0,0,0,0,0-.02-.02-.05-.05-.08-.07l.24.06v.28Zm3.6-4.11c-.8.59-2.43.56-2.69.63-.26.07-.18.25-.18.25-.36.94-1.01.48-1.01.48-.49-.31-.41.02-.21.4-.77-.1-.13-1.17.14-1.37.29-.22.61-.83.61-.83-.09.1-.37.3-1.13.14-.33-.07-.57.14-.57.14-1.46-.13-1.08.51-1.08.51.16-.25.59-.13.59-.13,0,.09.04.14.1.16-.01.1-.03.23-.08.36-.05-.01-.18-.07-.23-.06-.11.02-.1.19-.22.23.01.03.07.07.13.08-.05.06-.05.17-.05.18,0,.05.04.06.04.08,0,.03,0,.06,0,.07.03-.01.07-.04.1-.03.02,0,.09,0,.13-.02.02-.01.07-.05.1-.12.01,0,.02.01.02.02.02.02.05.09.06.09.01,0,.02-.06.04-.09.02-.02.07-.12.09-.18.02-.07-.02-.12-.03-.13-.02-.02-.05-.04-.06-.06.04-.11.07-.24.08-.37,0,0,0-.11,0-.17,0-.06-.04-.08-.04-.08.06-.04.1.04.1.04v.2c.07,0,.13-.02.13-.02,0,0,.47-.05.54.07.07.12.04.42-.37,1.17-.45.83.03,1.62.7,1.97.23.17.7.58.64,1.14,0,0-.86.17-.89.56,0,0,.28-.19.52-.21.45-.04.68-.01,1.32.06,0,0-.35-.2-.72-.28,0,0-.17-.63.07-1.11,0,0,.02,0,.02,0,.29-.06.79.22.79.22l-.11-.3c.53.08.78.7.78.7-.02-.52-.36-1.05-.76-1.49.06,0,.12.02.17.02.15.01.28,0,.41-.02l-.18-.72.36.68c.37-.1.66-.32.9-.6l-.39-.38.49.26c.2-.25.35-.54.47-.82l-.51-.23.56.08c.24-.62.32-1.16.32-1.16"/>
  <path class="cls-1" d="m16.24,3.04s-.04.05-.1.05-.08,0-.09-.05c-.02,0-.02,0-.06,0-.04,0-.22.07-.24.07,0,0,.29-.15.36-.15.08,0,.14.03.2.04.05.01.16.04.17.04,0,0-.01.01-.04.02-.04,0-.14,0-.2-.01m1.05,4.14c0-.06-.03-.12-.08-.17,0,0,0,0,0-.01-.01-.01-.02-.03-.03-.04-.01-.01-.03-.03-.04-.04,0,0,0,0,0,0-.02-.02-.05-.05-.08-.07l.25.06v.29Zm3.6-4.12c-.8.59-2.44.56-2.7.63-.26.07-.18.25-.18.25-.36.94-1.01.48-1.01.48-.5-.31-.41.02-.21.4-.77-.1-.13-1.16.14-1.37.29-.22.61-.83.61-.83-.09.1-.37.3-1.13.14-.33-.07-.57.14-.57.14-1.46-.13-1.08.51-1.08.51.16-.25.59-.13.59-.13,0,.09.05.14.1.16-.01.1-.04.23-.08.36-.05-.01-.18-.07-.23-.06-.11.02-.1.18-.22.23,0,.03.07.07.13.08-.05.06-.05.16-.05.18,0,.05.03.06.04.08,0,.03,0,.06,0,.07.03-.01.07-.04.1-.03.02,0,.09,0,.13-.02.03-.01.07-.05.1-.12,0,0,.02.01.02.02.02.03.05.09.06.09.01,0,.02-.06.04-.09.02-.02.07-.12.09-.18.02-.07-.02-.12-.03-.13-.02-.02-.05-.04-.07-.06.04-.11.07-.24.08-.37,0,0,0-.11,0-.17,0-.06-.03-.08-.03-.08.05-.04.1.04.1.04v.2c.07,0,.13-.02.13-.02,0,0,.47-.05.54.07.07.12.04.42-.37,1.17-.45.83.03,1.62.7,1.97.23.17.7.58.64,1.14,0,0-.86.17-.89.56,0,0,.28-.19.52-.21.44-.04.68-.01,1.32.06,0,0-.35-.2-.72-.28,0,0-.17-.63.07-1.11,0,0,.02,0,.03,0,.29-.06.78.22.78.22l-.11-.3c.53.08.78.7.78.7-.02-.52-.36-1.05-.77-1.49.06,0,.12.02.17.02.15.01.29,0,.41-.02l-.18-.72.36.68c.37-.1.66-.32.9-.6l-.39-.38.49.26c.2-.25.35-.54.47-.82l-.51-.23.56.09c.24-.62.32-1.16.32-1.16"/>
  <path class="cls-1" d="m11.44,15.33s-.85-1.69-1.86-1c-.67.46-1.06.81-1.61,1.09-.27.14-.52.1-.73-.05-.56-.42-.62-.47-.62-.47v.64s-.56,0-.56,0v.41s0,.94,0,.94c0,0,1.04.76,2.44-.17,1.39-.93,2.38-1.24,3,.45l.13-1.83h-.2Z"/>
  <path class="cls-1" d="m16.63,15.53h-.23v-.64s-.06.04-.62.47c-.21.16-.47.19-.73.05-.55-.29-.94-.64-1.61-1.09-1.01-.69-1.86,1-1.86,1l-.07,1.83c.63-1.69,1.61-1.38,3-.45,1.39.93,2.44.17,2.44.17v-1.34h-.32Z"/>
  <path class="cls-1" d="m11.49,6.97s.02.02.03.02c0,0-.02-.01-.03-.02"/>
  <path class="cls-1" d="m15.61,11.21l.52-.05s0-.51,0-.54l-.53-.06c-.02-.17-.04-.35-.05-.43l.48-.19-.13-.54-.52.1c-.07-.24-.05-.17-.16-.39l.42-.3-.27-.47-.48.22c-.06-.08-.1-.18-.26-.33l.33-.41s-.35-.35-.38-.38l-.42.32c-.15-.15-.26-.21-.32-.27l.21-.46-.47-.28-.3.44c-.2-.14-.4-.17-.4-.17l.09-.52-.53-.14-.18.49s-.16-.03-.42-.05l-.05-.5-.54-.02-.05.52h-.06c-.23.02-.14,0-.36.05l-.19-.49-.53.15.09.5s-.16.06-.38.17l-.33-.41c-.08.04-.37.22-.45.26l.2.47c-.12.08-.24.17-.34.27l-.4-.32-.38.37.33.4c-.12.12-.09.09-.27.35l-.47-.22-.26.48.41.3c-.03.07-.12.23-.17.4,0,0-.51-.08-.51-.07-.03.1-.11.41-.14.51,0,0,.49.19.49.19-.04.18-.03.34-.05.42l-.51.05v.56s.52.04.52.04c-.01.12.04.31.05.43l-.49.19.15.52.5-.09c-.03-.07.06.16.16.38l-.41.32.27.46.47-.2c.14.2.32.42.26.33l-.32.4.38.38.4-.32c.06.07.19.15.33.24l-.21.48c.1.05.38.23.44.02l.31-.42c.24.37.38.17.38.17l-.06-.04.52.14.17.06c.24.06.21.3.46.32l.05.52h.55s.06-.52.06-.52c.24-.02.18,0,.41-.06l.18-.24.32-.04.19.04c.12-.04.19-.03.33-.1l.31.42c.1-.06.36-.21.46-.27l-.22-.47c.15-.1.28-.2.35-.27l.4.33.38-.38-.34-.4c.18-.18.12-.14.26-.34l.48.22.27-.47-.42-.31c.1-.22.09-.17.16-.41l.51.1.15-.53-.49-.18c0-.07.03-.25.04-.42m-4.14,3.38c-.88,0-1.7-.31-2.34-.83h4.67c-.64.52-1.45.83-2.34.83m2.56-1.03h-5.12c-.71-.68-1.15-1.63-1.15-2.69,0-2.05,1.66-3.71,3.71-3.71s3.71,1.66,3.71,3.71c0,1.06-.45,2.01-1.15,2.69"/>
  <path class="cls-1" d="m13.12,10.01l.28-.18-.89-1.38s-.22-.02-.28.21c.15.24.89,1.35.89,1.35"/>
  <path class="cls-1" d="m11.48,9.89h.4s0-1.8,0-1.8c0,0-.21-.16-.39,0,0,.28,0,1.8,0,1.8"/>
  <path class="cls-1" d="m11.93,9.89h.34s-.01-1.68-.01-1.68c0,0-.15-.15-.33,0,0,.28,0,1.68,0,1.68"/>
  <path class="cls-1" d="m11.39,8.44c-.14-.15-.26-.07-.26-.07,0,0-.1.08-.1.08,0,0-.55,0-.73.05-.18.04-.45.08-.46.09,0,0,.03.01,0,.08-.03.07-.08.15-.08.15,0,0,.46-.13.67-.15.21-.02.5-.03.5-.02,0,.01-.53.06-.53.06l.06.06h.77s.28-.06.17-.33m-.13.18c-.1.08-.12.04-.12.04,0,0,.05-.04.08-.07.02-.03,0-.05-.03-.07-.03-.03.01-.03.01-.03.04,0,0,0,.06.01.06.01,0,.12,0,.12"/>
  <path class="cls-1" d="m10.09,9.13h1.31v-.34h-1.31v.34Zm1.18-.04h-.02v-.26h.02v.26Z"/>
  <path class="cls-1" d="m10.09,9.9h1.31v-.34h-1.31v.34Zm1.18-.04h-.02v-.26h.02v.26Z"/>
  <path class="cls-1" d="m10.09,9.52h1.31v-.34h-1.31v.34Zm1.18-.04h-.02v-.26h.02v.26Z"/>
  <polygon class="cls-1" points="9.13 12.95 9.28 13 10.31 10.19 10.17 10.14 9.13 12.95"/>
  <path class="cls-1" d="m9.57,13.07l-.66-.27s-.06.02-.09.02c-.02,0-.04,0-.06-.01l-.14.35s.07.06.08.11l.68.28s.08-.03.12-.01l.15-.36s-.08-.06-.08-.11"/>
  <path class="cls-1" d="m10.25,12.24l.33-.21s.55-.85-.41-1.16c.15-.52.18-.65.18-.65,0,0,.03-.1-.07-.13-.1-.03-.13,0-.16.05-.03.1-.25.65-.25.65l-.27-.03s-.28-.01-.27-.33c-.02-.36-.02-.49-.02-.49h3.37l.08.11v.86s-.57.12-.43.61c.13.51.27.57.39.64.12.07.13.09.13.09h-2.59Z"/>
  <path class="cls-1" d="m10.26,12.3s-.14-.03-.13.1v.19h.1s0-.02.07-.02,2.52-.01,2.52-.01c0,0-.01,0,.04.01h.08v-.21s.02-.06-.15-.06-2.54,0-2.54,0"/>
  <path class="cls-1" d="m14.19,10.32v-.12c.06-.06.12-.12.18-.18-.07,0-.13,0-.2,0-.03-.04-.1-.07-.14-.07,0,0-.14,0-.14.07-1.03,0-1.07-.01-1.07-.01v.85s.54.02,1.17-.47c0,0,0,0,0,.01v.28c-.07,0-.13.06-.13.13v.33c0,.07.06.13.13.13v.19c-.07,0-.13.06-.13.13v.33c0,.07.06.13.13.13h.09c.07,0,.13-.06.13-.13v-.33c0-.07-.06-.13-.12-.13v-.19c.07,0,.12-.06.12-.13v-.33c0-.07-.06-.13-.12-.13v-.24c.06,0,.11-.05.11-.12m-.07,1.32v.23c0,.05-.03.09-.07.09h-.05s-.07-.04-.07-.09v-.23s.02-.08.05-.09v.05s0,.02.01.02h.07s.01,0,.01-.02v-.05s.04.05.04.09m0-.78v.23s-.02.07-.04.09v-.06s0-.02-.01-.02h-.07s-.01,0-.01.02v.07s-.05-.05-.05-.09v-.23s.02-.08.05-.09v.07s0,.01.01.01h.07s.01,0,.01-.01v-.07s.04.05.04.09"/>
  <rect class="cls-1" x="9.66" y="12.63" width="3.73" height=".84"/>
  <path d="m8.09,16.4c.05-.04.07-.08.1-.14.02-.05.06-.16.09-.25,0-.02,0-.03,0-.04,0,0,0-.01-.02-.03-.04-.03-.1-.1-.15-.14-.02-.02-.04-.02-.08,0,0,0,0,0-.01,0,0,0-.01-.02,0-.03.02-.02.08-.05.13-.08.07-.04.1-.07.12-.08,0,0,.01.02,0,.03,0,0-.01.01-.02.01-.01.01-.03.03-.03.03,0,0,0,.02.02.03.03.03.1.09.1.09.01,0,.04-.13.06-.19,0-.02,0-.03,0-.03,0,0,0,0-.02,0-.01,0-.02,0-.03.01,0,0-.01-.03,0-.03.02-.01.06-.03.09-.05.04-.02.07-.05.09-.06,0,0,.02.02.01.03,0,0-.01.01-.02.02-.02.01-.03.03-.04.05-.03.07-.06.16-.09.25,0,.02-.01.04,0,.04,0,0,0,.01.02.02.09.08.16.14.21.17.05.03.08.03.12.02.01,0,.02,0,.03-.01,0,0,.01.03,0,.03-.03.02-.07.03-.16.08-.07.04-.12.08-.17.09,0,0-.02-.02,0-.03,0,0,.02-.01.03-.02.02-.02.04-.03.04-.03,0,0,0-.01-.04-.05-.02-.02-.12-.11-.12-.11-.02,0-.06.18-.09.26,0,.02,0,.02,0,.03,0,0,.01,0,.03,0,0,0,.02,0,.03-.01,0,0,.01.03,0,.04-.04.02-.09.04-.13.07-.03.02-.07.05-.1.06,0,0-.01-.02,0-.03,0,0,.01,0,.02-.01"/>
  <path d="m8.72,15.51c-.03-.09-.03-.09-.07-.07-.01,0-.02,0-.03.01,0,0-.01-.02-.01-.03.03-.03.09-.05.13-.08.04-.02.08-.07.12-.08,0,0,.01.02.01.03,0,0-.01.01-.02.02-.03.03-.04.04,0,.12.04.14.07.22.12.36.03.08.04.15.04.2,0,.1-.05.18-.18.25-.03.02-.08.04-.09,0,0-.01,0-.04.01-.06,0,0,.02-.02.03-.02.02,0,.04,0,.06,0,.02,0,.04,0,.05,0,.02-.01.02-.05,0-.09,0-.02-.02-.08-.05-.19-.05-.15-.07-.24-.12-.38"/>
  <path d="m9.14,15.15s0-.02-.03,0c-.02.02-.04.02-.06.04-.07.05-.06.12-.08.18,0,.01-.03.02-.04.01-.02-.04-.02-.14-.02-.17,0,0,0-.01,0-.01,0,0,.01,0,.01,0,0,0,.01.01.08-.04.14-.1.22-.15.38-.24.07-.04.08-.06.09-.07,0,0,0,0,.01-.01,0,0,.02,0,.02,0,0,.01.03.12.03.16,0,.01-.03.03-.04.02-.03-.04-.06-.09-.14-.04-.03.01-.04.02-.06.04-.02.01-.03.02-.02.04.05.16.08.26.14.45.03.1.04.1.08.08.01,0,.02,0,.04-.02,0,0,.01.03,0,.03-.04.04-.11.06-.15.09-.05.03-.11.1-.16.11,0,0-.02-.02-.01-.03.02-.01.02-.02.04-.03.04-.03.04-.05.01-.14-.06-.18-.09-.28-.14-.44"/>
  <path d="m9.9,15.25c.01.05.02.09.04.1.02.02.04.02.1,0,.09-.02.1-.03.14-.15,0-.01.03,0,.04,0,.01.04,0,.17,0,.18-.01.01-.14,0-.21.02-.05.01-.08.02-.12.03-.04.02-.11.06-.15.06,0,0-.02-.02-.01-.03.01,0,.02-.01.04-.02.04-.03.05-.03.02-.13-.04-.16-.06-.25-.09-.39-.02-.09-.03-.1-.08-.08-.01,0-.02,0-.03.01-.01,0-.02-.02,0-.03.04-.03.1-.05.15-.06.05-.02.11-.05.14-.05,0,0,.02.02.01.03-.01,0-.01,0-.02,0-.04.02-.04.03-.02.12.03.14.05.22.08.38"/>
  <path d="m10.21,14.83c-.02-.09-.03-.1-.08-.11,0,0-.02,0-.03,0,0,0-.01-.03,0-.03.03-.01.1,0,.15,0,.05,0,.12,0,.15.01,0,0,.01.03,0,.03h-.02s-.05,0-.03.1c.02.09.03.14.04.24.02.13.05.26.19.28.12.02.14-.08.13-.22,0-.05,0-.07-.01-.12-.01-.08-.03-.15-.04-.18-.01-.02-.04-.04-.06-.05-.01,0-.02-.01-.03-.01,0-.01-.01-.03,0-.04.03,0,.09.04.13.06.04.01.08.03.1.05,0,0,.01.03,0,.03,0,0,0,0-.01,0-.02,0-.04,0-.04,0,0,.02,0,.09.01.17,0,.04,0,.06.01.11.01.09.01.17-.04.22-.03.04-.1.05-.17.04-.07,0-.13-.03-.19-.08-.06-.05-.09-.13-.11-.24-.02-.11-.03-.16-.05-.27"/>
  <path d="m12.9,15.3c.08.01.09,0,.12-.04,0,0,.04,0,.04.02,0,.05-.05.14-.07.15-.02,0-.08-.02-.15-.03-.07,0-.1-.01-.17,0-.05,0-.11.01-.12.01-.01,0-.01-.01-.01-.02.02-.03.11-.1.18-.17.08-.09.16-.18.18-.3,0-.08-.03-.14-.12-.13-.07,0-.13.08-.17.13-.01.01-.05.01-.05,0,.01-.1.19-.22.31-.22.14,0,.2.1.19.21,0,.09-.05.14-.19.26-.02.02-.03.03-.06.05-.05.04-.06.06-.06.07,0,0,0,.01.02.01.05,0,.08,0,.13.01"/>
  <path d="m13.58,15.26c-.02.19-.08.34-.24.28-.16-.06-.22-.24-.2-.43.02-.18.12-.34.27-.3.15.05.19.26.17.45m-.23.24c.07.03.1-.18.11-.29.01-.1.03-.33-.04-.35-.07-.02-.1.19-.12.3-.01.1-.02.32.05.34"/>
  <path d="m14.05,15.52c-.02.2-.1.33-.25.24-.15-.1-.2-.28-.18-.47.02-.18.08-.35.23-.27.14.07.22.32.2.51m-.25.19c.07.04.09-.17.1-.27,0-.11.01-.34-.06-.38s-.09.18-.1.29c0,.1-.02.32.05.36"/>
  <path d="m14.26,15.33c.08-.04.22-.04.3.04,0,.01,0,.04,0,.04-.07,0-.17-.04-.22.01-.06.05-.09.15-.11.27-.02.13,0,.29.06.34.06.04.08-.03.09-.09.01-.08,0-.25-.07-.3,0,0-.02,0-.02-.01,0,0,0-.02,0-.03,0-.01.07-.01.1,0,.11.08.15.23.14.34-.02.16-.13.2-.25.11-.14-.09-.2-.27-.18-.45.02-.14.08-.25.17-.29"/>
</svg>